# Blender 5.1.2
# www.blender.org
mtllib clock.mtl
o Obj_Clock
v -0.002052 0.113797 0.014505
v -0.002052 0.113797 0.016394
v -0.002052 0.146537 0.014505
v -0.002052 0.146537 0.016394
v 0.002052 0.113797 0.014505
v 0.002052 0.113797 0.016394
v 0.002052 0.146537 0.014505
v 0.002052 0.146537 0.016394
v -0.044144 0.101419 0.014505
v -0.044144 0.101419 0.016394
v -0.060514 0.129772 0.014505
v -0.060514 0.129772 0.016394
v -0.040590 0.103471 0.014505
v -0.040590 0.103471 0.016394
v -0.056960 0.131824 0.014505
v -0.056960 0.131824 0.016394
v -0.074408 0.069653 0.014505
v -0.074408 0.069653 0.016394
v -0.102761 0.086023 0.014505
v -0.102761 0.086023 0.016394
v -0.072356 0.073207 0.014505
v -0.072356 0.073207 0.016394
v -0.100709 0.089577 0.014505
v -0.100709 0.089577 0.016394
v -0.084734 0.027011 0.014505
v -0.084734 0.027011 0.016394
v -0.117474 0.027011 0.014505
v -0.117474 0.027011 0.016394
v -0.084734 0.031115 0.014505
v -0.084734 0.031115 0.016394
v -0.117474 0.031115 0.014505
v -0.117474 0.031115 0.016394
v -0.072356 -0.015081 0.014505
v -0.072356 -0.015081 0.016394
v -0.100709 -0.031451 0.014505
v -0.100709 -0.031451 0.016394
v -0.074408 -0.011527 0.014505
v -0.074408 -0.011527 0.016394
v -0.102761 -0.027897 0.014505
v -0.102761 -0.027897 0.016394
v -0.040590 -0.045345 0.014505
v -0.040590 -0.045345 0.016394
v -0.056960 -0.073698 0.014505
v -0.056960 -0.073698 0.016394
v -0.044144 -0.043293 0.014505
v -0.044144 -0.043293 0.016394
v -0.060514 -0.071646 0.014505
v -0.060514 -0.071646 0.016394
v 0.002052 -0.055671 0.014505
v 0.002052 -0.055671 0.016394
v 0.002052 -0.088411 0.014505
v 0.002052 -0.088411 0.016394
v -0.002052 -0.055671 0.014505
v -0.002052 -0.055671 0.016394
v -0.002052 -0.088411 0.014505
v -0.002052 -0.088411 0.016394
v 0.044144 -0.043293 0.014505
v 0.044144 -0.043293 0.016394
v 0.060514 -0.071646 0.014505
v 0.060514 -0.071646 0.016394
v 0.040590 -0.045345 0.014505
v 0.040590 -0.045345 0.016394
v 0.056960 -0.073698 0.014505
v 0.056960 -0.073698 0.016394
v 0.074408 -0.011527 0.014505
v 0.074408 -0.011527 0.016394
v 0.102761 -0.027897 0.014505
v 0.102761 -0.027897 0.016394
v 0.072356 -0.015081 0.014505
v 0.072356 -0.015081 0.016394
v 0.100709 -0.031451 0.014505
v 0.100709 -0.031451 0.016394
v 0.084734 0.031115 0.014505
v 0.084734 0.031115 0.016394
v 0.117474 0.031115 0.014505
v 0.117474 0.031115 0.016394
v 0.084734 0.027011 0.014505
v 0.084734 0.027011 0.016394
v 0.117474 0.027011 0.014505
v 0.117474 0.027011 0.016394
v 0.072356 0.073207 0.014505
v 0.072356 0.073207 0.016394
v 0.100709 0.089577 0.014505
v 0.100709 0.089577 0.016394
v 0.074408 0.069653 0.014505
v 0.074408 0.069653 0.016394
v 0.102761 0.086023 0.014505
v 0.102761 0.086023 0.016394
v 0.040590 0.103471 0.014505
v 0.040590 0.103471 0.016394
v 0.056960 0.131824 0.014505
v 0.056960 0.131824 0.016394
v 0.044144 0.101419 0.014505
v 0.044144 0.101419 0.016394
v 0.060514 0.129772 0.014505
v 0.060514 0.129772 0.016394
v 0.000000 0.188367 -0.029063
v 0.000000 0.188367 0.027048
v 0.031079 0.185306 -0.029063
v 0.031079 0.185306 0.027048
v 0.060963 0.176240 -0.029063
v 0.060963 0.176240 0.027048
v 0.088504 0.161519 -0.029063
v 0.088504 0.161519 0.027048
v 0.112645 0.141708 -0.029063
v 0.112645 0.141708 0.027048
v 0.132456 0.117567 -0.029063
v 0.132456 0.117567 0.027048
v 0.147177 0.090026 -0.029063
v 0.147177 0.090026 0.027048
v 0.156243 0.060142 -0.029063
v 0.156243 0.060142 0.027048
v 0.159304 0.029063 -0.029063
v 0.159304 0.029063 0.027048
v 0.156243 -0.002015 -0.029063
v 0.156243 -0.002015 0.027048
v 0.147177 -0.031900 -0.029063
v 0.147177 -0.031900 0.027048
v 0.132456 -0.059441 -0.029063
v 0.132456 -0.059441 0.027048
v 0.112645 -0.083582 -0.029063
v 0.112645 -0.083582 0.027048
v 0.088504 -0.103393 -0.029063
v 0.088504 -0.103393 0.027048
v 0.060963 -0.118114 -0.029063
v 0.060963 -0.118114 0.027048
v 0.031079 -0.127179 -0.029063
v 0.031079 -0.127179 0.027048
v -0.000000 -0.130240 -0.029063
v -0.000000 -0.130240 0.027048
v -0.031079 -0.127179 -0.029063
v -0.031079 -0.127179 0.027048
v -0.060963 -0.118114 -0.029063
v -0.060963 -0.118114 0.027048
v -0.088504 -0.103393 -0.029063
v -0.088504 -0.103393 0.027048
v -0.112645 -0.083581 -0.029063
v -0.112645 -0.083581 0.027048
v -0.132456 -0.059441 -0.029063
v -0.132456 -0.059441 0.027048
v -0.147177 -0.031900 -0.029063
v -0.147177 -0.031900 0.027048
v -0.156243 -0.002015 -0.029063
v -0.156243 -0.002015 0.027048
v -0.159304 0.029063 -0.029063
v -0.159304 0.029063 0.027048
v -0.156243 0.060142 -0.029063
v -0.156243 0.060142 0.027048
v -0.147177 0.090026 -0.029063
v -0.147177 0.090026 0.027048
v -0.132456 0.117568 -0.029063
v -0.132456 0.117568 0.027048
v -0.112644 0.141708 -0.029063
v -0.112644 0.141708 0.027048
v -0.088504 0.161519 -0.029063
v -0.088504 0.161519 0.027048
v -0.060963 0.176240 -0.029063
v -0.060963 0.176240 0.027048
v -0.031078 0.185306 -0.029063
v -0.031078 0.185306 0.027048
v 0.026859 0.164090 0.027048
v 0.000000 0.166736 0.027048
v 0.052685 0.156256 0.027048
v 0.076487 0.143534 0.027048
v 0.097349 0.126412 0.027048
v 0.114470 0.105550 0.027048
v 0.127193 0.081748 0.027048
v 0.135027 0.055922 0.027048
v 0.137672 0.029063 0.027048
v 0.135027 0.002205 0.027048
v 0.127193 -0.023622 0.027048
v 0.114470 -0.047424 0.027048
v 0.097349 -0.068286 0.027048
v 0.076487 -0.085407 0.027048
v 0.052685 -0.098130 0.027048
v 0.026859 -0.105964 0.027048
v -0.000000 -0.108609 0.027048
v -0.026859 -0.105964 0.027048
v -0.052685 -0.098130 0.027048
v -0.076487 -0.085407 0.027048
v -0.097349 -0.068286 0.027048
v -0.114471 -0.047424 0.027048
v -0.127193 -0.023622 0.027048
v -0.135027 0.002205 0.027048
v -0.137672 0.029063 0.027048
v -0.135027 0.055922 0.027048
v -0.127193 0.081748 0.027048
v -0.114470 0.105550 0.027048
v -0.097349 0.126412 0.027048
v -0.076487 0.143534 0.027048
v -0.052685 0.156256 0.027048
v -0.026858 0.164090 0.027048
v 0.026859 0.164090 0.014044
v 0.000000 0.166736 0.014044
v 0.052685 0.156256 0.014044
v 0.076487 0.143534 0.014044
v 0.097349 0.126412 0.014044
v 0.114470 0.105550 0.014044
v 0.127193 0.081748 0.014044
v 0.135027 0.055922 0.014044
v 0.137672 0.029063 0.014044
v 0.135027 0.002205 0.014044
v 0.127193 -0.023622 0.014044
v 0.114470 -0.047424 0.014044
v 0.097349 -0.068286 0.014044
v 0.076487 -0.085407 0.014044
v 0.052685 -0.098130 0.014044
v 0.026859 -0.105964 0.014044
v -0.000000 -0.108609 0.014044
v -0.026859 -0.105964 0.014044
v -0.052685 -0.098130 0.014044
v -0.076487 -0.085407 0.014044
v -0.097349 -0.068286 0.014044
v -0.114471 -0.047424 0.014044
v -0.127193 -0.023622 0.014044
v -0.135027 0.002205 0.014044
v -0.137672 0.029063 0.014044
v -0.135027 0.055922 0.014044
v -0.127193 0.081748 0.014044
v -0.114470 0.105550 0.014044
v -0.097349 0.126412 0.014044
v -0.076487 0.143534 0.014044
v -0.052685 0.156256 0.014044
v -0.026858 0.164090 0.014044
v 0.000000 0.040404 0.029063
v 0.000000 0.040404 0.014382
v -0.004340 0.039540 0.029063
v -0.004340 0.039540 0.014382
v -0.008019 0.037082 0.029063
v -0.008019 0.037082 0.014382
v -0.010477 0.033403 0.029063
v -0.010477 0.033403 0.014382
v -0.011341 0.029063 0.029063
v -0.011341 0.029063 0.014382
v -0.010477 0.024723 0.029063
v -0.010477 0.024723 0.014382
v -0.008019 0.021044 0.029063
v -0.008019 0.021044 0.014382
v -0.004340 0.018586 0.029063
v -0.004340 0.018586 0.014382
v 0.000000 0.017723 0.029063
v 0.000000 0.017723 0.014382
v 0.004340 0.018586 0.029063
v 0.004340 0.018586 0.014382
v 0.008019 0.021044 0.029063
v 0.008019 0.021044 0.014382
v 0.010477 0.024723 0.029063
v 0.010477 0.024723 0.014382
v 0.011341 0.029063 0.029063
v 0.011341 0.029063 0.014382
v 0.010477 0.033403 0.029063
v 0.010477 0.033403 0.014382
v 0.008019 0.037082 0.029063
v 0.008019 0.037082 0.014382
v 0.004340 0.039540 0.029063
v 0.004340 0.039540 0.014382
vn -1.0000 -0.0000 -0.0000
vn -0.0000 1.0000 -0.0000
vn 1.0000 -0.0000 -0.0000
vn -0.0000 -1.0000 -0.0000
vn -0.0000 -0.0000 -1.0000
vn -0.0000 -0.0000 1.0000
vn -0.8660 -0.5000 -0.0000
vn -0.5000 0.8660 -0.0000
vn 0.8660 0.5000 -0.0000
vn 0.5000 -0.8660 -0.0000
vn -0.5000 -0.8660 -0.0000
vn -0.8660 0.5000 -0.0000
vn 0.5000 0.8660 -0.0000
vn 0.8660 -0.5000 -0.0000
vn 0.0980 0.9952 -0.0000
vn 0.2903 0.9569 -0.0000
vn 0.4714 0.8819 -0.0000
vn 0.6344 0.7730 -0.0000
vn 0.7730 0.6344 -0.0000
vn 0.8819 0.4714 -0.0000
vn 0.9569 0.2903 -0.0000
vn 0.9952 0.0980 -0.0000
vn 0.9952 -0.0980 -0.0000
vn 0.9569 -0.2903 -0.0000
vn 0.8819 -0.4714 -0.0000
vn 0.7730 -0.6344 -0.0000
vn 0.6344 -0.7730 -0.0000
vn 0.4714 -0.8819 -0.0000
vn 0.2903 -0.9569 -0.0000
vn 0.0980 -0.9952 -0.0000
vn -0.0980 -0.9952 -0.0000
vn -0.2903 -0.9569 -0.0000
vn -0.4714 -0.8819 -0.0000
vn -0.6344 -0.7730 -0.0000
vn -0.7730 -0.6344 -0.0000
vn -0.8819 -0.4714 -0.0000
vn -0.9569 -0.2903 -0.0000
vn -0.9952 -0.0980 -0.0000
vn -0.9952 0.0980 -0.0000
vn -0.9569 0.2903 -0.0000
vn -0.8819 0.4714 -0.0000
vn -0.7730 0.6344 -0.0000
vn -0.6344 0.7730 -0.0000
vn -0.4714 0.8819 -0.0000
vn -0.0980 0.9952 -0.0000
vn -0.2903 0.9569 -0.0000
vn -0.1951 0.9808 -0.0000
vn -0.5556 0.8315 -0.0000
vn -0.8315 0.5556 -0.0000
vn -0.9808 0.1951 -0.0000
vn -0.9808 -0.1951 -0.0000
vn -0.8315 -0.5556 -0.0000
vn -0.5556 -0.8315 -0.0000
vn -0.1951 -0.9808 -0.0000
vn 0.1951 -0.9808 -0.0000
vn 0.5556 -0.8315 -0.0000
vn 0.8315 -0.5556 -0.0000
vn 0.9808 -0.1951 -0.0000
vn 0.9808 0.1951 -0.0000
vn 0.8315 0.5556 -0.0000
vn 0.1951 0.9808 -0.0000
vn 0.5556 0.8315 -0.0000
vt 0.544718 0.827218
vt 0.660282 0.827218
vt 0.660282 0.942782
vt 0.544718 0.942782
vt 0.535668 0.675668
vt 0.664332 0.675668
vt 0.664332 0.804332
vt 0.535668 0.804332
vt 0.600000 0.804332
vt 0.612551 0.803096
vt 0.624619 0.799435
vt 0.635741 0.793490
vt 0.645490 0.785490
vt 0.653491 0.775741
vt 0.659435 0.764619
vt 0.663096 0.752551
vt 0.664332 0.740000
vt 0.663096 0.727449
vt 0.659435 0.715381
vt 0.653491 0.704259
vt 0.645490 0.694510
vt 0.635741 0.686510
vt 0.624619 0.680565
vt 0.612551 0.676904
vt 0.600000 0.675668
vt 0.587449 0.676904
vt 0.575381 0.680565
vt 0.564259 0.686510
vt 0.554510 0.694510
vt 0.546510 0.704259
vt 0.540565 0.715381
vt 0.536904 0.727449
vt 0.535668 0.740000
vt 0.536904 0.752551
vt 0.540565 0.764619
vt 0.546510 0.775741
vt 0.554510 0.785490
vt 0.564259 0.793490
vt 0.575381 0.799435
vt 0.587450 0.803096
vt 0.099615 0.921763
vt 0.100822 0.921644
vt 0.101982 0.921292
vt 0.103052 0.920720
vt 0.103989 0.919951
vt 0.104759 0.919014
vt 0.105330 0.917944
vt 0.105682 0.916784
vt 0.105801 0.915577
vt 0.105682 0.914370
vt 0.105330 0.913210
vt 0.104759 0.912140
vt 0.103989 0.911203
vt 0.103052 0.910434
vt 0.101982 0.909862
vt 0.100822 0.909510
vt 0.099615 0.909391
vt 0.098408 0.909510
vt 0.097248 0.909862
vt 0.096179 0.910434
vt 0.095241 0.911203
vt 0.094472 0.912140
vt 0.093900 0.913210
vt 0.093548 0.914370
vt 0.093429 0.915577
vt 0.093548 0.916784
vt 0.093900 0.917944
vt 0.094472 0.919014
vt 0.095241 0.919951
vt 0.096179 0.920720
vt 0.097248 0.921292
vt 0.098408 0.921644
vt 0.706923 0.861924
vt 0.803077 0.861924
vt 0.803077 0.958077
vt 0.706923 0.958077
vt 0.755000 0.958077
vt 0.773398 0.954417
vt 0.788995 0.943995
vt 0.799417 0.928398
vt 0.803077 0.910000
vt 0.799417 0.891602
vt 0.788995 0.876005
vt 0.773398 0.865583
vt 0.755000 0.861924
vt 0.736602 0.865583
vt 0.721005 0.876005
vt 0.710583 0.891602
vt 0.706923 0.910000
vt 0.710583 0.928398
vt 0.721005 0.943995
vt 0.736602 0.954417
s 0
usemtl WhiteAndBlack
f 2/1/1 4/2/1 3/3/1 1/4/1
f 4/1/2 8/2/2 7/3/2 3/4/2
f 8/1/3 6/2/3 5/3/3 7/4/3
f 6/1/4 2/2/4 1/3/4 5/4/4
f 1/1/5 3/2/5 7/3/5 5/4/5
f 6/1/6 8/2/6 4/3/6 2/4/6
f 10/1/7 12/2/7 11/3/7 9/4/7
f 12/1/8 16/2/8 15/3/8 11/4/8
f 16/1/9 14/2/9 13/3/9 15/4/9
f 14/1/10 10/2/10 9/3/10 13/4/10
f 9/1/5 11/2/5 15/3/5 13/4/5
f 14/1/6 16/2/6 12/3/6 10/4/6
f 18/1/11 20/2/11 19/3/11 17/4/11
f 20/1/12 24/2/12 23/3/12 19/4/12
f 24/1/13 22/2/13 21/3/13 23/4/13
f 22/1/14 18/2/14 17/3/14 21/4/14
f 17/1/5 19/2/5 23/3/5 21/4/5
f 22/1/6 24/2/6 20/3/6 18/4/6
f 26/1/4 28/2/4 27/3/4 25/4/4
f 28/1/1 32/2/1 31/3/1 27/4/1
f 32/1/2 30/2/2 29/3/2 31/4/2
f 30/1/3 26/2/3 25/3/3 29/4/3
f 25/1/5 27/2/5 31/3/5 29/4/5
f 30/1/6 32/2/6 28/3/6 26/4/6
f 34/1/10 36/2/10 35/3/10 33/4/10
f 36/1/7 40/2/7 39/3/7 35/4/7
f 40/1/8 38/2/8 37/3/8 39/4/8
f 38/1/9 34/2/9 33/3/9 37/4/9
f 33/1/5 35/2/5 39/3/5 37/4/5
f 38/1/6 40/2/6 36/3/6 34/4/6
f 42/1/14 44/2/14 43/3/14 41/4/14
f 44/1/11 48/2/11 47/3/11 43/4/11
f 48/1/12 46/2/12 45/3/12 47/4/12
f 46/1/13 42/2/13 41/3/13 45/4/13
f 41/1/5 43/2/5 47/3/5 45/4/5
f 46/1/6 48/2/6 44/3/6 42/4/6
f 50/1/3 52/2/3 51/3/3 49/4/3
f 52/1/4 56/2/4 55/3/4 51/4/4
f 56/1/1 54/2/1 53/3/1 55/4/1
f 54/1/2 50/2/2 49/3/2 53/4/2
f 49/1/5 51/2/5 55/3/5 53/4/5
f 54/1/6 56/2/6 52/3/6 50/4/6
f 58/1/9 60/2/9 59/3/9 57/4/9
f 60/1/10 64/2/10 63/3/10 59/4/10
f 64/1/7 62/2/7 61/3/7 63/4/7
f 62/1/8 58/2/8 57/3/8 61/4/8
f 57/1/5 59/2/5 63/3/5 61/4/5
f 62/1/6 64/2/6 60/3/6 58/4/6
f 66/1/13 68/2/13 67/3/13 65/4/13
f 68/1/14 72/2/14 71/3/14 67/4/14
f 72/1/11 70/2/11 69/3/11 71/4/11
f 70/1/12 66/2/12 65/3/12 69/4/12
f 65/1/5 67/2/5 71/3/5 69/4/5
f 70/1/6 72/2/6 68/3/6 66/4/6
f 74/1/2 76/2/2 75/3/2 73/4/2
f 76/1/3 80/2/3 79/3/3 75/4/3
f 80/1/4 78/2/4 77/3/4 79/4/4
f 78/1/1 74/2/1 73/3/1 77/4/1
f 73/1/5 75/2/5 79/3/5 77/4/5
f 78/1/6 80/2/6 76/3/6 74/4/6
f 82/1/8 84/2/8 83/3/8 81/4/8
f 84/1/9 88/2/9 87/3/9 83/4/9
f 88/1/10 86/2/10 85/3/10 87/4/10
f 86/1/7 82/2/7 81/3/7 85/4/7
f 81/1/5 83/2/5 87/3/5 85/4/5
f 86/1/6 88/2/6 84/3/6 82/4/6
f 90/1/12 92/2/12 91/3/12 89/4/12
f 92/1/13 96/2/13 95/3/13 91/4/13
f 96/1/14 94/2/14 93/3/14 95/4/14
f 94/1/11 90/2/11 89/3/11 93/4/11
f 89/1/5 91/2/5 95/3/5 93/4/5
f 94/1/6 96/2/6 92/3/6 90/4/6
f 97/5/15 98/6/15 100/7/15 99/8/15
f 99/5/16 100/6/16 102/7/16 101/8/16
f 101/5/17 102/6/17 104/7/17 103/8/17
f 103/5/18 104/6/18 106/7/18 105/8/18
f 105/5/19 106/6/19 108/7/19 107/8/19
f 107/5/20 108/6/20 110/7/20 109/8/20
f 109/5/21 110/6/21 112/7/21 111/8/21
f 111/5/22 112/6/22 114/7/22 113/8/22
f 113/5/23 114/6/23 116/7/23 115/8/23
f 115/5/24 116/6/24 118/7/24 117/8/24
f 117/5/25 118/6/25 120/7/25 119/8/25
f 119/5/26 120/6/26 122/7/26 121/8/26
f 121/5/27 122/6/27 124/7/27 123/8/27
f 123/5/28 124/6/28 126/7/28 125/8/28
f 125/5/29 126/6/29 128/7/29 127/8/29
f 127/5/30 128/6/30 130/7/30 129/8/30
f 129/5/31 130/6/31 132/7/31 131/8/31
f 131/5/32 132/6/32 134/7/32 133/8/32
f 133/5/33 134/6/33 136/7/33 135/8/33
f 135/5/34 136/6/34 138/7/34 137/8/34
f 137/5/35 138/6/35 140/7/35 139/8/35
f 139/5/36 140/6/36 142/7/36 141/8/36
f 141/5/37 142/6/37 144/7/37 143/8/37
f 143/5/38 144/6/38 146/7/38 145/8/38
f 145/5/39 146/6/39 148/7/39 147/8/39
f 147/5/40 148/6/40 150/7/40 149/8/40
f 149/5/41 150/6/41 152/7/41 151/8/41
f 151/5/42 152/6/42 154/7/42 153/8/42
f 153/5/43 154/6/43 156/7/43 155/8/43
f 155/5/44 156/6/44 158/7/44 157/8/44
f 106/5/6 104/6/6 164/7/6 165/8/6
f 159/5/45 160/6/45 98/7/45 97/8/45
f 157/5/46 158/6/46 160/7/46 159/8/46
f 97/9/5 99/10/5 101/11/5 103/12/5 105/13/5 107/14/5 109/15/5 111/16/5 113/17/5 115/18/5 117/19/5 119/20/5 121/21/5 123/22/5 125/23/5 127/24/5 129/25/5 131/26/5 133/27/5 135/28/5 137/29/5 139/30/5 141/31/5 143/32/5 145/33/5 147/34/5 149/35/5 151/36/5 153/37/5 155/38/5 157/39/5 159/40/5
f 165/5/34 164/6/34 196/7/34 197/8/34
f 124/5/6 122/6/6 173/7/6 174/8/6
f 142/5/6 140/6/6 182/7/6 183/8/6
f 160/5/6 158/6/6 191/7/6 192/8/6
f 116/5/6 114/6/6 169/7/6 170/8/6
f 134/5/6 132/6/6 178/7/6 179/8/6
f 152/5/6 150/6/6 187/7/6 188/8/6
f 108/5/6 106/6/6 165/7/6 166/8/6
f 126/5/6 124/6/6 174/7/6 175/8/6
f 144/5/6 142/6/6 183/7/6 184/8/6
f 100/5/6 98/6/6 162/7/6 161/8/6
f 98/5/6 160/6/6 192/7/6 162/8/6
f 118/5/6 116/6/6 170/7/6 171/8/6
f 136/5/6 134/6/6 179/7/6 180/8/6
f 154/5/6 152/6/6 188/7/6 189/8/6
f 110/5/6 108/6/6 166/7/6 167/8/6
f 128/5/6 126/6/6 175/7/6 176/8/6
f 146/5/6 144/6/6 184/7/6 185/8/6
f 102/5/6 100/6/6 161/7/6 163/8/6
f 120/5/6 118/6/6 171/7/6 172/8/6
f 138/5/6 136/6/6 180/7/6 181/8/6
f 156/5/6 154/6/6 189/7/6 190/8/6
f 112/5/6 110/6/6 167/7/6 168/8/6
f 130/5/6 128/6/6 176/7/6 177/8/6
f 148/5/6 146/6/6 185/7/6 186/8/6
f 104/5/6 102/6/6 163/7/6 164/8/6
f 122/5/6 120/6/6 172/7/6 173/8/6
f 140/5/6 138/6/6 181/7/6 182/8/6
f 158/5/6 156/6/6 190/7/6 191/8/6
f 114/5/6 112/6/6 168/7/6 169/8/6
f 132/5/6 130/6/6 177/7/6 178/8/6
f 150/5/6 148/6/6 186/7/6 187/8/6
f 193/41/6 194/42/6 224/43/6 223/44/6 222/45/6 221/46/6 220/47/6 219/48/6 218/49/6 217/50/6 216/51/6 215/52/6 214/53/6 213/54/6 212/55/6 211/56/6 210/57/6 209/58/6 208/59/6 207/60/6 206/61/6 205/62/6 204/63/6 203/64/6 202/65/6 201/66/6 200/67/6 199/68/6 198/69/6 197/70/6 196/71/6 195/72/6
f 192/5/29 191/6/29 223/7/29 224/8/29
f 179/5/16 178/6/16 210/7/16 211/8/16
f 166/5/35 165/6/35 197/7/35 198/8/35
f 162/5/30 192/6/30 224/7/30 194/8/30
f 180/5/17 179/6/17 211/7/17 212/8/17
f 167/5/36 166/6/36 198/7/36 199/8/36
f 181/5/18 180/6/18 212/7/18 213/8/18
f 168/5/37 167/6/37 199/7/37 200/8/37
f 182/5/19 181/6/19 213/7/19 214/8/19
f 169/5/38 168/6/38 200/7/38 201/8/38
f 183/5/20 182/6/20 214/7/20 215/8/20
f 170/5/39 169/6/39 201/7/39 202/8/39
f 184/5/21 183/6/21 215/7/21 216/8/21
f 171/5/40 170/6/40 202/7/40 203/8/40
f 185/5/22 184/6/22 216/7/22 217/8/22
f 172/5/41 171/6/41 203/7/41 204/8/41
f 186/5/23 185/6/23 217/7/23 218/8/23
f 173/5/42 172/6/42 204/7/42 205/8/42
f 187/5/24 186/6/24 218/7/24 219/8/24
f 174/5/43 173/6/43 205/7/43 206/8/43
f 188/5/25 187/6/25 219/7/25 220/8/25
f 175/5/44 174/6/44 206/7/44 207/8/44
f 161/5/31 162/6/31 194/7/31 193/8/31
f 189/5/26 188/6/26 220/7/26 221/8/26
f 176/5/46 175/6/46 207/7/46 208/8/46
f 163/5/32 161/6/32 193/7/32 195/8/32
f 190/5/27 189/6/27 221/7/27 222/8/27
f 177/5/45 176/6/45 208/7/45 209/8/45
f 164/5/33 163/6/33 195/7/33 196/8/33
f 191/5/28 190/6/28 222/7/28 223/8/28
f 178/5/15 177/6/15 209/7/15 210/8/15
f 225/73/47 226/74/47 228/75/47 227/76/47
f 227/73/48 228/74/48 230/75/48 229/76/48
f 229/73/49 230/74/49 232/75/49 231/76/49
f 231/73/50 232/74/50 234/75/50 233/76/50
f 233/73/51 234/74/51 236/75/51 235/76/51
f 235/73/52 236/74/52 238/75/52 237/76/52
f 237/73/53 238/74/53 240/75/53 239/76/53
f 239/73/54 240/74/54 242/75/54 241/76/54
f 241/73/55 242/74/55 244/75/55 243/76/55
f 243/73/56 244/74/56 246/75/56 245/76/56
f 245/73/57 246/74/57 248/75/57 247/76/57
f 247/73/58 248/74/58 250/75/58 249/76/58
f 249/73/59 250/74/59 252/75/59 251/76/59
f 251/73/60 252/74/60 254/75/60 253/76/60
f 228/77/5 226/78/5 256/79/5 254/80/5 252/81/5 250/82/5 248/83/5 246/84/5 244/85/5 242/86/5 240/87/5 238/88/5 236/89/5 234/90/5 232/91/5 230/92/5
f 255/73/61 256/74/61 226/75/61 225/76/61
f 253/73/62 254/74/62 256/75/62 255/76/62
f 225/77/6 227/78/6 229/79/6 231/80/6 233/81/6 235/82/6 237/83/6 239/84/6 241/85/6 243/86/6 245/87/6 247/88/6 249/89/6 251/90/6 253/91/6 255/92/6
o Obj_Hand.001
v 0.004031 0.114432 0.021604
v 0.004031 0.114432 0.025314
v 0.004031 0.009821 0.021604
v 0.004031 0.009821 0.025314
v -0.004031 0.114432 0.021604
v -0.004031 0.114432 0.025314
v -0.004031 0.009821 0.021604
v -0.004031 0.009821 0.025314
vn 1.0000 -0.0000 -0.0000
vn -0.0000 -1.0000 -0.0000
vn -1.0000 -0.0000 -0.0000
vn -0.0000 1.0000 -0.0000
vn -0.0000 -0.0000 -1.0000
vn -0.0000 -0.0000 1.0000
vt 0.539852 0.819852
vt 0.670148 0.819852
vt 0.670148 0.950148
vt 0.539852 0.950148
s 0
usemtl WhiteAndBlack
f 258/93/63 260/94/63 259/95/63 257/96/63
f 260/93/64 264/94/64 263/95/64 259/96/64
f 264/93/65 262/94/65 261/95/65 263/96/65
f 262/93/66 258/94/66 257/95/66 261/96/66
f 257/93/67 259/94/67 263/95/67 261/96/67
f 262/93/68 264/94/68 260/95/68 258/96/68
o Obj_Hand
v -0.002699 0.009824 0.017664
v -0.002699 0.009824 0.020149
v -0.002699 0.139410 0.017664
v -0.002699 0.139410 0.020149
v 0.002699 0.009824 0.017664
v 0.002699 0.009824 0.020149
v 0.002699 0.139410 0.017664
v 0.002699 0.139410 0.020149
vn -1.0000 -0.0000 -0.0000
vn -0.0000 1.0000 -0.0000
vn 1.0000 -0.0000 -0.0000
vn -0.0000 -1.0000 -0.0000
vn -0.0000 -0.0000 -1.0000
vn -0.0000 -0.0000 1.0000
vt 0.542255 0.799755
vt 0.682745 0.799755
vt 0.682745 0.940245
vt 0.542255 0.940245
s 0
usemtl WhiteAndBlack
f 266/97/69 268/98/69 267/99/69 265/100/69
f 268/97/70 272/98/70 271/99/70 267/100/70
f 272/97/71 270/98/71 269/99/71 271/100/71
f 270/97/72 266/98/72 265/99/72 269/100/72
f 265/97/73 267/98/73 271/99/73 269/100/73
f 270/97/74 272/98/74 268/99/74 266/100/74
