# Blender 5.1.2
# www.blender.org
mtllib medkit.mtl
o Cube
v -0.450715 -1.526687 1.769590
v -0.450715 1.098000 1.769589
v -0.450715 -1.526687 -1.769589
v -0.450715 1.098000 -1.769590
v 0.450715 -1.526687 1.769590
v 0.450715 1.098000 1.769589
v 0.450715 -1.526687 -1.769589
v 0.450715 1.098000 -1.769590
v 0.199262 -1.526687 -1.769589
v -0.199262 -1.526687 -1.769589
v -0.450715 -1.526687 -1.322063
v -0.450715 -1.526687 -0.974840
v -0.450715 -1.526687 0.975796
v -0.450715 -1.526687 1.322541
v -0.450715 1.098000 1.322541
v -0.450715 1.098000 0.975795
v -0.450715 1.098000 -0.974840
v -0.450715 1.098000 -1.322064
v 0.450715 -1.526687 1.322541
v 0.450715 -1.526687 0.975796
v 0.450715 -1.526687 -0.974840
v 0.450715 -1.526687 -1.322063
v 0.450715 1.098000 -1.322064
v 0.450715 1.098000 -0.974840
v 0.450715 1.098000 0.975795
v 0.450715 1.098000 1.322541
v 0.083389 1.098000 -0.814158
v 0.083389 1.098000 -0.600294
v 0.083389 1.098000 0.601157
v 0.083389 1.098000 0.814727
v -0.083389 1.098000 -0.814158
v -0.083389 1.098000 -0.600294
v -0.083389 1.098000 0.601157
v -0.083389 1.098000 0.814727
v -0.027911 -1.526687 -1.322063
v -0.027911 -1.526687 -0.974840
v -0.027911 -1.526687 0.975796
v -0.027911 -1.526687 1.322541
v 0.027911 -1.526687 -1.322063
v 0.027911 -1.526687 -0.974840
v 0.027911 -1.526687 0.975796
v 0.027911 -1.526687 1.322541
v -0.027911 -1.574451 -1.322063
v -0.027911 -1.574451 -0.974840
v -0.027911 -1.574450 0.975796
v -0.027911 -1.574450 1.322541
v 0.027911 -1.574451 -1.322063
v 0.027911 -1.574451 -0.974840
v 0.027911 -1.574450 0.975796
v 0.027911 -1.574450 1.322541
v 0.083389 1.340623 -0.782859
v 0.083389 1.299168 -0.578648
v 0.083389 1.299168 0.579569
v 0.083389 1.318078 0.792301
v -0.083389 1.340623 -0.782859
v -0.083389 1.299168 -0.578648
v -0.083389 1.299168 0.579569
v -0.083389 1.318078 0.792301
v 0.083389 1.616519 -0.603331
v 0.083389 1.434404 -0.458393
v -0.083389 1.616519 -0.603331
v -0.083389 1.434404 -0.458393
v 0.083389 1.671045 -0.461138
v 0.083389 1.434404 -0.385824
v -0.083389 1.671045 -0.461138
v -0.083389 1.434404 -0.385824
v 0.083389 1.671045 0.460303
v 0.083389 1.435175 0.392928
v -0.083389 1.671045 0.460303
v -0.083389 1.435175 0.392928
v 0.083389 1.435175 0.469696
v 0.083389 1.616519 0.618684
v 0.083389 1.486258 0.740515
v 0.083389 1.385889 0.539145
v -0.083389 1.500548 -0.711694
v 0.083389 1.500548 -0.711694
v -0.083389 1.385889 -0.536308
v 0.083389 1.385889 -0.536308
v -0.083389 1.435175 0.469696
v -0.083389 1.616519 0.618684
v -0.083389 1.486258 0.740515
v -0.083389 1.385889 0.539145
v 0.083389 1.616519 -0.603331
v -0.083389 1.616519 -0.603331
v 0.083389 1.671045 -0.461138
v -0.083389 1.671045 -0.461138
v 0.083389 1.671045 0.460303
v -0.083389 1.671045 0.460303
v 0.083389 1.616519 0.618684
v -0.083389 1.616519 0.618684
vn -1.0000 -0.0000 -0.0000
vn 1.0000 -0.0000 -0.0000
vn -0.0000 -0.0000 -1.0000
vn -0.0000 -1.0000 -0.0000
vn -0.0000 0.1014 0.9948
vn -0.0000 1.0000 -0.0000
vn -0.0000 -0.0000 1.0000
vn -0.0000 0.6827 -0.7307
vn -0.0000 0.9961 -0.0885
vn -0.0000 -0.1070 0.9943
vn -0.0000 -0.1067 -0.9943
vn -0.0000 0.1279 -0.9918
vn -0.0000 -0.8489 0.5286
vn -0.0000 -1.0000 0.0005
vn -0.0000 -1.0000 0.0010
vn -0.0000 -0.2747 0.9615
vn -0.0000 -0.4387 0.8986
vn -0.0000 0.4066 -0.9136
vn -0.0000 0.2943 0.9557
vn -0.0000 0.6831 0.7303
vn -0.0000 -0.4225 -0.9064
vn -0.0000 -0.8155 -0.5787
vn -0.0000 0.9337 -0.3580
vn -0.0000 0.9455 0.3255
vt 0.502057 0.355376
vt 0.502057 0.603246
vt 0.459793 0.603246
vt 0.459793 0.355376
vt 0.109509 0.355787
vt 0.109509 0.601848
vt 0.070277 0.601848
vt 0.070277 0.355787
vt 0.931744 0.607056
vt 0.849659 0.607056
vt 0.849659 0.357375
vt 0.871693 0.357375
vt 0.908937 0.357375
vt 0.931744 0.357375
vt 0.529113 0.353517
vt 0.502101 0.353517
vt 0.502101 0.349802
vt 0.529113 0.349802
vt 0.750061 0.353562
vt 0.722553 0.353562
vt 0.722553 0.349773
vt 0.750061 0.349773
vt 0.860044 0.573022
vt 0.860044 0.548689
vt 0.860044 0.411807
vt 0.860044 0.387441
vt 0.860044 0.356037
vt 0.877689 0.356037
vt 0.905655 0.356037
vt 0.923300 0.356037
vt 0.923300 0.387441
vt 0.923300 0.411807
vt 0.923300 0.548689
vt 0.923300 0.573022
vt 0.923300 0.604392
vt 0.860044 0.604392
vt 0.899958 0.607982
vt 0.880979 0.607982
vt 0.880979 0.626513
vt 0.899958 0.626513
vt 0.685176 0.606664
vt 0.702020 0.606664
vt 0.700513 0.627448
vt 0.682653 0.625662
vt 0.849976 0.572368
vt 0.849976 0.548003
vt 0.849976 0.411124
vt 0.849976 0.386792
vt 0.849976 0.355422
vt 0.931439 0.355422
vt 0.931439 0.386792
vt 0.931439 0.411124
vt 0.931439 0.548003
vt 0.931439 0.572368
vt 0.931439 0.603772
vt 0.849976 0.603772
vt 0.390583 0.355787
vt 0.390583 0.601848
vt 0.350692 0.601848
vt 0.350692 0.355787
vt 0.319026 0.601848
vt 0.319026 0.355787
vt 0.141132 0.601848
vt 0.141132 0.355787
vt 0.792864 0.355376
vt 0.792864 0.603246
vt 0.751808 0.603246
vt 0.751808 0.355376
vt 0.719062 0.603246
vt 0.719062 0.355376
vt 0.534848 0.603246
vt 0.534848 0.355376
vt 0.931744 0.607056
vt 0.931744 0.357375
vt 0.849659 0.357375
vt 0.849659 0.607056
vt 0.463805 0.571520
vt 0.467635 0.571520
vt 0.467635 0.595341
vt 0.463805 0.595341
vt 0.465602 0.362610
vt 0.469432 0.362610
vt 0.469432 0.386398
vt 0.465602 0.386398
vt 0.895237 0.356148
vt 0.888322 0.356148
vt 0.888322 0.350231
vt 0.895237 0.350231
vt 0.895237 0.356148
vt 0.888322 0.356148
vt 0.137909 0.353813
vt 0.109801 0.353813
vt 0.109801 0.349854
vt 0.137909 0.349854
vt 0.349858 0.353524
vt 0.322379 0.353524
vt 0.322379 0.349659
vt 0.349858 0.349659
vt 0.879458 0.629216
vt 0.901404 0.629321
vt 0.901350 0.644031
vt 0.879404 0.643926
vt 0.708333 0.650000
vt 0.791667 0.650000
vt 0.791667 0.700000
vt 0.708333 0.700000
vt 0.548802 0.606664
vt 0.566252 0.606664
vt 0.567747 0.626333
vt 0.552027 0.629577
vt 0.687467 0.608574
vt 0.698912 0.608574
vt 0.698912 0.622379
vt 0.687467 0.622379
vt 0.155821 0.601848
vt 0.175298 0.601848
vt 0.175619 0.620728
vt 0.158842 0.622247
vt 0.285560 0.601925
vt 0.304372 0.601848
vt 0.301595 0.624548
vt 0.285201 0.620452
vt 0.687467 0.622379
vt 0.698912 0.622379
vt 0.899958 0.628411
vt 0.880979 0.628411
vt 0.558478 0.644680
vt 0.573760 0.633303
vt 0.581789 0.639044
vt 0.568904 0.655363
vt 0.279033 0.628692
vt 0.295028 0.639383
vt 0.283789 0.649858
vt 0.271927 0.633216
vt 0.699516 0.379512
vt 0.699516 0.368070
vt 0.704861 0.368070
vt 0.704861 0.379512
vt 0.709840 0.379512
vt 0.709840 0.368070
vt 0.763266 0.368070
vt 0.763266 0.379512
vt 0.271838 0.654555
vt 0.265309 0.633216
vt 0.589253 0.639044
vt 0.582140 0.660782
vt 0.708333 0.550000
vt 0.791667 0.550000
vt 0.791667 0.600000
vt 0.708333 0.600000
vt 0.662797 0.639044
vt 0.669159 0.660782
vt 0.188528 0.654397
vt 0.194288 0.633288
vt 0.163687 0.637563
vt 0.181503 0.627899
vt 0.188141 0.632983
vt 0.174199 0.649620
vt 0.698912 0.628330
vt 0.687467 0.628330
vt 0.881388 0.622274
vt 0.900367 0.622274
vt 0.900367 0.635740
vt 0.881388 0.635740
vt 0.695622 0.643331
vt 0.676605 0.633852
vt 0.683655 0.655248
vt 0.670264 0.638870
vt 0.899958 0.640674
vt 0.880979 0.640674
vt 0.879282 0.643193
vt 0.901228 0.643298
vt 0.901282 0.628588
vt 0.879336 0.628484
vt 0.773297 0.368070
vt 0.773297 0.379512
vt 0.768533 0.379512
vt 0.768533 0.368070
vt 0.900417 0.649899
vt 0.882863 0.649899
vt 0.882863 0.634933
vt 0.900417 0.634933
vt 0.886268 0.589947
vt 0.868714 0.589947
vt 0.868714 0.492962
vt 0.886268 0.492962
vt 0.781069 0.394608
vt 0.763515 0.394608
vt 0.763515 0.377937
vt 0.781069 0.377937
s 1
usemtl Medkit
f 11/1/1 18/2/1 4/3/1 3/4/1
f 19/5/2 26/6/2 6/7/2 5/8/2
f 4/9/3 8/10/3 7/11/3 9/12/3 10/13/3 3/14/3
f 36/15/1 35/16/1 43/17/1 44/18/1
f 38/19/1 37/20/1 45/21/1 46/22/1
f 14/23/4 13/24/4 12/25/4 11/26/4 3/27/4 10/28/4 9/29/4 7/30/4 22/31/4 21/32/4 20/33/4 19/34/4 5/35/4 1/36/4
f 34/37/5 30/38/5 54/39/5 58/40/5
f 33/41/1 34/42/1 58/43/1 57/44/1
f 18/45/6 17/46/6 16/47/6 15/48/6 2/49/6 6/50/6 26/51/6 25/52/6 24/53/6 23/54/6 8/55/6 4/56/6
f 7/57/2 8/58/2 23/59/2 22/60/2
f 22/60/2 23/59/2 24/61/2 21/62/2
f 21/62/2 24/61/2 25/63/2 20/64/2
f 20/64/2 25/63/2 26/6/2 19/5/2
f 1/65/1 2/66/1 15/67/1 14/68/1
f 14/68/1 15/67/1 16/69/1 13/70/1
f 13/70/1 16/69/1 17/71/1 12/72/1
f 12/72/1 17/71/1 18/2/1 11/1/1
f 2/73/7 1/74/7 5/75/7 6/76/7
f 43/77/4 47/78/4 48/79/4 44/80/4
f 45/81/4 49/82/4 50/83/4 46/84/4
f 37/85/3 41/86/3 49/87/3 45/88/3
f 35/89/3 39/90/3 47/87/3 43/88/3
f 42/86/7 38/85/7 46/88/7 50/87/7
f 40/90/7 36/89/7 44/88/7 48/87/7
f 41/91/2 42/92/2 50/93/2 49/94/2
f 39/95/2 40/96/2 48/97/2 47/98/2
f 76/99/8 75/100/8 61/101/8 59/102/8
f 53/103/9 57/104/9 58/105/9 54/106/9
f 31/107/1 32/108/1 56/109/1 55/110/1
f 32/111/10 28/112/10 52/113/10 56/114/10
f 30/115/2 29/116/2 53/117/2 54/118/2
f 28/119/2 27/120/2 51/121/2 52/122/2
f 29/112/11 33/111/11 57/123/11 53/124/11
f 27/38/12 31/37/12 55/125/12 51/126/12
f 75/127/1 77/128/1 62/129/1 61/130/1
f 78/131/2 76/132/2 59/133/2 60/134/2
f 77/135/13 78/136/13 60/137/13 62/138/13
f 66/139/14 64/140/14 68/141/15 70/142/15
f 60/134/2 59/133/2 63/143/2 64/144/2
f 62/138/4 60/137/4 64/140/14 66/139/14
f 61/130/1 62/129/1 66/145/1 65/146/1
f 67/147/16 69/148/16 70/149/16 68/150/16
f 65/146/1 66/145/1 70/151/1 69/152/1
f 64/144/2 63/143/2 67/153/2 68/154/2
f 73/155/2 74/156/2 71/157/2 72/158/2
f 54/118/2 53/117/2 74/156/2 73/155/2
f 56/114/17 52/113/17 78/159/17 77/160/17
f 52/122/2 51/121/2 76/132/2 78/131/2
f 55/110/1 56/109/1 77/128/1 75/127/1
f 51/161/18 55/162/18 75/163/18 76/164/18
f 58/43/1 81/165/1 82/166/1 57/44/1
f 67/153/2 72/158/2 71/157/2 68/154/2
f 81/165/1 80/167/1 79/168/1 82/166/1
f 80/167/1 69/152/1 70/151/1 79/168/1
f 81/169/19 58/40/19 54/39/19 73/170/19
f 72/171/20 80/172/20 81/173/20 73/174/20
f 82/160/21 74/159/21 53/124/21 57/123/21
f 74/175/22 82/176/22 79/177/22 71/178/22
f 79/177/4 70/142/4 68/141/4 71/178/4
f 83/179/23 84/180/23 86/181/23 85/182/23
f 85/183/6 86/184/6 88/185/6 87/186/6
f 87/187/24 88/188/24 90/189/24 89/190/24
