# Blender 5.1.2
# www.blender.org
mtllib basicEnemy.mtl
o Sphere
v 0.000000 2.000000 0.000000
v 0.000000 1.662939 -0.555570
v 0.000000 1.111140 -0.831470
v 0.000000 0.390181 -0.980785
v 0.000000 0.000000 -1.000000
v 0.000000 -0.390181 -0.980785
v 0.000000 -1.111140 -0.831470
v 0.000000 -2.000000 0.000000
v 0.038060 1.961571 -0.191342
v 0.074658 1.847759 -0.375330
v 0.108386 1.662939 -0.544895
v 0.137950 1.414214 -0.693520
v 0.162212 1.111140 -0.815493
v 0.180240 0.765367 -0.906127
v 0.191342 0.390181 -0.961940
v 0.195090 0.000000 -0.980785
v 0.191342 -0.390181 -0.961940
v 0.180240 -0.765367 -0.906127
v 0.162212 -1.111140 -0.815493
v 0.137950 -1.414214 -0.693520
v 0.108386 -1.662939 -0.544895
v 0.074658 -1.847759 -0.375330
v 0.038060 -1.961571 -0.191342
v 0.074658 1.961571 -0.180240
v 0.146447 1.847759 -0.353553
v 0.212608 1.662939 -0.513280
v 0.270598 1.414214 -0.653281
v 0.318190 1.111140 -0.768178
v 0.353553 0.765367 -0.853553
v 0.375330 0.390181 -0.906127
v 0.382683 0.000000 -0.923879
v 0.375330 -0.390181 -0.906127
v 0.353553 -0.765367 -0.853553
v 0.318190 -1.111140 -0.768178
v 0.270598 -1.414214 -0.653281
v 0.212608 -1.662939 -0.513280
v 0.146447 -1.847759 -0.353553
v 0.074658 -1.961571 -0.180240
v 0.108386 1.961571 -0.162212
v 0.212608 1.847759 -0.318190
v 0.308658 1.662939 -0.461940
v 0.392847 1.414214 -0.587938
v 0.461940 1.111140 -0.691342
v 0.513280 0.765367 -0.768178
v 0.544895 0.390181 -0.815493
v 0.555570 0.000000 -0.831469
v 0.544895 -0.390181 -0.815493
v 0.513280 -0.765367 -0.768178
v 0.461940 -1.111140 -0.691342
v 0.392847 -1.414214 -0.587938
v 0.308658 -1.662939 -0.461940
v 0.212608 -1.847759 -0.318190
v 0.108386 -1.961571 -0.162212
v 0.137950 1.961571 -0.137950
v 0.270598 1.847759 -0.270598
v 0.392847 1.662939 -0.392847
v 0.500000 1.414214 -0.500000
v 0.587938 1.111140 -0.587938
v 0.653281 0.765367 -0.653281
v 0.693520 0.390181 -0.693520
v 0.707107 0.000000 -0.707107
v 0.693520 -0.390181 -0.693520
v 0.653281 -0.765367 -0.653281
v 0.587938 -1.111140 -0.587938
v 0.500000 -1.414214 -0.500000
v 0.392847 -1.662939 -0.392847
v 0.270598 -1.847759 -0.270598
v 0.137950 -1.961571 -0.137950
v 0.162212 1.961571 -0.108386
v 0.318190 1.847759 -0.212608
v 0.461940 1.662939 -0.308658
v 0.587938 1.414214 -0.392847
v 0.691342 1.111140 -0.461940
v 0.768178 0.765367 -0.513280
v 0.815493 0.390181 -0.544895
v 0.831470 0.000000 -0.555570
v 0.815493 -0.390181 -0.544895
v 0.768178 -0.765367 -0.513280
v 0.691342 -1.111140 -0.461940
v 0.587938 -1.414214 -0.392847
v 0.461940 -1.662939 -0.308658
v 0.318190 -1.847759 -0.212608
v 0.162212 -1.961571 -0.108386
v 0.180240 1.961571 -0.074658
v 0.353553 1.847759 -0.146447
v 0.513280 1.662939 -0.212607
v 0.653281 1.414214 -0.270598
v 0.768178 1.111140 -0.318190
v 0.853553 0.765367 -0.353553
v 0.906127 0.390181 -0.375330
v 0.923879 0.000000 -0.382683
v 0.906127 -0.390181 -0.375330
v 0.853553 -0.765367 -0.353553
v 0.768178 -1.111140 -0.318190
v 0.653281 -1.414214 -0.270598
v 0.513280 -1.662939 -0.212607
v 0.353553 -1.847759 -0.146447
v 0.180240 -1.961571 -0.074658
v 0.191342 1.961571 -0.038060
v 0.375330 1.847759 -0.074658
v 0.544895 1.662939 -0.108386
v 0.693520 1.414214 -0.137950
v 0.815493 1.111140 -0.162212
v 0.906127 0.765367 -0.180240
v 0.961940 0.390181 -0.191342
v 0.980785 0.000000 -0.195090
v 0.961940 -0.390181 -0.191342
v 0.906127 -0.765367 -0.180240
v 0.815493 -1.111140 -0.162212
v 0.693520 -1.414214 -0.137950
v 0.544895 -1.662939 -0.108386
v 0.375330 -1.847759 -0.074658
v 0.191342 -1.961571 -0.038060
v 0.195090 1.961571 0.000000
v 0.382683 1.847759 0.000000
v 0.555570 1.662939 0.000000
v 0.707107 1.414214 -0.000000
v 0.831469 1.111140 0.000000
v 0.923879 0.765367 -0.000000
v 0.980785 0.390181 0.000000
v 1.000000 0.000000 0.000000
v 0.980785 -0.390181 0.000000
v 0.923879 -0.765367 -0.000000
v 0.831469 -1.111140 0.000000
v 0.707107 -1.414214 -0.000000
v 0.555570 -1.662939 0.000000
v 0.382683 -1.847759 0.000000
v 0.195090 -1.961571 0.000000
v 0.191342 1.961571 0.038060
v 0.375330 1.847759 0.074658
v 0.544895 1.662939 0.108386
v 0.693520 1.414214 0.137950
v 0.815493 1.111140 0.162212
v 0.906127 0.765367 0.180240
v 0.961940 0.390181 0.191342
v 0.980785 0.000000 0.195090
v 0.961940 -0.390181 0.191342
v 0.906127 -0.765367 0.180240
v 0.815493 -1.111140 0.162212
v 0.693520 -1.414214 0.137950
v 0.544895 -1.662939 0.108386
v 0.375330 -1.847759 0.074658
v 0.191342 -1.961571 0.038060
v 0.180240 1.961571 0.074658
v 0.353553 1.847759 0.146447
v 0.513280 1.662939 0.212608
v 0.653281 1.414214 0.270598
v 0.768178 1.111140 0.318190
v 0.853553 0.765367 0.353553
v 0.906127 0.390181 0.375330
v 0.923879 0.000000 0.382683
v 0.906127 -0.390181 0.375330
v 0.853553 -0.765367 0.353553
v 0.768178 -1.111140 0.318190
v 0.653281 -1.414214 0.270598
v 0.513280 -1.662939 0.212608
v 0.353553 -1.847759 0.146447
v 0.180240 -1.961571 0.074658
v 0.162212 1.961571 0.108386
v 0.318190 1.847759 0.212608
v 0.461940 1.662939 0.308658
v 0.587938 1.414214 0.392847
v 0.691341 1.111140 0.461940
v 0.768178 0.765367 0.513280
v 0.815493 0.390181 0.544895
v 0.831469 0.000000 0.555570
v 0.815493 -0.390181 0.544895
v 0.768178 -0.765367 0.513280
v 0.691341 -1.111140 0.461940
v 0.587938 -1.414214 0.392847
v 0.461940 -1.662939 0.308658
v 0.318190 -1.847759 0.212608
v 0.162212 -1.961571 0.108386
v 0.137950 1.961571 0.137950
v 0.270598 1.847759 0.270598
v 0.392847 1.662939 0.392847
v 0.500000 1.414214 0.500000
v 0.587938 1.111140 0.587938
v 0.653281 0.765367 0.653281
v 0.693520 0.390181 0.693520
v 0.707106 0.000000 0.707107
v 0.693520 -0.390181 0.693520
v 0.653281 -0.765367 0.653281
v 0.587938 -1.111140 0.587938
v 0.500000 -1.414214 0.500000
v 0.392847 -1.662939 0.392847
v 0.270598 -1.847759 0.270598
v 0.137950 -1.961571 0.137950
v 0.108386 1.961571 0.162212
v 0.212607 1.847759 0.318190
v 0.308658 1.662939 0.461940
v 0.392847 1.414214 0.587938
v 0.461940 1.111140 0.691342
v 0.513280 0.765367 0.768178
v 0.544895 0.390181 0.815493
v 0.555570 0.000000 0.831469
v 0.544895 -0.390181 0.815493
v 0.513280 -0.765367 0.768178
v 0.461940 -1.111140 0.691342
v 0.392847 -1.414214 0.587938
v 0.308658 -1.662939 0.461940
v 0.212607 -1.847759 0.318190
v 0.108386 -1.961571 0.162212
v 0.074658 1.961571 0.180240
v 0.146447 1.847759 0.353553
v 0.212607 1.662939 0.513280
v 0.270598 1.414214 0.653281
v 0.318189 1.111140 0.768178
v 0.353553 0.765367 0.853553
v 0.375330 0.390181 0.906127
v 0.382683 0.000000 0.923879
v 0.375330 -0.390181 0.906127
v 0.353553 -0.765367 0.853553
v 0.318189 -1.111140 0.768178
v 0.270598 -1.414214 0.653281
v 0.212607 -1.662939 0.513280
v 0.146447 -1.847759 0.353553
v 0.074658 -1.961571 0.180240
v 0.038060 1.961571 0.191342
v 0.074658 1.847759 0.375330
v 0.108386 1.662939 0.544895
v 0.137950 1.414214 0.693520
v 0.162212 1.111140 0.815493
v 0.180240 0.765367 0.906127
v 0.191342 0.390181 0.961939
v 0.195090 0.000000 0.980785
v 0.191342 -0.390181 0.961939
v 0.180240 -0.765367 0.906127
v 0.162212 -1.111140 0.815493
v 0.137950 -1.414214 0.693520
v 0.108386 -1.662939 0.544895
v 0.074658 -1.847759 0.375330
v 0.038060 -1.961571 0.191342
v -0.000000 1.961571 0.195090
v -0.000000 1.847759 0.382683
v -0.000000 1.662939 0.555570
v -0.000000 1.414214 0.707107
v -0.000000 1.111140 0.831469
v 0.000000 0.765367 0.923879
v -0.000000 0.390181 0.980785
v -0.000000 0.000000 0.999999
v -0.000000 -0.390181 0.980785
v 0.000000 -0.765367 0.923879
v -0.000000 -1.111140 0.831469
v -0.000000 -1.414214 0.707107
v -0.000000 -1.662939 0.555570
v -0.000000 -1.847759 0.382683
v -0.000000 -1.961571 0.195090
v -0.038060 1.961571 0.191342
v -0.074658 1.847759 0.375330
v -0.108386 1.662939 0.544895
v -0.137950 1.414214 0.693520
v -0.162212 1.111140 0.815493
v -0.180240 0.765367 0.906127
v -0.191342 0.390181 0.961939
v -0.195091 0.000000 0.980785
v -0.191342 -0.390181 0.961939
v -0.180240 -0.765367 0.906127
v -0.162212 -1.111140 0.815493
v -0.137950 -1.414214 0.693520
v -0.108386 -1.662939 0.544895
v -0.074658 -1.847759 0.375330
v -0.038060 -1.961571 0.191342
v -0.074658 1.961571 0.180240
v -0.146447 1.847759 0.353553
v -0.212608 1.662939 0.513280
v -0.270598 1.414214 0.653281
v -0.318190 1.111140 0.768177
v -0.353553 0.765367 0.853553
v -0.375330 0.390181 0.906127
v -0.382683 0.000000 0.923879
v -0.375330 -0.390181 0.906127
v -0.353553 -0.765367 0.853553
v -0.318190 -1.111140 0.768177
v -0.270598 -1.414214 0.653281
v -0.212608 -1.662939 0.513280
v -0.146447 -1.847759 0.353553
v -0.074658 -1.961571 0.180240
v -0.108386 1.961571 0.162212
v -0.212608 1.847759 0.318190
v -0.308658 1.662939 0.461939
v -0.392847 1.414214 0.587938
v -0.461940 1.111140 0.691341
v -0.513280 0.765367 0.768178
v -0.544895 0.390181 0.815493
v -0.555570 0.000000 0.831469
v -0.544895 -0.390181 0.815493
v -0.513280 -0.765367 0.768178
v -0.461940 -1.111140 0.691341
v -0.392847 -1.414214 0.587938
v -0.308658 -1.662939 0.461939
v -0.212608 -1.847759 0.318190
v -0.108386 -1.961571 0.162212
v -0.137950 1.961571 0.137950
v -0.270598 1.847759 0.270598
v -0.392847 1.662939 0.392847
v -0.500000 1.414214 0.500000
v -0.587938 1.111140 0.587937
v -0.653281 0.765367 0.653281
v -0.693520 0.390181 0.693520
v -0.707106 0.000000 0.707106
v -0.693520 -0.390181 0.693520
v -0.653281 -0.765367 0.653281
v -0.587938 -1.111140 0.587937
v -0.500000 -1.414214 0.500000
v -0.392847 -1.662939 0.392847
v -0.270598 -1.847759 0.270598
v -0.137950 -1.961571 0.137950
v -0.162212 1.961571 0.108386
v -0.318190 1.847759 0.212607
v -0.461940 1.662939 0.308658
v -0.587938 1.414214 0.392847
v -0.691341 1.111140 0.461939
v -0.768177 0.765367 0.513280
v -0.815493 0.390181 0.544895
v -0.831469 0.000000 0.555569
v -0.815493 -0.390181 0.544895
v -0.768177 -0.765367 0.513280
v -0.691341 -1.111140 0.461939
v -0.587938 -1.414214 0.392847
v -0.461940 -1.662939 0.308658
v -0.318190 -1.847759 0.212607
v -0.162212 -1.961571 0.108386
v -0.180240 1.961571 0.074658
v -0.353553 1.847759 0.146447
v -0.513280 1.662939 0.212607
v -0.653281 1.414214 0.270598
v -0.768177 1.111140 0.318189
v -0.853553 0.765367 0.353553
v -0.906127 0.390181 0.375330
v -0.923879 0.000000 0.382683
v -0.906127 -0.390181 0.375330
v -0.853553 -0.765367 0.353553
v -0.768177 -1.111140 0.318189
v -0.653281 -1.414214 0.270598
v -0.513280 -1.662939 0.212607
v -0.353553 -1.847759 0.146447
v -0.180240 -1.961571 0.074658
v -0.191342 1.961571 0.038060
v -0.375330 1.847759 0.074658
v -0.544895 1.662939 0.108386
v -0.693520 1.414214 0.137950
v -0.815493 1.111140 0.162211
v -0.906127 0.765367 0.180240
v -0.961939 0.390181 0.191341
v -0.980784 0.000000 0.195090
v -0.961939 -0.390181 0.191341
v -0.906127 -0.765367 0.180240
v -0.815493 -1.111140 0.162211
v -0.693520 -1.414214 0.137950
v -0.544895 -1.662939 0.108386
v -0.375330 -1.847759 0.074658
v -0.191342 -1.961571 0.038060
v -0.195090 1.961571 -0.000000
v -0.382683 1.847759 -0.000000
v -0.555570 1.662939 -0.000000
v -0.707107 1.414214 -0.000000
v -0.831469 1.111140 -0.000000
v -0.923879 0.765367 -0.000000
v -0.980785 0.390181 -0.000000
v -0.999999 0.000000 -0.000000
v -0.980785 -0.390181 -0.000000
v -0.923879 -0.765367 -0.000000
v -0.831469 -1.111140 -0.000000
v -0.707107 -1.414214 -0.000000
v -0.555570 -1.662939 -0.000000
v -0.382683 -1.847759 -0.000000
v -0.195090 -1.961571 -0.000000
v -0.191342 1.961571 -0.038060
v -0.375330 1.847759 -0.074658
v -0.544895 1.662939 -0.108386
v -0.693520 1.414214 -0.137950
v -0.815493 1.111140 -0.162212
v -0.906127 0.765367 -0.180240
v -0.961939 0.390181 -0.191342
v -0.980784 0.000000 -0.195091
v -0.961939 -0.390181 -0.191342
v -0.906127 -0.765367 -0.180240
v -0.815493 -1.111140 -0.162212
v -0.693520 -1.414214 -0.137950
v -0.544895 -1.662939 -0.108386
v -0.375330 -1.847759 -0.074658
v -0.191342 -1.961571 -0.038060
v -0.180240 1.961571 -0.074658
v -0.353553 1.847759 -0.146447
v -0.513279 1.662939 -0.212607
v -0.653281 1.414214 -0.270598
v -0.768177 1.111140 -0.318190
v -0.853553 0.765367 -0.353553
v -0.906127 0.390181 -0.375330
v -0.923878 0.000000 -0.382683
v -0.906127 -0.390181 -0.375330
v -0.853553 -0.765367 -0.353553
v -0.768177 -1.111140 -0.318190
v -0.653281 -1.414214 -0.270598
v -0.513279 -1.662939 -0.212607
v -0.353553 -1.847759 -0.146447
v -0.180240 -1.961571 -0.074658
v -0.162212 1.961571 -0.108386
v -0.318189 1.847759 -0.212607
v -0.461939 1.662939 -0.308658
v -0.587938 1.414214 -0.392847
v -0.691341 1.111140 -0.461940
v -0.768177 0.765367 -0.513280
v -0.815493 0.390181 -0.544895
v -0.831468 0.000000 -0.555570
v -0.815493 -0.390181 -0.544895
v -0.768177 -0.765367 -0.513280
v -0.691341 -1.111140 -0.461940
v -0.587938 -1.414214 -0.392847
v -0.461939 -1.662939 -0.308658
v -0.318189 -1.847759 -0.212607
v -0.162212 -1.961571 -0.108386
v -0.137950 1.961571 -0.137950
v -0.270598 1.847759 -0.270598
v -0.392847 1.662939 -0.392847
v -0.500000 1.414214 -0.500000
v -0.587937 1.111140 -0.587938
v -0.653281 0.765367 -0.653281
v -0.693519 0.390181 -0.693520
v -0.707106 0.000000 -0.707106
v -0.693519 -0.390181 -0.693520
v -0.653281 -0.765367 -0.653281
v -0.587937 -1.111140 -0.587938
v -0.500000 -1.414214 -0.500000
v -0.392847 -1.662939 -0.392847
v -0.270598 -1.847759 -0.270598
v -0.137950 -1.961571 -0.137950
v -0.108386 1.961571 -0.162212
v -0.212607 1.847759 -0.318190
v -0.308658 1.662939 -0.461939
v -0.392847 1.414214 -0.587938
v -0.461939 1.111140 -0.691341
v -0.513280 0.765367 -0.768177
v -0.544895 0.390181 -0.815493
v -0.555569 0.000000 -0.831469
v -0.544895 -0.390181 -0.815493
v -0.513280 -0.765367 -0.768177
v -0.461939 -1.111140 -0.691341
v -0.392847 -1.414214 -0.587938
v -0.308658 -1.662939 -0.461939
v -0.212607 -1.847759 -0.318190
v -0.108386 -1.961571 -0.162212
v -0.074658 1.961571 -0.180240
v -0.146446 1.847759 -0.353553
v -0.212607 1.662939 -0.513279
v -0.270598 1.414214 -0.653281
v -0.318189 1.111140 -0.768177
v -0.353553 0.765367 -0.853553
v -0.375330 0.390181 -0.906127
v -0.382683 0.000000 -0.923879
v -0.375330 -0.390181 -0.906127
v -0.353553 -0.765367 -0.853553
v -0.318189 -1.111140 -0.768177
v -0.270598 -1.414214 -0.653281
v -0.212607 -1.662939 -0.513279
v -0.146446 -1.847759 -0.353553
v -0.074658 -1.961571 -0.180240
v -0.038060 1.961571 -0.191342
v -0.074658 1.847759 -0.375330
v -0.108386 1.662939 -0.544895
v -0.137950 1.414214 -0.693520
v -0.162211 1.111140 -0.815493
v -0.180240 0.765367 -0.906127
v -0.191341 0.390181 -0.961939
v -0.195090 0.000000 -0.980784
v -0.191341 -0.390181 -0.961939
v -0.180240 -0.765367 -0.906127
v -0.162211 -1.111140 -0.815493
v -0.137950 -1.414214 -0.693520
v -0.108386 -1.662939 -0.544895
v -0.074658 -1.847759 -0.375330
v -0.038060 -1.961571 -0.191342
v 0.000000 1.961571 -0.195090
v 0.000000 1.847759 -0.382683
v 0.000000 1.414214 -0.707107
v 0.000000 0.765367 -0.923879
v 0.000000 -0.765367 -0.923879
v 0.000000 -1.414214 -0.707107
v 0.000000 -1.662939 -0.555570
v 0.000000 -1.847759 -0.382683
v 0.000000 -1.961571 -0.195090
vn 0.0717 0.6814 -0.7284
vn 0.0947 -0.2570 -0.9617
vn 0.0838 0.5185 -0.8510
vn 0.0907 -0.3781 -0.9213
vn 0.0907 0.3781 -0.9213
vn 0.0838 -0.5185 -0.8510
vn 0.0947 0.2570 -0.9617
vn 0.0717 -0.6814 -0.7284
vn 0.0969 0.1493 -0.9840
vn 0.0510 -0.8538 -0.5180
vn 0.0979 0.0489 -0.9940
vn 0.0190 0.9810 -0.1932
vn 0.0190 -0.9810 -0.1932
vn 0.0979 -0.0489 -0.9940
vn 0.0510 0.8538 -0.5180
vn 0.0969 -0.1493 -0.9840
vn 0.2899 -0.0490 -0.9558
vn 0.1511 0.8538 -0.4981
vn 0.2870 -0.1493 -0.9462
vn 0.2125 0.6814 -0.7004
vn 0.2805 -0.2570 -0.9248
vn 0.2482 0.5185 -0.8183
vn 0.2687 -0.3781 -0.8859
vn 0.2687 0.3781 -0.8859
vn 0.2482 -0.5185 -0.8183
vn 0.2805 0.2570 -0.9248
vn 0.2125 -0.6814 -0.7004
vn 0.2870 0.1493 -0.9462
vn 0.1511 -0.8538 -0.4981
vn 0.2899 0.0490 -0.9558
vn 0.0564 0.9810 -0.1858
vn 0.0564 -0.9810 -0.1858
vn 0.4031 -0.5185 -0.7541
vn 0.4556 0.2570 -0.8523
vn 0.3450 -0.6814 -0.6455
vn 0.4661 0.1493 -0.8720
vn 0.2454 -0.8538 -0.4591
vn 0.4708 0.0489 -0.8809
vn 0.0915 0.9810 -0.1712
vn 0.0915 -0.9810 -0.1712
vn 0.4708 -0.0489 -0.8809
vn 0.2454 0.8538 -0.4591
vn 0.4661 -0.1493 -0.8720
vn 0.3450 0.6814 -0.6455
vn 0.4556 -0.2570 -0.8523
vn 0.4031 0.5185 -0.7541
vn 0.4364 -0.3781 -0.8165
vn 0.4364 0.3781 -0.8165
vn 0.6273 -0.1493 -0.7644
vn 0.4643 0.6814 -0.5658
vn 0.6131 -0.2570 -0.7470
vn 0.5425 0.5185 -0.6610
vn 0.5873 -0.3781 -0.7156
vn 0.5873 0.3781 -0.7156
vn 0.5425 -0.5185 -0.6610
vn 0.6131 0.2570 -0.7470
vn 0.4643 -0.6814 -0.5658
vn 0.6273 0.1493 -0.7644
vn 0.3302 -0.8538 -0.4024
vn 0.6336 0.0489 -0.7721
vn 0.1232 0.9810 -0.1501
vn 0.1232 -0.9810 -0.1501
vn 0.6336 -0.0489 -0.7721
vn 0.3302 0.8538 -0.4024
vn 0.5658 -0.6814 -0.4643
vn 0.7644 0.1493 -0.6273
vn 0.4024 -0.8538 -0.3302
vn 0.7721 0.0489 -0.6336
vn 0.1501 0.9810 -0.1232
vn 0.1501 -0.9810 -0.1232
vn 0.7721 -0.0489 -0.6336
vn 0.4024 0.8538 -0.3302
vn 0.7644 -0.1493 -0.6273
vn 0.5658 0.6814 -0.4643
vn 0.7470 -0.2570 -0.6131
vn 0.6610 0.5185 -0.5425
vn 0.7156 -0.3781 -0.5873
vn 0.7156 0.3781 -0.5873
vn 0.6610 -0.5185 -0.5425
vn 0.7470 0.2570 -0.6131
vn 0.6455 0.6814 -0.3450
vn 0.8523 -0.2570 -0.4556
vn 0.7541 0.5185 -0.4031
vn 0.8165 -0.3781 -0.4364
vn 0.8165 0.3781 -0.4364
vn 0.7541 -0.5185 -0.4031
vn 0.8523 0.2570 -0.4556
vn 0.6455 -0.6814 -0.3450
vn 0.8720 0.1493 -0.4661
vn 0.4591 -0.8538 -0.2454
vn 0.8809 0.0489 -0.4708
vn 0.1712 0.9810 -0.0915
vn 0.1712 -0.9810 -0.0915
vn 0.8809 -0.0489 -0.4708
vn 0.4591 0.8538 -0.2454
vn 0.8720 -0.1493 -0.4661
vn 0.9462 0.1493 -0.2870
vn 0.4981 -0.8538 -0.1511
vn 0.9558 0.0489 -0.2899
vn 0.1858 0.9810 -0.0564
vn 0.1858 -0.9810 -0.0564
vn 0.9558 -0.0489 -0.2899
vn 0.4981 0.8538 -0.1511
vn 0.9462 -0.1493 -0.2870
vn 0.7004 0.6814 -0.2125
vn 0.9248 -0.2570 -0.2805
vn 0.8183 0.5185 -0.2482
vn 0.8859 -0.3781 -0.2687
vn 0.8859 0.3781 -0.2687
vn 0.8183 -0.5185 -0.2482
vn 0.9248 0.2570 -0.2805
vn 0.7004 -0.6814 -0.2125
vn 0.9617 -0.2570 -0.0947
vn 0.8510 0.5185 -0.0838
vn 0.9213 -0.3781 -0.0907
vn 0.9213 0.3781 -0.0907
vn 0.8510 -0.5185 -0.0838
vn 0.9617 0.2570 -0.0947
vn 0.7284 -0.6814 -0.0717
vn 0.9840 0.1493 -0.0969
vn 0.5180 -0.8538 -0.0510
vn 0.9940 0.0489 -0.0979
vn 0.1932 0.9810 -0.0190
vn 0.1932 -0.9810 -0.0190
vn 0.9940 -0.0489 -0.0979
vn 0.5180 0.8538 -0.0510
vn 0.9840 -0.1493 -0.0969
vn 0.7284 0.6814 -0.0717
vn 0.5180 -0.8538 0.0510
vn 0.9940 0.0489 0.0979
vn 0.1932 0.9810 0.0190
vn 0.1932 -0.9810 0.0190
vn 0.9940 -0.0489 0.0979
vn 0.5180 0.8538 0.0510
vn 0.9840 -0.1493 0.0969
vn 0.7284 0.6814 0.0717
vn 0.9617 -0.2570 0.0947
vn 0.8510 0.5185 0.0838
vn 0.9213 -0.3781 0.0907
vn 0.9213 0.3781 0.0907
vn 0.8510 -0.5185 0.0838
vn 0.9617 0.2570 0.0947
vn 0.7284 -0.6814 0.0717
vn 0.9840 0.1493 0.0969
vn 0.8183 0.5185 0.2482
vn 0.8859 -0.3781 0.2687
vn 0.8859 0.3781 0.2687
vn 0.8183 -0.5185 0.2482
vn 0.9248 0.2570 0.2805
vn 0.7004 -0.6814 0.2125
vn 0.9462 0.1493 0.2870
vn 0.4981 -0.8538 0.1511
vn 0.9558 0.0489 0.2899
vn 0.1858 0.9810 0.0564
vn 0.1858 -0.9810 0.0564
vn 0.9558 -0.0489 0.2899
vn 0.4981 0.8538 0.1511
vn 0.9462 -0.1493 0.2870
vn 0.7004 0.6814 0.2125
vn 0.9248 -0.2570 0.2805
vn 0.8809 0.0489 0.4708
vn 0.1712 0.9810 0.0915
vn 0.1712 -0.9810 0.0915
vn 0.8809 -0.0489 0.4708
vn 0.4591 0.8538 0.2454
vn 0.8720 -0.1493 0.4661
vn 0.6455 0.6814 0.3450
vn 0.8523 -0.2570 0.4556
vn 0.7541 0.5185 0.4031
vn 0.8165 -0.3781 0.4364
vn 0.8165 0.3781 0.4364
vn 0.7541 -0.5185 0.4031
vn 0.8523 0.2570 0.4556
vn 0.6455 -0.6814 0.3450
vn 0.8720 0.1493 0.4661
vn 0.4591 -0.8538 0.2454
vn 0.7156 -0.3781 0.5873
vn 0.7156 0.3781 0.5873
vn 0.6610 -0.5185 0.5425
vn 0.7470 0.2570 0.6131
vn 0.5658 -0.6814 0.4643
vn 0.7644 0.1493 0.6273
vn 0.4024 -0.8538 0.3302
vn 0.7721 0.0489 0.6336
vn 0.1501 0.9810 0.1232
vn 0.1501 -0.9810 0.1232
vn 0.7721 -0.0489 0.6336
vn 0.4024 0.8538 0.3302
vn 0.7644 -0.1493 0.6273
vn 0.5658 0.6814 0.4643
vn 0.7470 -0.2570 0.6131
vn 0.6610 0.5185 0.5425
vn 0.1232 -0.9810 0.1501
vn 0.6336 -0.0489 0.7721
vn 0.3302 0.8538 0.4024
vn 0.6273 -0.1493 0.7644
vn 0.4643 0.6814 0.5658
vn 0.6131 -0.2570 0.7470
vn 0.5425 0.5185 0.6610
vn 0.5873 -0.3781 0.7156
vn 0.5873 0.3781 0.7156
vn 0.5425 -0.5185 0.6610
vn 0.6131 0.2570 0.7470
vn 0.4643 -0.6814 0.5658
vn 0.6273 0.1493 0.7644
vn 0.3302 -0.8538 0.4024
vn 0.6336 0.0489 0.7721
vn 0.1232 0.9810 0.1501
vn 0.4031 -0.5185 0.7541
vn 0.4556 0.2570 0.8523
vn 0.3450 -0.6814 0.6455
vn 0.4661 0.1493 0.8720
vn 0.2454 -0.8538 0.4591
vn 0.4708 0.0489 0.8809
vn 0.0915 0.9810 0.1712
vn 0.0915 -0.9810 0.1712
vn 0.4708 -0.0489 0.8809
vn 0.2454 0.8538 0.4591
vn 0.4661 -0.1493 0.8720
vn 0.3450 0.6814 0.6455
vn 0.4556 -0.2570 0.8523
vn 0.4031 0.5185 0.7541
vn 0.4364 -0.3781 0.8165
vn 0.4364 0.3781 0.8165
vn 0.1511 0.8538 0.4981
vn 0.2870 -0.1493 0.9462
vn 0.2125 0.6814 0.7004
vn 0.2805 -0.2570 0.9248
vn 0.2482 0.5185 0.8183
vn 0.2687 -0.3781 0.8859
vn 0.2687 0.3781 0.8859
vn 0.2482 -0.5185 0.8183
vn 0.2805 0.2570 0.9248
vn 0.2125 -0.6814 0.7004
vn 0.2870 0.1493 0.9462
vn 0.1511 -0.8538 0.4981
vn 0.2899 0.0489 0.9558
vn 0.0564 0.9810 0.1858
vn 0.0564 -0.9810 0.1858
vn 0.2899 -0.0489 0.9558
vn 0.0947 0.2570 0.9617
vn 0.0717 -0.6814 0.7284
vn 0.0969 0.1493 0.9840
vn 0.0510 -0.8538 0.5180
vn 0.0979 0.0489 0.9940
vn 0.0190 0.9810 0.1932
vn 0.0190 -0.9810 0.1932
vn 0.0979 -0.0489 0.9940
vn 0.0510 0.8538 0.5180
vn 0.0969 -0.1493 0.9840
vn 0.0717 0.6814 0.7284
vn 0.0947 -0.2570 0.9617
vn 0.0838 0.5185 0.8510
vn 0.0907 -0.3781 0.9213
vn 0.0907 0.3781 0.9213
vn 0.0838 -0.5185 0.8510
vn -0.0969 -0.1493 0.9840
vn -0.0717 0.6814 0.7284
vn -0.0947 -0.2570 0.9617
vn -0.0838 0.5185 0.8510
vn -0.0907 -0.3781 0.9213
vn -0.0907 0.3781 0.9213
vn -0.0838 -0.5185 0.8510
vn -0.0947 0.2570 0.9617
vn -0.0717 -0.6814 0.7284
vn -0.0969 0.1493 0.9840
vn -0.0510 -0.8538 0.5180
vn -0.0979 0.0489 0.9940
vn -0.0190 0.9810 0.1932
vn -0.0190 -0.9810 0.1932
vn -0.0979 -0.0489 0.9940
vn -0.0510 0.8538 0.5180
vn -0.2125 -0.6814 0.7004
vn -0.2870 0.1493 0.9462
vn -0.1511 -0.8538 0.4981
vn -0.2899 0.0489 0.9558
vn -0.0564 0.9810 0.1858
vn -0.0564 -0.9810 0.1858
vn -0.2899 -0.0489 0.9558
vn -0.1511 0.8538 0.4981
vn -0.2870 -0.1493 0.9462
vn -0.2125 0.6814 0.7004
vn -0.2805 -0.2570 0.9248
vn -0.2482 0.5185 0.8183
vn -0.2687 -0.3781 0.8859
vn -0.2687 0.3781 0.8859
vn -0.2482 -0.5185 0.8183
vn -0.2805 0.2570 0.9248
vn -0.3450 0.6814 0.6455
vn -0.4556 -0.2570 0.8523
vn -0.4031 0.5185 0.7541
vn -0.4364 -0.3781 0.8165
vn -0.4364 0.3781 0.8165
vn -0.4031 -0.5185 0.7541
vn -0.4556 0.2570 0.8523
vn -0.3450 -0.6814 0.6455
vn -0.4661 0.1493 0.8720
vn -0.2454 -0.8538 0.4591
vn -0.4708 0.0489 0.8809
vn -0.0915 0.9810 0.1712
vn -0.0915 -0.9810 0.1712
vn -0.4708 -0.0489 0.8809
vn -0.2454 0.8538 0.4591
vn -0.4661 -0.1493 0.8720
vn -0.6273 0.1493 0.7644
vn -0.3302 -0.8538 0.4024
vn -0.6336 0.0489 0.7721
vn -0.1232 0.9810 0.1501
vn -0.1232 -0.9810 0.1501
vn -0.6336 -0.0489 0.7721
vn -0.3302 0.8538 0.4024
vn -0.6273 -0.1493 0.7644
vn -0.4643 0.6814 0.5658
vn -0.6131 -0.2570 0.7470
vn -0.5425 0.5185 0.6610
vn -0.5873 -0.3781 0.7156
vn -0.5873 0.3781 0.7156
vn -0.5425 -0.5185 0.6610
vn -0.6131 0.2570 0.7470
vn -0.4643 -0.6814 0.5658
vn -0.7470 -0.2570 0.6131
vn -0.6610 0.5185 0.5425
vn -0.7156 -0.3781 0.5873
vn -0.7156 0.3781 0.5873
vn -0.6610 -0.5185 0.5425
vn -0.7470 0.2570 0.6131
vn -0.5658 -0.6814 0.4643
vn -0.7644 0.1493 0.6273
vn -0.4024 -0.8538 0.3302
vn -0.7721 0.0489 0.6336
vn -0.1501 0.9810 0.1232
vn -0.1501 -0.9810 0.1232
vn -0.7721 -0.0489 0.6336
vn -0.4024 0.8538 0.3302
vn -0.7644 -0.1493 0.6273
vn -0.5658 0.6814 0.4643
vn -0.4591 -0.8538 0.2454
vn -0.8809 0.0489 0.4708
vn -0.1712 0.9810 0.0915
vn -0.1712 -0.9810 0.0915
vn -0.8809 -0.0489 0.4708
vn -0.4591 0.8538 0.2454
vn -0.8720 -0.1493 0.4661
vn -0.6455 0.6814 0.3450
vn -0.8523 -0.2570 0.4556
vn -0.7541 0.5185 0.4031
vn -0.8165 -0.3781 0.4364
vn -0.8165 0.3781 0.4364
vn -0.7541 -0.5185 0.4031
vn -0.8523 0.2570 0.4556
vn -0.6455 -0.6814 0.3450
vn -0.8720 0.1493 0.4661
vn -0.8859 -0.3781 0.2687
vn -0.8859 0.3781 0.2687
vn -0.8183 -0.5185 0.2482
vn -0.9248 0.2570 0.2805
vn -0.7004 -0.6814 0.2125
vn -0.9462 0.1493 0.2870
vn -0.4981 -0.8538 0.1511
vn -0.9558 0.0489 0.2899
vn -0.1858 0.9810 0.0564
vn -0.1858 -0.9810 0.0564
vn -0.9558 -0.0489 0.2899
vn -0.4981 0.8538 0.1511
vn -0.9462 -0.1493 0.2870
vn -0.7004 0.6814 0.2125
vn -0.9248 -0.2570 0.2805
vn -0.8183 0.5185 0.2482
vn -0.1932 0.9810 0.0190
vn -0.1932 -0.9810 0.0190
vn -0.9940 -0.0489 0.0979
vn -0.5180 0.8538 0.0510
vn -0.9840 -0.1493 0.0969
vn -0.7284 0.6814 0.0717
vn -0.9617 -0.2570 0.0947
vn -0.8510 0.5185 0.0838
vn -0.9213 -0.3781 0.0907
vn -0.9213 0.3781 0.0907
vn -0.8510 -0.5185 0.0838
vn -0.9617 0.2570 0.0947
vn -0.7284 -0.6814 0.0717
vn -0.9840 0.1493 0.0969
vn -0.5180 -0.8538 0.0510
vn -0.9940 0.0489 0.0979
vn -0.9213 0.3781 -0.0907
vn -0.8510 -0.5185 -0.0838
vn -0.9617 0.2570 -0.0947
vn -0.7284 -0.6814 -0.0717
vn -0.9840 0.1493 -0.0969
vn -0.5180 -0.8538 -0.0510
vn -0.9940 0.0489 -0.0979
vn -0.1932 0.9810 -0.0190
vn -0.1932 -0.9810 -0.0190
vn -0.9940 -0.0489 -0.0979
vn -0.5180 0.8538 -0.0510
vn -0.9840 -0.1493 -0.0969
vn -0.7284 0.6814 -0.0717
vn -0.9617 -0.2570 -0.0947
vn -0.8510 0.5185 -0.0838
vn -0.9213 -0.3781 -0.0907
vn -0.9558 -0.0489 -0.2899
vn -0.4981 0.8538 -0.1511
vn -0.9462 -0.1493 -0.2870
vn -0.7004 0.6814 -0.2125
vn -0.9248 -0.2570 -0.2805
vn -0.8183 0.5185 -0.2482
vn -0.8859 -0.3781 -0.2687
vn -0.8859 0.3781 -0.2687
vn -0.8183 -0.5185 -0.2482
vn -0.9248 0.2570 -0.2805
vn -0.7004 -0.6814 -0.2125
vn -0.9462 0.1493 -0.2870
vn -0.4981 -0.8538 -0.1511
vn -0.9558 0.0489 -0.2899
vn -0.1858 0.9810 -0.0564
vn -0.1858 -0.9810 -0.0564
vn -0.7541 -0.5185 -0.4031
vn -0.8523 0.2570 -0.4556
vn -0.6455 -0.6814 -0.3450
vn -0.8720 0.1493 -0.4661
vn -0.4591 -0.8538 -0.2454
vn -0.8809 0.0489 -0.4708
vn -0.1712 0.9810 -0.0915
vn -0.1712 -0.9810 -0.0915
vn -0.8809 -0.0489 -0.4708
vn -0.4591 0.8538 -0.2454
vn -0.8720 -0.1493 -0.4661
vn -0.6455 0.6814 -0.3450
vn -0.8523 -0.2570 -0.4556
vn -0.7541 0.5185 -0.4031
vn -0.8165 -0.3781 -0.4364
vn -0.8165 0.3781 -0.4364
vn -0.4024 0.8538 -0.3302
vn -0.7644 -0.1493 -0.6273
vn -0.5658 0.6814 -0.4643
vn -0.7470 -0.2570 -0.6131
vn -0.6610 0.5185 -0.5425
vn -0.7156 -0.3781 -0.5873
vn -0.7156 0.3781 -0.5873
vn -0.6610 -0.5185 -0.5425
vn -0.7470 0.2570 -0.6131
vn -0.5658 -0.6814 -0.4643
vn -0.7644 0.1493 -0.6273
vn -0.4024 -0.8538 -0.3302
vn -0.7721 0.0489 -0.6336
vn -0.1501 0.9810 -0.1232
vn -0.1501 -0.9810 -0.1232
vn -0.7721 -0.0489 -0.6336
vn -0.6131 0.2570 -0.7470
vn -0.4643 -0.6814 -0.5658
vn -0.6273 0.1493 -0.7644
vn -0.3302 -0.8538 -0.4024
vn -0.6336 0.0489 -0.7721
vn -0.1232 0.9810 -0.1501
vn -0.1232 -0.9810 -0.1501
vn -0.6336 -0.0489 -0.7721
vn -0.3302 0.8538 -0.4024
vn -0.6273 -0.1493 -0.7644
vn -0.4643 0.6814 -0.5658
vn -0.6131 -0.2570 -0.7470
vn -0.5425 0.5185 -0.6610
vn -0.5873 -0.3781 -0.7156
vn -0.5873 0.3781 -0.7156
vn -0.5425 -0.5185 -0.6610
vn -0.4661 -0.1493 -0.8720
vn -0.3450 0.6814 -0.6455
vn -0.4556 -0.2570 -0.8523
vn -0.4031 0.5185 -0.7541
vn -0.4364 -0.3781 -0.8165
vn -0.4364 0.3781 -0.8165
vn -0.4031 -0.5185 -0.7541
vn -0.4556 0.2570 -0.8523
vn -0.3450 -0.6814 -0.6455
vn -0.4661 0.1493 -0.8720
vn -0.2454 -0.8538 -0.4591
vn -0.4708 0.0489 -0.8809
vn -0.0915 0.9810 -0.1712
vn -0.0915 -0.9810 -0.1712
vn -0.4708 -0.0489 -0.8809
vn -0.2454 0.8538 -0.4591
vn -0.2125 -0.6814 -0.7004
vn -0.2870 0.1493 -0.9462
vn -0.1511 -0.8538 -0.4981
vn -0.2899 0.0489 -0.9558
vn -0.0564 0.9810 -0.1858
vn -0.0564 -0.9810 -0.1858
vn -0.2899 -0.0489 -0.9558
vn -0.1511 0.8538 -0.4981
vn -0.2870 -0.1493 -0.9462
vn -0.2125 0.6814 -0.7004
vn -0.2805 -0.2570 -0.9248
vn -0.2482 0.5185 -0.8183
vn -0.2687 -0.3781 -0.8859
vn -0.2687 0.3781 -0.8859
vn -0.2482 -0.5185 -0.8183
vn -0.2805 0.2570 -0.9248
vn -0.0947 -0.2570 -0.9617
vn -0.0838 0.5185 -0.8510
vn -0.0907 -0.3781 -0.9213
vn -0.0907 0.3781 -0.9213
vn -0.0838 -0.5185 -0.8510
vn -0.0947 0.2570 -0.9617
vn -0.0717 -0.6814 -0.7284
vn -0.0969 0.1493 -0.9840
vn -0.0510 -0.8538 -0.5180
vn -0.0979 0.0489 -0.9940
vn -0.0190 0.9810 -0.1932
vn -0.0190 -0.9810 -0.1932
vn -0.0979 -0.0489 -0.9940
vn -0.0510 0.8538 -0.5180
vn -0.0969 -0.1493 -0.9840
vn -0.0717 0.6814 -0.7284
vt 0.750000 0.812500
vt 0.750000 0.875000
vt 0.718750 0.875000
vt 0.718750 0.812500
vt 0.750000 0.312500
vt 0.750000 0.375000
vt 0.718750 0.375000
vt 0.718750 0.312500
vt 0.750000 0.750000
vt 0.718750 0.750000
vt 0.750000 0.250000
vt 0.718750 0.250000
vt 0.750000 0.687500
vt 0.718750 0.687500
vt 0.750000 0.187500
vt 0.718750 0.187500
vt 0.750000 0.625000
vt 0.718750 0.625000
vt 0.750000 0.125000
vt 0.718750 0.125000
vt 0.750000 0.562500
vt 0.718750 0.562500
vt 0.750000 0.062500
vt 0.718750 0.062500
vt 0.750000 0.500000
vt 0.718750 0.500000
vt 0.750000 0.937500
vt 0.734375 1.000000
vt 0.718750 0.937500
vt 0.734375 0.000000
vt 0.750000 0.437500
vt 0.718750 0.437500
vt 0.687500 0.500000
vt 0.687500 0.437500
vt 0.687500 0.937500
vt 0.687500 0.875000
vt 0.687500 0.375000
vt 0.687500 0.812500
vt 0.687500 0.312500
vt 0.687500 0.750000
vt 0.687500 0.250000
vt 0.687500 0.687500
vt 0.687500 0.187500
vt 0.687500 0.625000
vt 0.687500 0.125000
vt 0.687500 0.562500
vt 0.687500 0.062500
vt 0.703125 1.000000
vt 0.703125 0.000000
vt 0.656250 0.250000
vt 0.656250 0.187500
vt 0.656250 0.687500
vt 0.656250 0.625000
vt 0.656250 0.125000
vt 0.656250 0.562500
vt 0.656250 0.062500
vt 0.656250 0.500000
vt 0.671875 1.000000
vt 0.656250 0.937500
vt 0.671875 0.000000
vt 0.656250 0.437500
vt 0.656250 0.875000
vt 0.656250 0.375000
vt 0.656250 0.812500
vt 0.656250 0.312500
vt 0.656250 0.750000
vt 0.625000 0.437500
vt 0.625000 0.375000
vt 0.625000 0.875000
vt 0.625000 0.812500
vt 0.625000 0.312500
vt 0.625000 0.750000
vt 0.625000 0.250000
vt 0.625000 0.687500
vt 0.625000 0.187500
vt 0.625000 0.625000
vt 0.625000 0.125000
vt 0.625000 0.562500
vt 0.625000 0.062500
vt 0.625000 0.500000
vt 0.640625 1.000000
vt 0.625000 0.937500
vt 0.640625 0.000000
vt 0.593750 0.187500
vt 0.593750 0.125000
vt 0.593750 0.625000
vt 0.593750 0.562500
vt 0.593750 0.062500
vt 0.593750 0.500000
vt 0.609375 1.000000
vt 0.593750 0.937500
vt 0.609375 0.000000
vt 0.593750 0.437500
vt 0.593750 0.875000
vt 0.593750 0.375000
vt 0.593750 0.812500
vt 0.593750 0.312500
vt 0.593750 0.750000
vt 0.593750 0.250000
vt 0.593750 0.687500
vt 0.562500 0.875000
vt 0.562500 0.812500
vt 0.562500 0.375000
vt 0.562500 0.312500
vt 0.562500 0.750000
vt 0.562500 0.250000
vt 0.562500 0.687500
vt 0.562500 0.187500
vt 0.562500 0.625000
vt 0.562500 0.125000
vt 0.562500 0.562500
vt 0.562500 0.062500
vt 0.562500 0.500000
vt 0.578125 1.000000
vt 0.562500 0.937500
vt 0.578125 0.000000
vt 0.562500 0.437500
vt 0.531250 0.625000
vt 0.531250 0.562500
vt 0.531250 0.125000
vt 0.531250 0.062500
vt 0.531250 0.500000
vt 0.546875 1.000000
vt 0.531250 0.937500
vt 0.546875 0.000000
vt 0.531250 0.437500
vt 0.531250 0.875000
vt 0.531250 0.375000
vt 0.531250 0.812500
vt 0.531250 0.312500
vt 0.531250 0.750000
vt 0.531250 0.250000
vt 0.531250 0.687500
vt 0.531250 0.187500
vt 0.500000 0.375000
vt 0.500000 0.312500
vt 0.500000 0.812500
vt 0.500000 0.750000
vt 0.500000 0.250000
vt 0.500000 0.687500
vt 0.500000 0.187500
vt 0.500000 0.625000
vt 0.500000 0.125000
vt 0.500000 0.562500
vt 0.500000 0.062500
vt 0.500000 0.500000
vt 0.515625 1.000000
vt 0.500000 0.937500
vt 0.515625 0.000000
vt 0.500000 0.437500
vt 0.500000 0.875000
vt 0.468750 0.125000
vt 0.468750 0.062500
vt 0.468750 0.562500
vt 0.468750 0.500000
vt 0.484375 1.000000
vt 0.468750 0.937500
vt 0.484375 0.000000
vt 0.468750 0.437500
vt 0.468750 0.875000
vt 0.468750 0.375000
vt 0.468750 0.812500
vt 0.468750 0.312500
vt 0.468750 0.750000
vt 0.468750 0.250000
vt 0.468750 0.687500
vt 0.468750 0.187500
vt 0.468750 0.625000
vt 0.437500 0.812500
vt 0.437500 0.750000
vt 0.437500 0.312500
vt 0.437500 0.250000
vt 0.437500 0.687500
vt 0.437500 0.187500
vt 0.437500 0.625000
vt 0.437500 0.125000
vt 0.437500 0.562500
vt 0.437500 0.062500
vt 0.437500 0.500000
vt 0.453125 1.000000
vt 0.437500 0.937500
vt 0.453125 0.000000
vt 0.437500 0.437500
vt 0.437500 0.875000
vt 0.437500 0.375000
vt 0.406250 0.562500
vt 0.406250 0.500000
vt 0.421875 1.000000
vt 0.406250 0.937500
vt 0.421875 0.000000
vt 0.406250 0.062500
vt 0.406250 0.437500
vt 0.406250 0.875000
vt 0.406250 0.375000
vt 0.406250 0.812500
vt 0.406250 0.312500
vt 0.406250 0.750000
vt 0.406250 0.250000
vt 0.406250 0.687500
vt 0.406250 0.187500
vt 0.406250 0.625000
vt 0.406250 0.125000
vt 0.375000 0.312500
vt 0.375000 0.250000
vt 0.375000 0.750000
vt 0.375000 0.687500
vt 0.375000 0.187500
vt 0.375000 0.625000
vt 0.375000 0.125000
vt 0.375000 0.562500
vt 0.375000 0.062500
vt 0.375000 0.500000
vt 0.390625 1.000000
vt 0.375000 0.937500
vt 0.390625 0.000000
vt 0.375000 0.437500
vt 0.375000 0.875000
vt 0.375000 0.375000
vt 0.375000 0.812500
vt 0.359375 0.000000
vt 0.343750 0.062500
vt 0.343750 0.500000
vt 0.343750 0.437500
vt 0.343750 0.937500
vt 0.343750 0.875000
vt 0.343750 0.375000
vt 0.343750 0.812500
vt 0.343750 0.312500
vt 0.343750 0.750000
vt 0.343750 0.250000
vt 0.343750 0.687500
vt 0.343750 0.187500
vt 0.343750 0.625000
vt 0.343750 0.125000
vt 0.343750 0.562500
vt 0.359375 1.000000
vt 0.312500 0.250000
vt 0.312500 0.187500
vt 0.312500 0.687500
vt 0.312500 0.625000
vt 0.312500 0.125000
vt 0.312500 0.562500
vt 0.312500 0.062500
vt 0.312500 0.500000
vt 0.328125 1.000000
vt 0.312500 0.937500
vt 0.328125 0.000000
vt 0.312500 0.437500
vt 0.312500 0.875000
vt 0.312500 0.375000
vt 0.312500 0.812500
vt 0.312500 0.312500
vt 0.312500 0.750000
vt 0.281250 0.937500
vt 0.281250 0.875000
vt 0.281250 0.437500
vt 0.281250 0.375000
vt 0.281250 0.812500
vt 0.281250 0.312500
vt 0.281250 0.750000
vt 0.281250 0.250000
vt 0.281250 0.687500
vt 0.281250 0.187500
vt 0.281250 0.625000
vt 0.281250 0.125000
vt 0.281250 0.562500
vt 0.281250 0.062500
vt 0.281250 0.500000
vt 0.296875 1.000000
vt 0.296875 0.000000
vt 0.250000 0.687500
vt 0.250000 0.625000
vt 0.250000 0.187500
vt 0.250000 0.125000
vt 0.250000 0.562500
vt 0.250000 0.062500
vt 0.250000 0.500000
vt 0.265625 1.000000
vt 0.250000 0.937500
vt 0.265625 0.000000
vt 0.250000 0.437500
vt 0.250000 0.875000
vt 0.250000 0.375000
vt 0.250000 0.812500
vt 0.250000 0.312500
vt 0.250000 0.750000
vt 0.250000 0.250000
vt 0.218750 0.437500
vt 0.218750 0.375000
vt 0.218750 0.875000
vt 0.218750 0.812500
vt 0.218750 0.312500
vt 0.218750 0.750000
vt 0.218750 0.250000
vt 0.218750 0.687500
vt 0.218750 0.187500
vt 0.218750 0.625000
vt 0.218750 0.125000
vt 0.218750 0.562500
vt 0.218750 0.062500
vt 0.218750 0.500000
vt 0.234375 1.000000
vt 0.218750 0.937500
vt 0.234375 0.000000
vt 0.187500 0.187500
vt 0.187500 0.125000
vt 0.187500 0.625000
vt 0.187500 0.562500
vt 0.187500 0.062500
vt 0.187500 0.500000
vt 0.203125 1.000000
vt 0.187500 0.937500
vt 0.203125 0.000000
vt 0.187500 0.437500
vt 0.187500 0.875000
vt 0.187500 0.375000
vt 0.187500 0.812500
vt 0.187500 0.312500
vt 0.187500 0.750000
vt 0.187500 0.250000
vt 0.187500 0.687500
vt 0.156250 0.875000
vt 0.156250 0.812500
vt 0.156250 0.375000
vt 0.156250 0.312500
vt 0.156250 0.750000
vt 0.156250 0.250000
vt 0.156250 0.687500
vt 0.156250 0.187500
vt 0.156250 0.625000
vt 0.156250 0.125000
vt 0.156250 0.562500
vt 0.156250 0.062500
vt 0.156250 0.500000
vt 0.171875 1.000000
vt 0.156250 0.937500
vt 0.171875 0.000000
vt 0.156250 0.437500
vt 0.125000 0.625000
vt 0.125000 0.562500
vt 0.125000 0.125000
vt 0.125000 0.062500
vt 0.125000 0.500000
vt 0.140625 1.000000
vt 0.125000 0.937500
vt 0.140625 0.000000
vt 0.125000 0.437500
vt 0.125000 0.875000
vt 0.125000 0.375000
vt 0.125000 0.812500
vt 0.125000 0.312500
vt 0.125000 0.750000
vt 0.125000 0.250000
vt 0.125000 0.687500
vt 0.125000 0.187500
vt 0.093750 0.375000
vt 0.093750 0.312500
vt 0.093750 0.812500
vt 0.093750 0.750000
vt 0.093750 0.250000
vt 0.093750 0.687500
vt 0.093750 0.187500
vt 0.093750 0.625000
vt 0.093750 0.125000
vt 0.093750 0.562500
vt 0.093750 0.062500
vt 0.093750 0.500000
vt 0.109375 1.000000
vt 0.093750 0.937500
vt 0.109375 0.000000
vt 0.093750 0.437500
vt 0.093750 0.875000
vt 0.062500 0.125000
vt 0.062500 0.062500
vt 0.062500 0.562500
vt 0.062500 0.500000
vt 0.078125 1.000000
vt 0.062500 0.937500
vt 0.078125 0.000000
vt 0.062500 0.437500
vt 0.062500 0.875000
vt 0.062500 0.375000
vt 0.062500 0.812500
vt 0.062500 0.312500
vt 0.062500 0.750000
vt 0.062500 0.250000
vt 0.062500 0.687500
vt 0.062500 0.187500
vt 0.062500 0.625000
vt 0.031250 0.312500
vt 0.031250 0.250000
vt 0.031250 0.750000
vt 0.031250 0.687500
vt 0.031250 0.187500
vt 0.031250 0.625000
vt 0.031250 0.125000
vt 0.031250 0.562500
vt 0.031250 0.062500
vt 0.031250 0.500000
vt 0.046875 1.000000
vt 0.031250 0.937500
vt 0.046875 0.000000
vt 0.031250 0.437500
vt 0.031250 0.875000
vt 0.031250 0.375000
vt 0.031250 0.812500
vt 0.015625 1.000000
vt 0.000000 0.937500
vt 0.015625 0.000000
vt 0.000000 0.062500
vt 0.000000 0.500000
vt 0.000000 0.437500
vt 0.000000 0.875000
vt 0.000000 0.375000
vt 0.000000 0.812500
vt 0.000000 0.312500
vt 0.000000 0.750000
vt 0.000000 0.250000
vt 0.000000 0.687500
vt 0.000000 0.187500
vt 0.000000 0.625000
vt 0.000000 0.125000
vt 0.000000 0.562500
vt 1.000000 0.687500
vt 1.000000 0.750000
vt 0.968750 0.750000
vt 0.968750 0.687500
vt 1.000000 0.187500
vt 1.000000 0.250000
vt 0.968750 0.250000
vt 0.968750 0.187500
vt 1.000000 0.625000
vt 0.968750 0.625000
vt 1.000000 0.125000
vt 0.968750 0.125000
vt 1.000000 0.562500
vt 0.968750 0.562500
vt 1.000000 0.062500
vt 0.968750 0.062500
vt 1.000000 0.500000
vt 0.968750 0.500000
vt 1.000000 0.937500
vt 0.984375 1.000000
vt 0.968750 0.937500
vt 0.984375 0.000000
vt 1.000000 0.437500
vt 0.968750 0.437500
vt 1.000000 0.875000
vt 0.968750 0.875000
vt 1.000000 0.375000
vt 0.968750 0.375000
vt 1.000000 0.812500
vt 0.968750 0.812500
vt 1.000000 0.312500
vt 0.968750 0.312500
vt 0.937500 0.500000
vt 0.937500 0.437500
vt 0.937500 0.937500
vt 0.937500 0.875000
vt 0.937500 0.375000
vt 0.937500 0.812500
vt 0.937500 0.312500
vt 0.937500 0.750000
vt 0.937500 0.250000
vt 0.937500 0.687500
vt 0.937500 0.187500
vt 0.937500 0.625000
vt 0.937500 0.125000
vt 0.937500 0.562500
vt 0.937500 0.062500
vt 0.953125 1.000000
vt 0.953125 0.000000
vt 0.906250 0.250000
vt 0.906250 0.187500
vt 0.906250 0.687500
vt 0.906250 0.625000
vt 0.906250 0.125000
vt 0.906250 0.562500
vt 0.906250 0.062500
vt 0.906250 0.500000
vt 0.921875 1.000000
vt 0.906250 0.937500
vt 0.921875 0.000000
vt 0.906250 0.437500
vt 0.906250 0.875000
vt 0.906250 0.375000
vt 0.906250 0.812500
vt 0.906250 0.312500
vt 0.906250 0.750000
vt 0.875000 0.937500
vt 0.875000 0.875000
vt 0.875000 0.437500
vt 0.875000 0.375000
vt 0.875000 0.812500
vt 0.875000 0.312500
vt 0.875000 0.750000
vt 0.875000 0.250000
vt 0.875000 0.687500
vt 0.875000 0.187500
vt 0.875000 0.625000
vt 0.875000 0.125000
vt 0.875000 0.562500
vt 0.875000 0.062500
vt 0.875000 0.500000
vt 0.890625 1.000000
vt 0.890625 0.000000
vt 0.843750 0.687500
vt 0.843750 0.625000
vt 0.843750 0.187500
vt 0.843750 0.125000
vt 0.843750 0.562500
vt 0.843750 0.062500
vt 0.843750 0.500000
vt 0.859375 1.000000
vt 0.843750 0.937500
vt 0.859375 0.000000
vt 0.843750 0.437500
vt 0.843750 0.875000
vt 0.843750 0.375000
vt 0.843750 0.812500
vt 0.843750 0.312500
vt 0.843750 0.750000
vt 0.843750 0.250000
vt 0.812500 0.437500
vt 0.812500 0.375000
vt 0.812500 0.875000
vt 0.812500 0.812500
vt 0.812500 0.312500
vt 0.812500 0.750000
vt 0.812500 0.250000
vt 0.812500 0.687500
vt 0.812500 0.187500
vt 0.812500 0.625000
vt 0.812500 0.125000
vt 0.812500 0.562500
vt 0.812500 0.062500
vt 0.812500 0.500000
vt 0.828125 1.000000
vt 0.812500 0.937500
vt 0.828125 0.000000
vt 0.781250 0.187500
vt 0.781250 0.125000
vt 0.781250 0.625000
vt 0.781250 0.562500
vt 0.781250 0.062500
vt 0.781250 0.500000
vt 0.796875 1.000000
vt 0.781250 0.937500
vt 0.796875 0.000000
vt 0.781250 0.437500
vt 0.781250 0.875000
vt 0.781250 0.375000
vt 0.781250 0.812500
vt 0.781250 0.312500
vt 0.781250 0.750000
vt 0.781250 0.250000
vt 0.781250 0.687500
vt 0.765625 1.000000
vt 0.765625 0.000000
s 0
usemtl Material.001
f 2/1/1 475/2/1 10/3/1 11/4/1
f 7/5/2 478/6/2 18/7/2 19/8/2
f 476/9/3 2/1/3 11/4/3 12/10/3
f 479/11/4 7/5/4 19/8/4 20/12/4
f 3/13/5 476/9/5 12/10/5 13/14/5
f 480/15/6 479/11/6 20/12/6 21/16/6
f 477/17/7 3/13/7 13/14/7 14/18/7
f 481/19/8 480/15/8 21/16/8 22/20/8
f 4/21/9 477/17/9 14/18/9 15/22/9
f 482/23/10 481/19/10 22/20/10 23/24/10
f 5/25/11 4/21/11 15/22/11 16/26/11
f 474/27/12 1/28/12 9/29/12
f 8/30/13 482/23/13 23/24/13
f 6/31/14 5/25/14 16/26/14 17/32/14
f 475/2/15 474/27/15 9/29/15 10/3/15
f 478/6/16 6/31/16 17/32/16 18/7/16
f 17/32/17 16/26/17 31/33/17 32/34/17
f 10/3/18 9/29/18 24/35/18 25/36/18
f 18/7/19 17/32/19 32/34/19 33/37/19
f 11/4/20 10/3/20 25/36/20 26/38/20
f 19/8/21 18/7/21 33/37/21 34/39/21
f 12/10/22 11/4/22 26/38/22 27/40/22
f 20/12/23 19/8/23 34/39/23 35/41/23
f 13/14/24 12/10/24 27/40/24 28/42/24
f 21/16/25 20/12/25 35/41/25 36/43/25
f 14/18/26 13/14/26 28/42/26 29/44/26
f 22/20/27 21/16/27 36/43/27 37/45/27
f 15/22/28 14/18/28 29/44/28 30/46/28
f 23/24/29 22/20/29 37/45/29 38/47/29
f 16/26/30 15/22/30 30/46/30 31/33/30
f 9/29/31 1/48/31 24/35/31
f 8/49/32 23/24/32 38/47/32
f 36/43/33 35/41/33 50/50/33 51/51/33
f 29/44/34 28/42/34 43/52/34 44/53/34
f 37/45/35 36/43/35 51/51/35 52/54/35
f 30/46/36 29/44/36 44/53/36 45/55/36
f 38/47/37 37/45/37 52/54/37 53/56/37
f 31/33/38 30/46/38 45/55/38 46/57/38
f 24/35/39 1/58/39 39/59/39
f 8/60/40 38/47/40 53/56/40
f 32/34/41 31/33/41 46/57/41 47/61/41
f 25/36/42 24/35/42 39/59/42 40/62/42
f 33/37/43 32/34/43 47/61/43 48/63/43
f 26/38/44 25/36/44 40/62/44 41/64/44
f 34/39/45 33/37/45 48/63/45 49/65/45
f 27/40/46 26/38/46 41/64/46 42/66/46
f 35/41/47 34/39/47 49/65/47 50/50/47
f 28/42/48 27/40/48 42/66/48 43/52/48
f 48/63/49 47/61/49 62/67/49 63/68/49
f 41/64/50 40/62/50 55/69/50 56/70/50
f 49/65/51 48/63/51 63/68/51 64/71/51
f 42/66/52 41/64/52 56/70/52 57/72/52
f 50/50/53 49/65/53 64/71/53 65/73/53
f 43/52/54 42/66/54 57/72/54 58/74/54
f 51/51/55 50/50/55 65/73/55 66/75/55
f 44/53/56 43/52/56 58/74/56 59/76/56
f 52/54/57 51/51/57 66/75/57 67/77/57
f 45/55/58 44/53/58 59/76/58 60/78/58
f 53/56/59 52/54/59 67/77/59 68/79/59
f 46/57/60 45/55/60 60/78/60 61/80/60
f 39/59/61 1/81/61 54/82/61
f 8/83/62 53/56/62 68/79/62
f 47/61/63 46/57/63 61/80/63 62/67/63
f 40/62/64 39/59/64 54/82/64 55/69/64
f 67/77/65 66/75/65 81/84/65 82/85/65
f 60/78/66 59/76/66 74/86/66 75/87/66
f 68/79/67 67/77/67 82/85/67 83/88/67
f 61/80/68 60/78/68 75/87/68 76/89/68
f 54/82/69 1/90/69 69/91/69
f 8/92/70 68/79/70 83/88/70
f 62/67/71 61/80/71 76/89/71 77/93/71
f 55/69/72 54/82/72 69/91/72 70/94/72
f 63/68/73 62/67/73 77/93/73 78/95/73
f 56/70/74 55/69/74 70/94/74 71/96/74
f 64/71/75 63/68/75 78/95/75 79/97/75
f 57/72/76 56/70/76 71/96/76 72/98/76
f 65/73/77 64/71/77 79/97/77 80/99/77
f 58/74/78 57/72/78 72/98/78 73/100/78
f 66/75/79 65/73/79 80/99/79 81/84/79
f 59/76/80 58/74/80 73/100/80 74/86/80
f 71/96/81 70/94/81 85/101/81 86/102/81
f 79/97/82 78/95/82 93/103/82 94/104/82
f 72/98/83 71/96/83 86/102/83 87/105/83
f 80/99/84 79/97/84 94/104/84 95/106/84
f 73/100/85 72/98/85 87/105/85 88/107/85
f 81/84/86 80/99/86 95/106/86 96/108/86
f 74/86/87 73/100/87 88/107/87 89/109/87
f 82/85/88 81/84/88 96/108/88 97/110/88
f 75/87/89 74/86/89 89/109/89 90/111/89
f 83/88/90 82/85/90 97/110/90 98/112/90
f 76/89/91 75/87/91 90/111/91 91/113/91
f 69/91/92 1/114/92 84/115/92
f 8/116/93 83/88/93 98/112/93
f 77/93/94 76/89/94 91/113/94 92/117/94
f 70/94/95 69/91/95 84/115/95 85/101/95
f 78/95/96 77/93/96 92/117/96 93/103/96
f 90/111/97 89/109/97 104/118/97 105/119/97
f 98/112/98 97/110/98 112/120/98 113/121/98
f 91/113/99 90/111/99 105/119/99 106/122/99
f 84/115/100 1/123/100 99/124/100
f 8/125/101 98/112/101 113/121/101
f 92/117/102 91/113/102 106/122/102 107/126/102
f 85/101/103 84/115/103 99/124/103 100/127/103
f 93/103/104 92/117/104 107/126/104 108/128/104
f 86/102/105 85/101/105 100/127/105 101/129/105
f 94/104/106 93/103/106 108/128/106 109/130/106
f 87/105/107 86/102/107 101/129/107 102/131/107
f 95/106/108 94/104/108 109/130/108 110/132/108
f 88/107/109 87/105/109 102/131/109 103/133/109
f 96/108/110 95/106/110 110/132/110 111/134/110
f 89/109/111 88/107/111 103/133/111 104/118/111
f 97/110/112 96/108/112 111/134/112 112/120/112
f 109/130/113 108/128/113 123/135/113 124/136/113
f 102/131/114 101/129/114 116/137/114 117/138/114
f 110/132/115 109/130/115 124/136/115 125/139/115
f 103/133/116 102/131/116 117/138/116 118/140/116
f 111/134/117 110/132/117 125/139/117 126/141/117
f 104/118/118 103/133/118 118/140/118 119/142/118
f 112/120/119 111/134/119 126/141/119 127/143/119
f 105/119/120 104/118/120 119/142/120 120/144/120
f 113/121/121 112/120/121 127/143/121 128/145/121
f 106/122/122 105/119/122 120/144/122 121/146/122
f 99/124/123 1/147/123 114/148/123
f 8/149/124 113/121/124 128/145/124
f 107/126/125 106/122/125 121/146/125 122/150/125
f 100/127/126 99/124/126 114/148/126 115/151/126
f 108/128/127 107/126/127 122/150/127 123/135/127
f 101/129/128 100/127/128 115/151/128 116/137/128
f 128/145/129 127/143/129 142/152/129 143/153/129
f 121/146/130 120/144/130 135/154/130 136/155/130
f 114/148/131 1/156/131 129/157/131
f 8/158/132 128/145/132 143/153/132
f 122/150/133 121/146/133 136/155/133 137/159/133
f 115/151/134 114/148/134 129/157/134 130/160/134
f 123/135/135 122/150/135 137/159/135 138/161/135
f 116/137/136 115/151/136 130/160/136 131/162/136
f 124/136/137 123/135/137 138/161/137 139/163/137
f 117/138/138 116/137/138 131/162/138 132/164/138
f 125/139/139 124/136/139 139/163/139 140/165/139
f 118/140/140 117/138/140 132/164/140 133/166/140
f 126/141/141 125/139/141 140/165/141 141/167/141
f 119/142/142 118/140/142 133/166/142 134/168/142
f 127/143/143 126/141/143 141/167/143 142/152/143
f 120/144/144 119/142/144 134/168/144 135/154/144
f 132/164/145 131/162/145 146/169/145 147/170/145
f 140/165/146 139/163/146 154/171/146 155/172/146
f 133/166/147 132/164/147 147/170/147 148/173/147
f 141/167/148 140/165/148 155/172/148 156/174/148
f 134/168/149 133/166/149 148/173/149 149/175/149
f 142/152/150 141/167/150 156/174/150 157/176/150
f 135/154/151 134/168/151 149/175/151 150/177/151
f 143/153/152 142/152/152 157/176/152 158/178/152
f 136/155/153 135/154/153 150/177/153 151/179/153
f 129/157/154 1/180/154 144/181/154
f 8/182/155 143/153/155 158/178/155
f 137/159/156 136/155/156 151/179/156 152/183/156
f 130/160/157 129/157/157 144/181/157 145/184/157
f 138/161/158 137/159/158 152/183/158 153/185/158
f 131/162/159 130/160/159 145/184/159 146/169/159
f 139/163/160 138/161/160 153/185/160 154/171/160
f 151/179/161 150/177/161 165/186/161 166/187/161
f 144/181/162 1/188/162 159/189/162
f 8/190/163 158/178/163 173/191/163
f 152/183/164 151/179/164 166/187/164 167/192/164
f 145/184/165 144/181/165 159/189/165 160/193/165
f 153/185/166 152/183/166 167/192/166 168/194/166
f 146/169/167 145/184/167 160/193/167 161/195/167
f 154/171/168 153/185/168 168/194/168 169/196/168
f 147/170/169 146/169/169 161/195/169 162/197/169
f 155/172/170 154/171/170 169/196/170 170/198/170
f 148/173/171 147/170/171 162/197/171 163/199/171
f 156/174/172 155/172/172 170/198/172 171/200/172
f 149/175/173 148/173/173 163/199/173 164/201/173
f 157/176/174 156/174/174 171/200/174 172/202/174
f 150/177/175 149/175/175 164/201/175 165/186/175
f 158/178/176 157/176/176 172/202/176 173/191/176
f 170/198/177 169/196/177 184/203/177 185/204/177
f 163/199/178 162/197/178 177/205/178 178/206/178
f 171/200/179 170/198/179 185/204/179 186/207/179
f 164/201/180 163/199/180 178/206/180 179/208/180
f 172/202/181 171/200/181 186/207/181 187/209/181
f 165/186/182 164/201/182 179/208/182 180/210/182
f 173/191/183 172/202/183 187/209/183 188/211/183
f 166/187/184 165/186/184 180/210/184 181/212/184
f 159/189/185 1/213/185 174/214/185
f 8/215/186 173/191/186 188/211/186
f 167/192/187 166/187/187 181/212/187 182/216/187
f 160/193/188 159/189/188 174/214/188 175/217/188
f 168/194/189 167/192/189 182/216/189 183/218/189
f 161/195/190 160/193/190 175/217/190 176/219/190
f 169/196/191 168/194/191 183/218/191 184/203/191
f 162/197/192 161/195/192 176/219/192 177/205/192
f 8/220/193 188/211/193 203/221/193
f 182/216/194 181/212/194 196/222/194 197/223/194
f 175/217/195 174/214/195 189/224/195 190/225/195
f 183/218/196 182/216/196 197/223/196 198/226/196
f 176/219/197 175/217/197 190/225/197 191/227/197
f 184/203/198 183/218/198 198/226/198 199/228/198
f 177/205/199 176/219/199 191/227/199 192/229/199
f 185/204/200 184/203/200 199/228/200 200/230/200
f 178/206/201 177/205/201 192/229/201 193/231/201
f 186/207/202 185/204/202 200/230/202 201/232/202
f 179/208/203 178/206/203 193/231/203 194/233/203
f 187/209/204 186/207/204 201/232/204 202/234/204
f 180/210/205 179/208/205 194/233/205 195/235/205
f 188/211/206 187/209/206 202/234/206 203/221/206
f 181/212/207 180/210/207 195/235/207 196/222/207
f 174/214/208 1/236/208 189/224/208
f 201/232/209 200/230/209 215/237/209 216/238/209
f 194/233/210 193/231/210 208/239/210 209/240/210
f 202/234/211 201/232/211 216/238/211 217/241/211
f 195/235/212 194/233/212 209/240/212 210/242/212
f 203/221/213 202/234/213 217/241/213 218/243/213
f 196/222/214 195/235/214 210/242/214 211/244/214
f 189/224/215 1/245/215 204/246/215
f 8/247/216 203/221/216 218/243/216
f 197/223/217 196/222/217 211/244/217 212/248/217
f 190/225/218 189/224/218 204/246/218 205/249/218
f 198/226/219 197/223/219 212/248/219 213/250/219
f 191/227/220 190/225/220 205/249/220 206/251/220
f 199/228/221 198/226/221 213/250/221 214/252/221
f 192/229/222 191/227/222 206/251/222 207/253/222
f 200/230/223 199/228/223 214/252/223 215/237/223
f 193/231/224 192/229/224 207/253/224 208/239/224
f 205/249/225 204/246/225 219/254/225 220/255/225
f 213/250/226 212/248/226 227/256/226 228/257/226
f 206/251/227 205/249/227 220/255/227 221/258/227
f 214/252/228 213/250/228 228/257/228 229/259/228
f 207/253/229 206/251/229 221/258/229 222/260/229
f 215/237/230 214/252/230 229/259/230 230/261/230
f 208/239/231 207/253/231 222/260/231 223/262/231
f 216/238/232 215/237/232 230/261/232 231/263/232
f 209/240/233 208/239/233 223/262/233 224/264/233
f 217/241/234 216/238/234 231/263/234 232/265/234
f 210/242/235 209/240/235 224/264/235 225/266/235
f 218/243/236 217/241/236 232/265/236 233/267/236
f 211/244/237 210/242/237 225/266/237 226/268/237
f 204/246/238 1/269/238 219/254/238
f 8/270/239 218/243/239 233/267/239
f 212/248/240 211/244/240 226/268/240 227/256/240
f 224/264/241 223/262/241 238/271/241 239/272/241
f 232/265/242 231/263/242 246/273/242 247/274/242
f 225/266/243 224/264/243 239/272/243 240/275/243
f 233/267/244 232/265/244 247/274/244 248/276/244
f 226/268/245 225/266/245 240/275/245 241/277/245
f 219/254/246 1/278/246 234/279/246
f 8/280/247 233/267/247 248/276/247
f 227/256/248 226/268/248 241/277/248 242/281/248
f 220/255/249 219/254/249 234/279/249 235/282/249
f 228/257/250 227/256/250 242/281/250 243/283/250
f 221/258/251 220/255/251 235/282/251 236/284/251
f 229/259/252 228/257/252 243/283/252 244/285/252
f 222/260/253 221/258/253 236/284/253 237/286/253
f 230/261/254 229/259/254 244/285/254 245/287/254
f 223/262/255 222/260/255 237/286/255 238/271/255
f 231/263/256 230/261/256 245/287/256 246/273/256
f 243/283/257 242/281/257 257/288/257 258/289/257
f 236/284/258 235/282/258 250/290/258 251/291/258
f 244/285/259 243/283/259 258/289/259 259/292/259
f 237/286/260 236/284/260 251/291/260 252/293/260
f 245/287/261 244/285/261 259/292/261 260/294/261
f 238/271/262 237/286/262 252/293/262 253/295/262
f 246/273/263 245/287/263 260/294/263 261/296/263
f 239/272/264 238/271/264 253/295/264 254/297/264
f 247/274/265 246/273/265 261/296/265 262/298/265
f 240/275/266 239/272/266 254/297/266 255/299/266
f 248/276/267 247/274/267 262/298/267 263/300/267
f 241/277/268 240/275/268 255/299/268 256/301/268
f 234/279/269 1/302/269 249/303/269
f 8/304/270 248/276/270 263/300/270
f 242/281/271 241/277/271 256/301/271 257/288/271
f 235/282/272 234/279/272 249/303/272 250/290/272
f 262/298/273 261/296/273 276/305/273 277/306/273
f 255/299/274 254/297/274 269/307/274 270/308/274
f 263/300/275 262/298/275 277/306/275 278/309/275
f 256/301/276 255/299/276 270/308/276 271/310/276
f 249/303/277 1/311/277 264/312/277
f 8/313/278 263/300/278 278/309/278
f 257/288/279 256/301/279 271/310/279 272/314/279
f 250/290/280 249/303/280 264/312/280 265/315/280
f 258/289/281 257/288/281 272/314/281 273/316/281
f 251/291/282 250/290/282 265/315/282 266/317/282
f 259/292/283 258/289/283 273/316/283 274/318/283
f 252/293/284 251/291/284 266/317/284 267/319/284
f 260/294/285 259/292/285 274/318/285 275/320/285
f 253/295/286 252/293/286 267/319/286 268/321/286
f 261/296/287 260/294/287 275/320/287 276/305/287
f 254/297/288 253/295/288 268/321/288 269/307/288
f 266/317/289 265/315/289 280/322/289 281/323/289
f 274/318/290 273/316/290 288/324/290 289/325/290
f 267/319/291 266/317/291 281/323/291 282/326/291
f 275/320/292 274/318/292 289/325/292 290/327/292
f 268/321/293 267/319/293 282/326/293 283/328/293
f 276/305/294 275/320/294 290/327/294 291/329/294
f 269/307/295 268/321/295 283/328/295 284/330/295
f 277/306/296 276/305/296 291/329/296 292/331/296
f 270/308/297 269/307/297 284/330/297 285/332/297
f 278/309/298 277/306/298 292/331/298 293/333/298
f 271/310/299 270/308/299 285/332/299 286/334/299
f 264/312/300 1/335/300 279/336/300
f 8/337/301 278/309/301 293/333/301
f 272/314/302 271/310/302 286/334/302 287/338/302
f 265/315/303 264/312/303 279/336/303 280/322/303
f 273/316/304 272/314/304 287/338/304 288/324/304
f 285/332/305 284/330/305 299/339/305 300/340/305
f 293/333/306 292/331/306 307/341/306 308/342/306
f 286/334/307 285/332/307 300/340/307 301/343/307
f 279/336/308 1/344/308 294/345/308
f 8/346/309 293/333/309 308/342/309
f 287/338/310 286/334/310 301/343/310 302/347/310
f 280/322/311 279/336/311 294/345/311 295/348/311
f 288/324/312 287/338/312 302/347/312 303/349/312
f 281/323/313 280/322/313 295/348/313 296/350/313
f 289/325/314 288/324/314 303/349/314 304/351/314
f 282/326/315 281/323/315 296/350/315 297/352/315
f 290/327/316 289/325/316 304/351/316 305/353/316
f 283/328/317 282/326/317 297/352/317 298/354/317
f 291/329/318 290/327/318 305/353/318 306/355/318
f 284/330/319 283/328/319 298/354/319 299/339/319
f 292/331/320 291/329/320 306/355/320 307/341/320
f 304/351/321 303/349/321 318/356/321 319/357/321
f 297/352/322 296/350/322 311/358/322 312/359/322
f 305/353/323 304/351/323 319/357/323 320/360/323
f 298/354/324 297/352/324 312/359/324 313/361/324
f 306/355/325 305/353/325 320/360/325 321/362/325
f 299/339/326 298/354/326 313/361/326 314/363/326
f 307/341/327 306/355/327 321/362/327 322/364/327
f 300/340/328 299/339/328 314/363/328 315/365/328
f 308/342/329 307/341/329 322/364/329 323/366/329
f 301/343/330 300/340/330 315/365/330 316/367/330
f 294/345/331 1/368/331 309/369/331
f 8/370/332 308/342/332 323/366/332
f 302/347/333 301/343/333 316/367/333 317/371/333
f 295/348/334 294/345/334 309/369/334 310/372/334
f 303/349/335 302/347/335 317/371/335 318/356/335
f 296/350/336 295/348/336 310/372/336 311/358/336
f 323/366/337 322/364/337 337/373/337 338/374/337
f 316/367/338 315/365/338 330/375/338 331/376/338
f 309/369/339 1/377/339 324/378/339
f 8/379/340 323/366/340 338/374/340
f 317/371/341 316/367/341 331/376/341 332/380/341
f 310/372/342 309/369/342 324/378/342 325/381/342
f 318/356/343 317/371/343 332/380/343 333/382/343
f 311/358/344 310/372/344 325/381/344 326/383/344
f 319/357/345 318/356/345 333/382/345 334/384/345
f 312/359/346 311/358/346 326/383/346 327/385/346
f 320/360/347 319/357/347 334/384/347 335/386/347
f 313/361/348 312/359/348 327/385/348 328/387/348
f 321/362/349 320/360/349 335/386/349 336/388/349
f 314/363/350 313/361/350 328/387/350 329/389/350
f 322/364/351 321/362/351 336/388/351 337/373/351
f 315/365/352 314/363/352 329/389/352 330/375/352
f 335/386/353 334/384/353 349/390/353 350/391/353
f 328/387/354 327/385/354 342/392/354 343/393/354
f 336/388/355 335/386/355 350/391/355 351/394/355
f 329/389/356 328/387/356 343/393/356 344/395/356
f 337/373/357 336/388/357 351/394/357 352/396/357
f 330/375/358 329/389/358 344/395/358 345/397/358
f 338/374/359 337/373/359 352/396/359 353/398/359
f 331/376/360 330/375/360 345/397/360 346/399/360
f 324/378/361 1/400/361 339/401/361
f 8/402/362 338/374/362 353/398/362
f 332/380/363 331/376/363 346/399/363 347/403/363
f 325/381/364 324/378/364 339/401/364 340/404/364
f 333/382/365 332/380/365 347/403/365 348/405/365
f 326/383/366 325/381/366 340/404/366 341/406/366
f 334/384/367 333/382/367 348/405/367 349/390/367
f 327/385/368 326/383/368 341/406/368 342/392/368
f 339/401/369 1/407/369 354/408/369
f 8/409/370 353/398/370 368/410/370
f 347/403/371 346/399/371 361/411/371 362/412/371
f 340/404/372 339/401/372 354/408/372 355/413/372
f 348/405/373 347/403/373 362/412/373 363/414/373
f 341/406/374 340/404/374 355/413/374 356/415/374
f 349/390/375 348/405/375 363/414/375 364/416/375
f 342/392/376 341/406/376 356/415/376 357/417/376
f 350/391/377 349/390/377 364/416/377 365/418/377
f 343/393/378 342/392/378 357/417/378 358/419/378
f 351/394/379 350/391/379 365/418/379 366/420/379
f 344/395/380 343/393/380 358/419/380 359/421/380
f 352/396/381 351/394/381 366/420/381 367/422/381
f 345/397/382 344/395/382 359/421/382 360/423/382
f 353/398/383 352/396/383 367/422/383 368/410/383
f 346/399/384 345/397/384 360/423/384 361/411/384
f 358/424/385 357/425/385 372/426/385 373/427/385
f 366/428/386 365/429/386 380/430/386 381/431/386
f 359/432/387 358/424/387 373/427/387 374/433/387
f 367/434/388 366/428/388 381/431/388 382/435/388
f 360/436/389 359/432/389 374/433/389 375/437/389
f 368/438/390 367/434/390 382/435/390 383/439/390
f 361/440/391 360/436/391 375/437/391 376/441/391
f 354/442/392 1/443/392 369/444/392
f 8/445/393 368/438/393 383/439/393
f 362/446/394 361/440/394 376/441/394 377/447/394
f 355/448/395 354/442/395 369/444/395 370/449/395
f 363/450/396 362/446/396 377/447/396 378/451/396
f 356/452/397 355/448/397 370/449/397 371/453/397
f 364/454/398 363/450/398 378/451/398 379/455/398
f 357/425/399 356/452/399 371/453/399 372/426/399
f 365/429/400 364/454/400 379/455/400 380/430/400
f 377/447/401 376/441/401 391/456/401 392/457/401
f 370/449/402 369/444/402 384/458/402 385/459/402
f 378/451/403 377/447/403 392/457/403 393/460/403
f 371/453/404 370/449/404 385/459/404 386/461/404
f 379/455/405 378/451/405 393/460/405 394/462/405
f 372/426/406 371/453/406 386/461/406 387/463/406
f 380/430/407 379/455/407 394/462/407 395/464/407
f 373/427/408 372/426/408 387/463/408 388/465/408
f 381/431/409 380/430/409 395/464/409 396/466/409
f 374/433/410 373/427/410 388/465/410 389/467/410
f 382/435/411 381/431/411 396/466/411 397/468/411
f 375/437/412 374/433/412 389/467/412 390/469/412
f 383/439/413 382/435/413 397/468/413 398/470/413
f 376/441/414 375/437/414 390/469/414 391/456/414
f 369/444/415 1/471/415 384/458/415
f 8/472/416 383/439/416 398/470/416
f 396/466/417 395/464/417 410/473/417 411/474/417
f 389/467/418 388/465/418 403/475/418 404/476/418
f 397/468/419 396/466/419 411/474/419 412/477/419
f 390/469/420 389/467/420 404/476/420 405/478/420
f 398/470/421 397/468/421 412/477/421 413/479/421
f 391/456/422 390/469/422 405/478/422 406/480/422
f 384/458/423 1/481/423 399/482/423
f 8/483/424 398/470/424 413/479/424
f 392/457/425 391/456/425 406/480/425 407/484/425
f 385/459/426 384/458/426 399/482/426 400/485/426
f 393/460/427 392/457/427 407/484/427 408/486/427
f 386/461/428 385/459/428 400/485/428 401/487/428
f 394/462/429 393/460/429 408/486/429 409/488/429
f 387/463/430 386/461/430 401/487/430 402/489/430
f 395/464/431 394/462/431 409/488/431 410/473/431
f 388/465/432 387/463/432 402/489/432 403/475/432
f 400/485/433 399/482/433 414/490/433 415/491/433
f 408/486/434 407/484/434 422/492/434 423/493/434
f 401/487/435 400/485/435 415/491/435 416/494/435
f 409/488/436 408/486/436 423/493/436 424/495/436
f 402/489/437 401/487/437 416/494/437 417/496/437
f 410/473/438 409/488/438 424/495/438 425/497/438
f 403/475/439 402/489/439 417/496/439 418/498/439
f 411/474/440 410/473/440 425/497/440 426/499/440
f 404/476/441 403/475/441 418/498/441 419/500/441
f 412/477/442 411/474/442 426/499/442 427/501/442
f 405/478/443 404/476/443 419/500/443 420/502/443
f 413/479/444 412/477/444 427/501/444 428/503/444
f 406/480/445 405/478/445 420/502/445 421/504/445
f 399/482/446 1/505/446 414/490/446
f 8/506/447 413/479/447 428/503/447
f 407/484/448 406/480/448 421/504/448 422/492/448
f 419/500/449 418/498/449 433/507/449 434/508/449
f 427/501/450 426/499/450 441/509/450 442/510/450
f 420/502/451 419/500/451 434/508/451 435/511/451
f 428/503/452 427/501/452 442/510/452 443/512/452
f 421/504/453 420/502/453 435/511/453 436/513/453
f 414/490/454 1/514/454 429/515/454
f 8/516/455 428/503/455 443/512/455
f 422/492/456 421/504/456 436/513/456 437/517/456
f 415/491/457 414/490/457 429/515/457 430/518/457
f 423/493/458 422/492/458 437/517/458 438/519/458
f 416/494/459 415/491/459 430/518/459 431/520/459
f 424/495/460 423/493/460 438/519/460 439/521/460
f 417/496/461 416/494/461 431/520/461 432/522/461
f 425/497/462 424/495/462 439/521/462 440/523/462
f 418/498/463 417/496/463 432/522/463 433/507/463
f 426/499/464 425/497/464 440/523/464 441/509/464
f 438/519/465 437/517/465 452/524/465 453/525/465
f 431/520/466 430/518/466 445/526/466 446/527/466
f 439/521/467 438/519/467 453/525/467 454/528/467
f 432/522/468 431/520/468 446/527/468 447/529/468
f 440/523/469 439/521/469 454/528/469 455/530/469
f 433/507/470 432/522/470 447/529/470 448/531/470
f 441/509/471 440/523/471 455/530/471 456/532/471
f 434/508/472 433/507/472 448/531/472 449/533/472
f 442/510/473 441/509/473 456/532/473 457/534/473
f 435/511/474 434/508/474 449/533/474 450/535/474
f 443/512/475 442/510/475 457/534/475 458/536/475
f 436/513/476 435/511/476 450/535/476 451/537/476
f 429/515/477 1/538/477 444/539/477
f 8/540/478 443/512/478 458/536/478
f 437/517/479 436/513/479 451/537/479 452/524/479
f 430/518/480 429/515/480 444/539/480 445/526/480
f 457/534/481 456/532/481 471/541/481 472/542/481
f 450/535/482 449/533/482 464/543/482 465/544/482
f 458/536/483 457/534/483 472/542/483 473/545/483
f 451/537/484 450/535/484 465/544/484 466/546/484
f 444/539/485 1/547/485 459/548/485
f 8/549/486 458/536/486 473/545/486
f 452/524/487 451/537/487 466/546/487 467/550/487
f 445/526/488 444/539/488 459/548/488 460/551/488
f 453/525/489 452/524/489 467/550/489 468/552/489
f 446/527/490 445/526/490 460/551/490 461/553/490
f 454/528/491 453/525/491 468/552/491 469/554/491
f 447/529/492 446/527/492 461/553/492 462/555/492
f 455/530/493 454/528/493 469/554/493 470/556/493
f 448/531/494 447/529/494 462/555/494 463/557/494
f 456/532/495 455/530/495 470/556/495 471/541/495
f 449/533/496 448/531/496 463/557/496 464/543/496
f 469/554/497 468/552/497 478/6/497 7/5/497
f 462/555/498 461/553/498 2/1/498 476/9/498
f 470/556/499 469/554/499 7/5/499 479/11/499
f 463/557/500 462/555/500 476/9/500 3/13/500
f 471/541/501 470/556/501 479/11/501 480/15/501
f 464/543/502 463/557/502 3/13/502 477/17/502
f 472/542/503 471/541/503 480/15/503 481/19/503
f 465/544/504 464/543/504 477/17/504 4/21/504
f 473/545/505 472/542/505 481/19/505 482/23/505
f 466/546/506 465/544/506 4/21/506 5/25/506
f 459/548/507 1/558/507 474/27/507
f 8/559/508 473/545/508 482/23/508
f 467/550/509 466/546/509 5/25/509 6/31/509
f 460/551/510 459/548/510 474/27/510 475/2/510
f 468/552/511 467/550/511 6/31/511 478/6/511
f 461/553/512 460/551/512 475/2/512 2/1/512
