# Blender 5.1.2
# www.blender.org
mtllib Hands.mtl
o armmesh
v 2.903920 -0.505262 -0.339535
v 2.696493 -0.211093 -0.054072
v 2.509771 -0.009862 0.345904
v 2.595984 0.477708 0.368576
v 2.810576 0.341735 0.198661
v 3.054952 0.342636 0.403331
v 3.055501 0.527537 0.642548
v 3.443933 0.481621 0.816033
v 3.868083 0.256082 0.886567
v 4.177476 -0.069514 0.891668
v 4.465988 -0.454671 0.768491
v 4.285151 -0.956132 -0.579050
v 3.880941 -0.754284 -0.658650
v 3.519685 -0.665937 -0.719956
v 3.114488 -0.647062 -0.879245
v 4.426133 -0.524126 0.487939
v 3.978317 0.581309 0.303485
v 3.247979 0.386492 -0.530792
v 4.348337 -0.693569 0.060746
v 4.023269 0.312796 -0.260399
v 2.956376 0.732039 1.132404
v 3.267148 0.702247 1.224129
v 3.485439 0.552760 1.090076
v 3.754677 0.374441 1.145153
v 4.122216 0.013918 1.100574
v 3.856483 0.221370 1.111360
v 4.166714 -0.203388 0.944289
v 4.394444 -0.441643 0.880739
v 2.077688 0.290775 0.771803
v 2.122358 0.570972 0.759379
v 4.269913 -0.558808 0.901868
v 4.067172 -0.332733 0.993483
v 2.864094 0.706122 1.509760
v 3.191171 0.668959 1.584511
v 3.328484 0.312559 1.375561
v 3.581039 0.156094 1.435411
v 3.705839 0.012506 1.157814
v 3.959027 -0.169253 1.161051
v 2.820158 0.712088 1.893352
v 3.011733 0.675470 1.952886
v 3.175679 -0.030965 1.589194
v 3.364220 -0.122289 1.616984
v 3.512980 -0.317580 1.136719
v 3.672106 -0.429974 1.135751
v 4.042475 -0.731445 0.861038
v 3.894054 -0.581729 0.933320
v 2.898343 0.083686 -0.767341
v 2.568068 0.222542 -0.463902
v 2.196153 0.146071 0.035083
v 2.272860 0.515084 0.058348
v 2.756957 0.599473 -0.230372
v 3.152938 0.792015 0.188614
v 3.170361 0.872396 0.456478
v 3.592083 0.860892 0.601162
v 4.099086 0.683023 0.720310
v 4.464388 0.309399 0.683231
v 4.755391 -0.034475 0.667324
v 4.662694 -0.367562 -0.623159
v 4.242408 -0.048787 -0.781556
v 3.561149 0.081484 -1.003430
v 3.229290 -0.067585 -1.089530
v 4.736968 -0.085748 0.302321
v 3.856730 0.001775 0.566860
v 3.183784 -0.197425 -0.176075
v 4.688625 -0.174760 -0.116990
v 3.836374 -0.436428 -0.046270
v 3.047251 1.097104 1.109289
v 3.360115 1.052440 1.206657
v 3.589060 0.847946 1.283068
v 3.888374 0.719445 1.304756
v 4.250313 0.179618 1.368812
v 3.967325 0.367897 1.365889
v 4.386171 0.007242 1.147135
v 4.629421 -0.246774 1.106488
v 1.862642 0.318168 0.677904
v 1.912251 0.574991 0.635836
v 4.349797 -0.544349 1.226945
v 4.116715 -0.329877 1.268774
v 2.914453 1.061807 1.591011
v 3.239737 1.002578 1.666179
v 3.315987 0.520978 1.653496
v 3.629928 0.343667 1.726224
v 3.697242 0.025847 1.488110
v 3.939980 -0.139563 1.495348
v 2.827928 0.972160 2.005100
v 3.070095 0.917714 2.056593
v 3.146671 0.065543 1.884391
v 3.379869 -0.012276 1.908266
v 3.436684 -0.358687 1.382758
v 3.624156 -0.492794 1.380894
v 4.004581 -0.817978 1.130198
v 3.849921 -0.653209 1.172445
v 3.451779 0.035336 0.126419
v 3.615321 -0.203845 -0.126369
v 2.986480 0.085457 0.051089
v 2.174258 0.530254 0.282210
v 2.447421 0.522611 0.524856
v 2.394972 0.138596 0.559418
v 2.124347 0.190523 0.296508
v 3.081838 -0.332943 -1.007597
v 2.793402 -0.263572 -0.648557
v 2.508690 -0.084086 -0.297091
v 2.286764 -0.019700 0.161498
v 2.248335 0.107182 0.446013
v 1.947176 0.270020 0.752777
v 2.016677 0.659588 0.715801
v 2.311481 0.618610 0.386917
v 2.439887 0.587626 0.231399
v 2.743472 0.489520 0.090480
v 2.969181 0.564992 0.342151
v 3.011935 0.695223 0.542139
v 2.928897 0.913220 1.097249
v 2.804239 0.898140 1.529907
v 2.765881 0.872930 1.941460
v 3.076054 0.815985 2.032846
v 3.251438 0.850025 1.632156
v 3.365123 0.866657 1.225905
v 3.484519 0.699808 0.796631
v 3.470838 0.712525 1.185417
v 3.259277 0.438497 1.523960
v 3.111296 0.007006 1.741238
v 3.419790 -0.117291 1.770536
v 3.661595 0.202760 1.579674
v 3.872331 0.491230 1.271371
v 3.976866 0.448749 0.909980
v 3.876132 0.291734 1.227338
v 3.649259 0.049944 1.309278
v 3.423448 -0.325613 1.260830
v 3.665046 -0.527852 1.258658
v 4.016832 -0.196864 1.341476
v 4.229710 0.045684 1.221774
v 4.321311 0.080074 0.886019
v 4.238495 -0.101650 1.075913
v 4.053503 -0.338395 1.136454
v 3.846701 -0.604167 1.007843
v 4.038477 -0.819468 0.950186
v 4.349703 -0.597270 1.035386
v 4.528194 -0.404477 0.994981
v 4.585479 -0.399266 0.715788
v 4.606901 -0.440951 0.346224
v 4.537120 -0.572944 -0.005006
v 4.564873 -0.732712 -0.588315
v 3.362686 0.547178 0.866486
v 3.054753 0.549945 0.735734
v 2.998126 0.742723 0.637872
v 3.146305 0.932881 0.601339
v 3.512933 0.921087 0.715739
v 3.476023 0.723041 0.815516
v 3.828648 0.360895 0.929180
v 3.975141 0.476841 0.938180
v 4.027340 0.743603 0.837049
v 3.670501 0.880414 0.767936
v 3.518720 0.750879 0.841417
v 3.495977 0.515424 0.865098
v 4.172949 0.023540 0.952661
v 3.911557 0.282122 0.951873
v 3.988767 0.430487 0.952235
v 4.154592 0.591231 0.966823
v 4.417004 0.351311 0.926324
v 4.339632 0.108228 0.940707
v 4.481332 -0.434430 0.761168
v 4.584461 -0.394941 0.765967
v 4.743098 -0.127589 0.883332
v 4.477002 0.166493 0.903084
v 4.289786 0.028388 0.914942
v 4.201355 -0.123864 0.896163
v 2.701406 0.382273 0.176025
v 2.603330 0.488409 0.072197
v 2.514819 0.508935 -0.189738
v 2.398728 0.196544 -0.282741
v 2.405525 -0.048412 -0.112154
v 2.612101 -0.119598 0.097457
v 2.406969 0.549903 0.239458
v 2.522681 0.476610 0.361942
v 2.470833 0.064802 0.328081
v 2.336293 0.059405 0.213923
v 2.226607 0.138275 0.090274
v 2.289218 0.505255 0.111314
v 3.317454 0.665315 1.224065
v 3.401024 0.865902 1.207395
v 3.410836 1.039768 1.125528
v 3.037036 1.098779 1.040566
v 2.894573 0.913812 1.068578
v 2.932220 0.706458 1.125991
v 3.276970 0.854027 1.556128
v 3.190029 0.669235 1.504171
v 2.896069 0.700309 1.422807
v 2.830962 0.904438 1.461270
v 2.931942 1.074584 1.497943
v 3.263422 1.025034 1.567673
v 3.599207 0.184798 1.379494
v 3.369058 0.343897 1.319108
v 3.324945 0.516692 1.452568
v 3.415015 0.635092 1.579645
v 3.721976 0.491640 1.636335
v 3.710122 0.284879 1.526663
v 3.899062 0.494770 1.280822
v 3.758424 0.371935 1.142724
v 3.456059 0.548037 1.079027
v 3.447881 0.747751 1.182297
v 3.585199 0.902611 1.242894
v 3.930363 0.750290 1.261358
v 4.112449 -0.022306 1.101340
v 4.290089 0.053768 1.212292
v 4.327201 0.220147 1.359975
v 4.010990 0.454445 1.355254
v 3.875287 0.347608 1.228554
v 3.828958 0.217092 1.111286
v 3.995722 -0.136699 1.149162
v 4.042388 -0.143564 1.334231
v 4.014253 -0.048136 1.498989
v 3.762970 0.124455 1.503373
v 3.707389 0.114073 1.318240
v 3.760098 0.043577 1.151618
v 4.300047 -0.534201 0.914113
v 4.379338 -0.549120 1.061086
v 4.440913 -0.441200 1.218199
v 4.207791 -0.230117 1.238921
v 4.107605 -0.268539 1.133246
v 4.074292 -0.322964 0.981448
v 4.541351 -0.415116 0.981210
v 4.388003 -0.472420 0.893923
v 4.144434 -0.176394 0.962231
v 4.243484 -0.045672 1.090521
v 4.420269 0.087532 1.124075
v 4.691054 -0.189510 1.096556
v 2.966310 0.288445 0.310444
v 2.989577 0.660264 -0.069292
v 2.887377 0.518616 0.198858
v 3.140661 0.931757 1.927080
v 2.857717 0.992048 1.870596
v 2.770866 0.890691 1.826370
v 2.805208 0.678877 1.762270
v 3.078269 0.632132 1.858366
v 3.150768 0.810381 1.933586
v 3.445588 0.060487 1.873626
v 3.493548 -0.048851 1.726716
v 3.430571 -0.093512 1.556819
v 3.193080 0.031840 1.514475
v 3.120181 0.132523 1.693820
v 3.172064 0.171622 1.819519
v 3.478436 -0.284874 1.405339
v 3.455845 -0.227381 1.259928
v 3.539566 -0.231419 1.106061
v 3.755483 -0.389036 1.121110
v 3.762605 -0.485597 1.286392
v 3.689775 -0.426548 1.389722
v 3.936957 -0.563973 1.206494
v 4.126056 -0.768279 1.161901
v 4.167763 -0.753631 0.965966
v 4.173201 -0.647519 0.867393
v 3.984146 -0.434010 0.943104
v 3.920178 -0.484747 1.048209
v 2.034050 0.549461 0.491162
v 1.994551 0.259702 0.527080
v 2.086098 0.181141 0.616124
v 2.213587 0.215880 0.703712
v 2.258240 0.569551 0.676662
v 2.126181 0.655679 0.604905
v 3.623443 0.385172 -0.398625
v 3.598506 0.732365 0.204296
v 4.353639 0.145911 -0.213096
v 4.434275 0.237197 0.303379
v 4.424067 -0.518683 0.430665
v 3.882139 -0.023074 0.449623
v 3.436093 -0.164174 -0.122919
v 3.244354 0.110477 0.076990
v 3.690885 -0.658219 -0.703820
v 5.890323 -2.986462 -5.012554
v 5.259343 -3.116189 -5.140814
v 4.546070 -2.994047 -5.411703
v 4.187227 -2.659397 -5.636185
v 6.293421 -1.765007 -5.307283
v 5.799516 -1.338548 -5.585940
v 4.995525 -1.112766 -5.908937
v 4.213453 -1.464012 -6.009782
v 3.946679 -2.071001 -5.899904
v 6.305595 -2.498493 -5.054303
v 3.231451 -0.768254 -1.074686
v 3.521084 -0.825296 -1.006815
v 4.282622 -1.037839 -0.732479
v 3.941533 -0.891807 -0.882695
v 4.612810 -0.757466 -0.744676
v 4.668564 -0.469840 -0.890404
v 4.277374 -0.196529 -1.104607
v 3.651782 -0.092818 -1.302834
v 3.308055 -0.208272 -1.368917
v 3.162924 -0.457198 -1.272917
v 4.792625 -0.437560 -0.851635
v 4.732655 -0.829362 -0.668898
v 4.350754 -1.152189 -0.673373
v 3.900124 -1.070811 -0.840935
v 3.434511 -0.980656 -0.981175
v 3.081760 -0.828102 -1.132117
v 3.032166 -0.421602 -1.312826
v 3.242432 -0.131088 -1.435330
v 3.653784 0.002607 -1.338687
v 4.321396 -0.108855 -1.115895
v 4.963290 -0.801647 -1.859778
v 4.987345 -1.221688 -1.698112
v 4.586752 -1.479911 -1.733192
v 4.185835 -1.475461 -1.846656
v 3.727771 -1.377557 -2.011428
v 3.410507 -1.132829 -2.159765
v 3.379208 -0.815126 -2.282982
v 3.587117 -0.517464 -2.346743
v 3.956583 -0.404667 -2.263410
v 4.578075 -0.501687 -2.053183
v 3.722459 -0.670870 -3.166312
v 4.163461 -0.508324 -3.059372
v 4.888588 -0.630197 -2.798165
v 5.293683 -0.996431 -2.592063
v 5.340806 -1.514532 -2.424157
v 4.904072 -1.858752 -2.454546
v 4.407556 -1.873471 -2.572951
v 3.874156 -1.740417 -2.780713
v 3.507438 -1.444086 -2.984436
v 3.468780 -1.050111 -3.116341
v -3.444982 0.146748 0.518324
v -3.448739 0.544526 0.781452
v -3.513085 0.953892 1.158690
v -3.549894 1.388190 0.941395
v -3.624483 1.169332 0.723634
v -3.732566 1.364964 0.581324
v -3.771152 1.674256 0.640137
v -4.206634 1.708754 0.652495
v -4.656572 1.549525 0.653035
v -4.991804 1.279974 0.715307
v -5.255985 0.850994 0.741024
v -4.623107 -0.440293 0.027442
v -4.189517 -0.287349 0.018829
v -3.848282 -0.184348 0.021779
v -3.376410 -0.226415 0.011138
v -5.121882 0.600192 0.578243
v -4.486599 1.425074 -0.005567
v -3.565124 0.895864 -0.177904
v -4.910000 0.170834 0.355449
v -4.354699 0.868120 -0.254475
v -3.858323 2.314580 0.857913
v -4.179925 2.279253 0.822155
v -4.388747 2.147829 0.790320
v -4.673014 2.053240 0.917308
v -5.068402 1.761616 0.814387
v -4.870790 1.973526 0.645430
v -5.183173 1.484211 0.738204
v -5.309592 1.261400 0.951938
v -3.250436 1.474131 1.575776
v -3.242424 1.706000 1.412019
v -5.390679 1.490318 1.075499
v -5.253018 1.622514 0.825352
v -3.944480 2.670673 1.024946
v -4.273566 2.605334 0.987332
v -4.453500 2.501563 1.009138
v -4.722823 2.421578 1.121612
v -4.897728 2.176186 0.833062
v -5.088411 1.984251 0.987087
v -4.070958 3.011455 1.158665
v -4.272361 2.979615 1.155596
v -4.506297 2.789566 1.326780
v -4.693644 2.714639 1.389494
v -4.897883 2.382735 1.152024
v -5.014044 2.260902 1.250031
v -5.352204 1.750717 1.203920
v -5.261339 1.849220 1.026525
v -3.201585 0.553760 -0.042516
v -3.100033 0.870427 0.334866
v -3.085715 0.986952 1.001410
v -3.122639 1.322138 0.808798
v -3.359791 1.281116 0.291468
v -3.651754 1.620019 0.138920
v -3.749304 1.831491 0.268893
v -4.206313 1.860352 0.194706
v -4.753167 1.684021 0.153434
v -5.121442 1.343163 0.205907
v -5.425132 1.035655 0.274575
v -4.899688 0.021113 -0.395652
v -4.422718 0.257898 -0.503281
v -3.712444 0.341378 -0.463426
v -3.397152 0.217490 -0.342281
v -5.272100 0.801081 0.059823
v -4.559062 1.126577 0.562996
v -3.776866 0.454761 0.442827
v -5.083636 0.479594 -0.167040
v -4.358687 0.353408 0.348011
v -3.883673 2.440576 0.498307
v -4.211344 2.399746 0.478925
v -4.529078 2.281593 0.473424
v -4.816388 2.155591 0.550344
v -5.323864 1.820262 0.566289
v -5.107536 2.036219 0.423518
v -5.416667 1.454721 0.477394
v -5.584203 1.210626 0.652665
v -3.014579 1.460692 1.573282
v -3.003828 1.657271 1.395504
v -5.653207 1.505460 0.885271
v -5.503850 1.689616 0.669324
v -3.979018 2.873640 0.719402
v -4.309427 2.799348 0.702682
v -4.552959 2.727922 0.762634
v -4.883930 2.626601 0.887179
v -5.154888 2.345121 0.704422
v -5.337335 2.162258 0.844527
v -4.092959 3.212755 0.960700
v -4.338295 3.149107 0.956265
v -4.622061 3.044396 1.188812
v -4.841617 2.940612 1.233827
v -5.070378 2.572875 1.105170
v -5.206954 2.429165 1.222767
v -5.577188 1.895866 1.102689
v -5.454495 1.986208 0.929870
v -4.052330 0.869740 0.414606
v -4.107063 0.490502 0.281204
v -3.739367 0.821797 0.633765
v -3.120802 1.426341 1.036473
v -3.461783 1.528013 1.124347
v -3.488843 1.215987 1.354155
v -3.137765 1.143156 1.233095
v -3.295863 0.035471 -0.161595
v -3.207129 0.311128 0.240873
v -3.162529 0.623227 0.634172
v -3.236620 0.887775 1.131593
v -3.321334 1.140202 1.338996
v -3.127045 1.453309 1.622061
v -3.115220 1.765398 1.375776
v -3.269606 1.548572 1.022513
v -3.336126 1.450980 0.855894
v -3.489628 1.289867 0.599233
v -3.596442 1.526903 0.461310
v -3.653564 1.755153 0.502468
v -3.795546 2.380800 0.691899
v -3.875127 2.790136 0.877683
v -4.022749 3.138747 1.046451
v -4.346364 3.083973 1.037746
v -4.324738 2.701736 0.823803
v -4.247106 2.324337 0.646881
v -4.207427 1.865309 0.481178
v -4.399798 2.243252 0.628889
v -4.452985 2.658181 0.870692
v -4.527316 2.948938 1.273076
v -4.820526 2.811178 1.353778
v -4.858583 2.498090 1.044921
v -4.816974 2.097630 0.773357
v -4.768989 1.699488 0.422449
v -4.958875 2.025344 0.545410
v -4.977008 2.294228 0.750527
v -4.955065 2.521000 1.119009
v -5.141268 2.340139 1.297477
v -5.270431 2.024799 0.946498
v -5.224171 1.750212 0.736861
v -5.094360 1.369213 0.572014
v -5.290363 1.483481 0.598667
v -5.362214 1.690294 0.746116
v -5.306349 1.921884 0.992440
v -5.460807 1.812619 1.217522
v -5.539942 1.466615 1.032013
v -5.458178 1.182436 0.844159
v -5.342235 0.833466 0.609119
v -5.222377 0.556366 0.339958
v -5.038779 0.213862 0.179512
v -4.854311 -0.286833 -0.162015
v -4.135283 1.827846 0.696291
v -3.803393 1.791574 0.719300
v -3.688323 1.877805 0.542610
v -3.786892 1.960112 0.327602
v -4.170374 1.957596 0.278615
v -4.198020 1.888524 0.500600
v -4.611849 1.669961 0.699218
v -4.740437 1.708327 0.544297
v -4.725285 1.802455 0.267453
v -4.367217 1.922861 0.249521
v -4.255108 1.895579 0.486849
v -4.274026 1.790592 0.671340
v -4.979772 1.473296 0.737645
v -4.748028 1.688773 0.579284
v -4.806849 1.719467 0.403509
v -4.945067 1.708589 0.218684
v -5.155007 1.470283 0.348205
v -5.103161 1.419481 0.608709
v -5.249303 0.921474 0.763060
v -5.341902 0.904354 0.676771
v -5.530848 1.087266 0.456202
v -5.297349 1.367837 0.332541
v -5.148443 1.362365 0.519102
v -5.074260 1.297599 0.672785
v -3.544354 1.205940 0.771520
v -3.405507 1.283176 0.677873
v -3.218429 1.214080 0.499171
v -3.079744 0.901895 0.618257
v -3.175988 0.738160 0.849621
v -3.464022 0.720152 0.944021
v -3.309245 1.416017 0.905112
v -3.474986 1.402594 0.986373
v -3.478344 1.026523 1.157908
v -3.318717 0.974333 1.134218
v -3.156646 0.989745 1.046218
v -3.161798 1.318982 0.862959
v -4.227116 2.221761 0.845610
v -4.269825 2.288378 0.641300
v -4.226053 2.334747 0.459725
v -3.845260 2.397174 0.487104
v -3.749319 2.347934 0.704446
v -3.833513 2.270371 0.893618
v -4.313582 2.629158 0.791287
v -4.236963 2.533280 0.965774
v -3.934901 2.576138 0.998925
v -3.867543 2.722177 0.847610
v -3.951644 2.792984 0.681114
v -4.284135 2.717237 0.651658
v -4.700234 2.351374 1.102481
v -4.448773 2.419277 0.986816
v -4.453077 2.554735 0.804932
v -4.574034 2.614808 0.670303
v -4.883893 2.504372 0.770390
v -4.852596 2.414967 0.973984
v -4.837852 2.069848 0.769549
v -4.665516 1.993916 0.916862
v -4.349944 2.107290 0.817532
v -4.362474 2.240881 0.637835
v -4.493145 2.286489 0.460911
v -4.827538 2.137141 0.522129
v -5.053185 1.728579 0.868305
v -5.246182 1.682973 0.737870
v -5.358787 1.776946 0.544211
v -5.104613 2.019346 0.375364
v -4.931553 2.020195 0.531895
v -4.829698 1.959172 0.691701
v -5.080783 1.932795 0.963646
v -5.259175 1.989353 0.902022
v -5.350128 2.099023 0.767002
v -5.166893 2.293999 0.622067
v -4.987124 2.238778 0.698746
v -4.901650 2.113145 0.813752
v -5.376484 1.428466 1.058168
v -5.509163 1.395111 0.987581
v -5.628305 1.403888 0.823488
v -5.469373 1.594889 0.639441
v -5.352698 1.639585 0.716233
v -5.233790 1.612083 0.825075
v -5.436785 1.110038 0.821643
v -5.292392 1.202259 0.974067
v -5.137622 1.460406 0.757903
v -5.266295 1.491954 0.597544
v -5.405940 1.487260 0.452142
v -5.619050 1.207692 0.596930
v -3.704502 1.232243 0.651924
v -3.494809 1.390686 0.152795
v -3.541010 1.397957 0.490785
v -4.343297 3.022132 0.880379
v -4.058658 3.098111 0.889864
v -3.974972 3.047835 0.991372
v -4.005040 2.892412 1.149398
v -4.296297 2.858860 1.143790
v -4.370679 2.972449 0.988392
v -4.864207 2.871447 1.160534
v -4.845457 2.729790 1.285129
v -4.710884 2.626001 1.363808
v -4.468965 2.713434 1.276347
v -4.486262 2.896711 1.156776
v -4.588981 2.970026 1.092479
v -5.082972 2.537261 1.029662
v -4.935798 2.478173 1.029670
v -4.856639 2.331977 1.083208
v -5.028647 2.174485 1.214773
v -5.195586 2.261656 1.246407
v -5.222929 2.366813 1.157563
v -5.475590 1.888100 0.860553
v -5.626925 1.772561 1.071710
v -5.495406 1.675106 1.174966
v -5.371327 1.602928 1.152571
v -5.232749 1.717287 0.920252
v -5.308668 1.825821 0.888142
v -3.067357 1.555577 1.246804
v -3.091406 1.326927 1.432037
v -3.220384 1.300118 1.503416
v -3.362534 1.367857 1.504999
v -3.337058 1.655647 1.294482
v -3.175446 1.700074 1.247439
v -3.932647 0.902849 -0.245132
v -4.088596 1.536089 0.005408
v -4.695788 0.729813 -0.274400
v -4.952241 1.096215 0.001444
v -5.099699 0.538459 0.511083
v -4.548539 1.005558 0.473840
v -4.006830 0.517011 0.351971
v -3.940794 0.851519 0.507912
v -3.979183 -0.226488 0.002264
v -5.223053 -2.446627 -4.744194
v -4.570115 -2.482363 -4.794491
v -3.855215 -2.234597 -4.956048
v -3.523601 -1.829311 -5.094649
v -5.756293 -1.259886 -4.949795
v -5.295551 -0.752568 -5.104195
v -4.500485 -0.385188 -5.291159
v -3.671939 -0.616296 -5.326770
v -3.338709 -1.188748 -5.254392
v -5.694487 -2.016610 -4.783163
v -3.431756 -0.401245 -0.167797
v -3.730597 -0.465653 -0.165526
v -4.525923 -0.667852 -0.079805
v -4.158196 -0.543773 -0.152877
v -4.826010 -0.457352 -0.246529
v -4.830279 -0.246655 -0.457074
v -4.393655 -0.019625 -0.601319
v -3.753400 0.093509 -0.614221
v -3.420368 0.018944 -0.545748
v -3.314040 -0.158267 -0.378114
v -4.962499 -0.280241 -0.362113
v -4.927125 -0.614000 -0.151038
v -4.548144 -0.864608 -0.047655
v -4.086692 -0.750550 -0.112291
v -3.615342 -0.624954 -0.151032
v -3.252334 -0.455956 -0.229112
v -3.186275 -0.092429 -0.411378
v -3.374744 0.135996 -0.585906
v -3.790278 0.214032 -0.599057
v -4.469360 0.052029 -0.530838
v -4.954545 -0.654861 -1.260782
v -4.965679 -1.058079 -1.121740
v -4.548553 -1.250935 -1.093585
v -4.142380 -1.193401 -1.133727
v -3.681229 -1.037677 -1.213029
v -3.373115 -0.759662 -1.298151
v -3.353880 -0.448950 -1.402349
v -3.570984 -0.197443 -1.484769
v -3.951087 -0.142366 -1.464566
v -4.577688 -0.317919 -1.372485
v -3.612751 -0.189031 -2.355208
v -4.077751 -0.100463 -2.297786
v -4.804964 -0.337965 -2.157084
v -5.181634 -0.765344 -2.046657
v -5.183892 -1.290755 -1.936756
v -4.708553 -1.567078 -1.935382
v -4.205468 -1.506282 -1.982135
v -3.674030 -1.287086 -2.098495
v -3.327394 -0.929885 -2.220222
v -3.322782 -0.530197 -2.305394
vn -0.2659 0.9038 -0.3352
vn 0.2893 0.9406 -0.1776
vn -0.3257 0.9031 -0.2797
vn 0.8787 0.4359 -0.1945
vn 0.4450 0.8121 -0.3774
vn 0.6003 0.7391 -0.3057
vn 0.3672 0.8385 -0.4026
vn 0.0300 0.8562 -0.5159
vn 0.2768 0.8497 -0.4488
vn 0.4825 0.8148 -0.3212
vn 0.2570 0.8796 -0.4004
vn -0.7857 0.5936 -0.1742
vn -0.2951 0.8551 -0.4262
vn -0.7985 -0.0638 -0.5986
vn 0.9962 -0.0696 0.0521
vn 0.9739 0.1892 -0.1253
vn 0.7472 0.6626 0.0510
vn 0.6479 0.7525 0.1180
vn -0.5166 0.4317 -0.7395
vn -0.5990 0.3113 -0.7378
vn -0.0540 0.8140 -0.5783
vn 0.6652 0.7166 -0.2096
vn 0.9727 0.2021 -0.1142
vn -0.3972 0.9171 -0.0329
vn 0.8017 0.5892 0.1008
vn 0.5948 0.5658 0.5711
vn 0.8289 0.5510 0.0965
vn -0.1526 0.9859 -0.0692
vn 0.9742 0.1493 0.1691
vn 0.7882 -0.0986 0.6075
vn 0.9699 0.0738 0.2321
vn 0.1424 0.8504 0.5065
vn -0.1951 0.9537 -0.2288
vn 0.3997 -0.3751 0.8364
vn 0.6089 -0.3063 0.7317
vn -0.3170 0.5257 0.7894
vn -0.7508 0.6597 0.0334
vn -0.9937 -0.0809 0.0778
vn 0.7617 0.5799 0.2890
vn 0.5674 0.7943 0.2168
vn -0.3796 0.9181 0.1139
vn 0.7035 0.1889 0.6851
vn 0.6195 0.4040 0.6731
vn -0.2592 0.7029 0.6624
vn 0.2529 -0.3806 0.8895
vn 0.5165 -0.1536 0.8424
vn -0.4843 0.5251 0.6997
vn 0.3722 0.6275 0.6840
vn 0.6296 0.6263 0.4596
vn -0.4455 0.8910 0.0873
vn 0.5496 -0.0182 0.8352
vn 0.4396 0.2029 0.8750
vn -0.4746 0.6571 0.5856
vn -0.0329 -0.6002 0.7991
vn 0.1780 -0.4857 0.8558
vn -0.6485 0.2201 0.7287
vn 0.3215 -0.7291 0.6042
vn -0.2996 0.2086 0.9310
vn -0.7816 -0.5325 0.3249
vn -0.5158 -0.7303 0.4478
vn -0.4167 -0.5731 0.7056
vn 0.0608 -0.9165 0.3955
vn -0.5837 -0.7055 0.4020
vn 0.1662 -0.9027 0.3968
vn -0.4634 -0.7529 0.4674
vn -0.5231 -0.7605 0.3847
vn -0.3828 -0.7633 0.5204
vn -0.1277 -0.7260 0.6757
vn 0.2628 0.3840 0.8851
vn 0.1663 -0.4264 0.8891
vn 0.4698 0.4976 0.7292
vn -0.1033 -0.6703 0.7348
vn -0.5770 -0.4398 0.6882
vn -0.1225 -0.9765 0.1773
vn -0.5336 -0.5115 0.6735
vn -0.5844 -0.7529 0.3027
vn -0.4490 -0.8677 0.2131
vn 0.0958 -0.6419 0.7607
vn -0.1825 -0.8441 0.5042
vn -0.0063 -0.8571 0.5151
vn -0.5242 -0.7758 0.3511
vn -0.1732 -0.9479 0.2674
vn -0.2869 -0.7984 0.5294
vn -0.6575 -0.5091 0.5554
vn -0.7603 -0.6318 0.1507
vn -0.7196 -0.5130 0.4680
vn -0.8138 -0.3417 0.4701
vn 0.0699 -0.7787 0.6235
vn -0.9838 0.0773 0.1615
vn -0.9172 -0.3703 0.1470
vn -0.9635 0.0280 -0.2662
vn 0.3119 -0.7090 0.6325
vn -0.3384 -0.0656 0.9387
vn 0.1057 -0.7487 0.6544
vn 0.1545 -0.5417 0.8262
vn -0.7449 0.2985 -0.5966
vn -0.7902 0.2192 -0.5723
vn 0.4176 -0.3900 -0.8207
vn -0.1913 -0.4717 0.8607
vn -0.6919 -0.6776 -0.2492
vn -0.5285 -0.3727 0.7627
vn 0.2008 -0.6907 0.6947
vn -0.7213 -0.2297 -0.6534
vn -0.6816 -0.5852 0.4392
vn -0.2434 -0.9698 0.0167
vn -0.3945 0.3575 -0.8465
vn -0.4498 0.3375 -0.8269
vn 0.4045 -0.6311 -0.6619
vn -0.5003 -0.7410 0.4479
vn -0.6873 -0.7258 -0.0289
vn 0.4070 -0.8393 0.3605
vn -0.6707 -0.2455 -0.7000
vn -0.5715 -0.3496 -0.7424
vn 0.3865 -0.7183 -0.5784
vn -0.4557 -0.3277 -0.8276
vn -0.4577 0.1580 -0.8750
vn 0.3354 -0.5243 -0.7827
vn -0.5457 0.5757 -0.6089
vn 0.3472 0.0901 -0.9335
vn -0.9187 0.2045 0.3380
vn -0.9669 0.2301 -0.1103
vn -0.7224 -0.2429 0.6474
vn -0.8680 -0.4961 -0.0211
vn -0.4597 -0.8541 0.2435
vn 0.7574 -0.6342 0.1554
vn 0.8884 -0.4122 0.2021
vn -0.8408 0.3272 0.4313
vn -0.9487 0.1584 -0.2738
vn -0.0529 0.9515 0.3030
vn 0.0951 0.9533 0.2865
vn -0.6632 -0.7292 -0.1686
vn -0.7791 -0.5244 0.3434
vn 0.6392 -0.7553 0.1445
vn 0.7442 -0.6667 0.0418
vn -0.7678 -0.3507 -0.5361
vn -0.8727 -0.1385 -0.4681
vn -0.6312 0.7292 0.2641
vn -0.5468 0.7533 -0.3654
vn -0.6513 0.4167 0.6342
vn 0.9067 -0.2034 0.3696
vn 0.1660 0.1986 0.9659
vn -0.9289 0.2416 -0.2807
vn -0.3458 0.8521 -0.3929
vn 0.4871 -0.4367 0.7563
vn 0.8420 -0.3223 0.4326
vn -0.8331 0.5451 -0.0936
vn -0.9077 0.1338 0.3978
vn -0.2575 0.8396 0.4783
vn 0.7954 -0.6027 0.0641
vn 0.3485 -0.1105 0.9308
vn -0.2705 -0.0648 0.9606
vn -0.7433 0.6570 0.1258
vn 0.0256 0.9289 0.3694
vn 0.4012 -0.7847 0.4726
vn 0.6833 -0.7298 0.0217
vn -0.6502 0.6494 0.3944
vn -0.7253 0.2886 0.6250
vn -0.1538 0.5826 0.7981
vn 0.7665 -0.5994 -0.2306
vn 0.7950 -0.6037 -0.0593
vn -0.7621 0.6230 0.1761
vn -0.7738 0.6127 0.1608
vn 0.0606 0.9817 0.1804
vn -0.9474 -0.1626 0.2758
vn -0.4164 -0.5456 0.7273
vn -0.3318 0.7923 0.5120
vn -0.6361 -0.6673 0.3874
vn -0.9851 -0.1143 0.1286
vn 0.9462 -0.2353 0.2221
vn 0.8549 -0.0989 0.5093
vn -0.9390 0.2095 0.2729
vn -0.9281 0.2680 -0.2583
vn -0.4155 0.9096 -0.0049
vn 0.8493 -0.5165 0.1090
vn 0.5470 -0.5069 0.6661
vn -0.9614 0.1247 0.2451
vn -0.8526 0.4754 -0.2169
vn -0.3969 0.7663 0.5052
vn 0.7708 -0.6350 0.0508
vn 0.8287 -0.5308 0.1776
vn -0.7504 0.6508 -0.1152
vn -0.7801 0.6250 -0.0298
vn 0.3462 -0.3528 0.8693
vn 0.8873 -0.1585 0.4331
vn -0.4964 0.3863 0.7774
vn -0.8522 -0.0743 0.5179
vn -0.9803 0.1745 -0.0924
vn 0.7416 -0.6489 0.1703
vn 0.8759 -0.4448 0.1870
vn -0.7379 -0.1823 0.6498
vn -0.8260 -0.5631 0.0233
vn 0.2109 -0.8835 0.4182
vn -0.9029 0.3424 -0.2599
vn -0.9708 0.2376 -0.0327
vn -0.5143 0.5499 0.6581
vn -0.0432 -0.9870 -0.1551
vn 0.5633 -0.7917 0.2364
vn -0.7948 -0.4774 0.3747
vn -0.9296 -0.1985 -0.3105
vn -0.8624 0.4852 -0.1443
vn 0.5526 -0.7496 -0.3644
vn -0.9328 -0.1520 0.3268
vn -0.9390 -0.0005 -0.3440
vn -0.2146 -0.9291 -0.3014
vn -0.7971 0.5912 0.1230
vn -0.5107 0.1623 0.8443
vn -0.0756 0.9868 -0.1434
vn -0.6791 0.4869 -0.5493
vn 0.2258 -0.1769 0.9580
vn 0.3094 -0.4917 0.8140
vn 0.5283 0.5471 0.6493
vn -0.7552 -0.5457 -0.3632
vn -0.2896 -0.9328 0.2145
vn -0.8523 0.3793 -0.3601
vn -0.6354 -0.7551 0.1618
vn -0.7853 -0.5169 -0.3407
vn 0.1283 0.2513 0.9594
vn 0.4229 0.4385 0.7930
vn -0.1182 -0.6472 0.7531
vn 0.4725 -0.8797 0.0540
vn 0.3273 -0.7076 0.6263
vn -0.0118 -0.9897 -0.1429
vn 0.2956 -0.8128 -0.5020
vn 0.2610 -0.8674 -0.4236
vn 0.0191 -0.9197 0.3921
vn -0.2501 -0.6402 -0.7264
vn 0.0122 -0.9577 0.2876
vn -0.1845 -0.4838 -0.8555
vn 0.2932 -0.1743 -0.9401
vn -0.4658 -0.7131 0.5240
vn -0.2081 0.9095 0.3598
vn -0.0050 0.9626 -0.2707
vn -0.2912 -0.4846 0.8249
vn 0.0728 0.8628 0.5002
vn 0.4274 0.8963 -0.1187
vn -0.6469 -0.4233 0.6343
vn 0.2624 -0.5452 0.7962
vn -0.9503 0.2415 0.1965
vn -0.3254 0.9229 -0.2060
vn 0.6171 0.7625 0.1945
vn 0.7377 -0.0117 0.6750
vn -0.7301 -0.3795 0.5682
vn -0.8714 -0.4213 0.2514
vn -0.1791 -0.8325 0.5243
vn -0.9000 0.3470 0.2638
vn -0.8944 0.4001 0.1998
vn -0.3054 0.4794 0.8228
vn -0.3412 0.6329 0.6950
vn 0.5336 -0.2229 0.8158
vn 0.6053 0.0166 0.7958
vn 0.4773 -0.8411 0.2545
vn 0.5416 -0.7357 0.4067
vn -0.1162 -0.8248 0.5533
vn -0.2993 0.8115 0.5018
vn 0.7412 0.4981 0.4500
vn 0.5029 -0.6530 0.5663
vn -0.3120 -0.9442 0.1053
vn -0.8297 -0.4555 -0.3225
vn -0.6624 0.5504 -0.5082
vn 0.1651 0.9787 -0.1221
vn 0.4941 -0.8678 0.0532
vn -0.6476 -0.7454 -0.1582
vn -0.9583 0.1951 -0.2091
vn -0.4128 0.9076 0.0760
vn 0.6853 0.6412 0.3453
vn 0.9384 -0.1918 0.2876
vn 0.3849 -0.8447 0.3720
vn 0.6800 -0.3292 0.6551
vn -0.0234 0.4506 0.8924
vn -0.7546 0.3311 0.5666
vn -0.0803 0.9750 -0.2072
vn 0.8310 -0.4053 0.3810
vn -0.2648 -0.8072 0.5275
vn -0.5369 -0.7133 -0.4505
vn 0.1779 -0.0898 0.9799
vn 0.3365 -0.3252 -0.8837
vn -0.4666 0.1317 0.8746
vn -0.1860 -0.7548 0.6290
vn -0.5365 0.1635 -0.8279
vn 0.3482 0.6757 0.6498
vn 0.8716 0.4694 0.1417
vn -0.4532 -0.5421 -0.7076
vn -0.8940 -0.4471 0.0301
vn -0.9682 0.1598 -0.1926
vn 0.4149 0.4528 0.7892
vn 0.1559 0.8471 0.5080
vn -0.1408 0.9223 0.3599
vn -0.4771 0.8311 0.2858
vn -0.6112 0.5371 -0.5814
vn -0.8195 0.4325 0.3759
vn -0.3125 -0.3454 0.8849
vn 0.3319 -0.0453 0.9422
vn -0.7884 -0.1095 0.6054
vn -0.3359 -0.8823 -0.3298
vn -0.5091 -0.8172 0.2702
vn -0.0916 -0.9923 0.0832
vn -0.1823 -0.9002 0.3954
vn -0.4214 -0.2983 0.8564
vn 0.7663 -0.0203 -0.6422
vn 0.8382 0.5052 0.2052
vn 0.8193 -0.3108 0.4818
vn 0.6235 0.7095 -0.3285
vn 0.4489 0.8932 -0.0255
vn 0.2184 0.6613 -0.7177
vn -0.0565 0.9799 -0.1915
vn -0.3060 0.4766 -0.8241
vn -0.5992 0.7516 -0.2757
vn -0.4753 -0.1108 -0.8728
vn 0.3853 -0.8561 -0.3445
vn 0.2554 -0.8278 0.4996
vn 0.7630 -0.5237 -0.3789
vn 0.4316 0.1347 0.8919
vn 0.0099 -0.3660 0.9306
vn -0.3139 -0.4417 0.8404
vn -0.3913 -0.4604 0.7968
vn 0.8372 -0.3450 0.4244
vn 0.1599 -0.8892 0.4286
vn -0.2018 -0.9101 0.3620
vn -0.0635 0.6702 -0.7394
vn 0.5160 0.5656 -0.6433
vn 0.6164 0.5349 -0.5779
vn -0.1390 0.3470 -0.9275
vn -0.6245 0.0965 -0.7750
vn -0.2856 0.3449 -0.8942
vn 0.2582 0.4506 -0.8545
vn -0.0400 0.3823 -0.9232
vn 0.0452 0.3861 -0.9214
vn -0.1671 0.4056 -0.8986
vn 0.0740 0.4416 -0.8942
vn 0.8310 0.5563 0.0001
vn 0.7931 0.0568 0.6064
vn 0.9929 -0.1175 0.0172
vn -0.8009 -0.0280 -0.5981
vn -0.9206 -0.1997 -0.3356
vn -0.5335 0.4959 -0.6852
vn -0.4660 0.6059 -0.6448
vn 0.9393 0.1848 -0.2890
vn 0.8572 0.1348 -0.4970
vn 0.4822 0.3806 -0.7891
vn -0.4031 0.3796 -0.8327
vn -0.8041 -0.0128 -0.5943
vn 0.8195 0.5516 -0.1553
vn -0.6915 0.4230 -0.5856
vn 0.5700 0.4278 -0.7015
vn -0.7327 0.5507 -0.3998
vn 0.0866 0.9146 -0.3951
vn 0.2159 0.6737 -0.7067
vn -0.9330 -0.2194 -0.2853
vn -0.1740 0.4560 -0.8728
vn -0.9987 -0.0123 0.0504
vn -0.4379 0.8972 -0.0572
vn -0.2938 0.6833 -0.6684
vn 0.5943 0.7596 -0.2641
vn -0.9908 -0.0450 -0.1277
vn -0.5083 0.4009 -0.7622
vn -0.2453 0.4758 -0.8447
vn 0.7802 0.6086 0.1445
vn 0.7779 0.1106 0.6185
vn -0.7238 0.1976 -0.6611
vn 0.5097 0.4939 -0.7045
vn 0.4212 0.5807 -0.6967
vn -0.9167 0.1671 -0.3629
vn 0.1982 0.5844 -0.7869
vn -0.1034 0.5719 -0.8138
vn -0.9595 0.2777 0.0469
vn -0.4132 0.8109 -0.4144
vn -0.1244 0.7181 -0.6848
vn -0.5477 0.7093 -0.4438
vn 0.1557 0.9862 0.0563
vn 0.4753 0.6014 -0.6422
vn -0.9023 0.3912 -0.1810
vn 0.1745 0.7927 -0.5841
vn 0.2022 0.6839 -0.7010
vn -0.8309 0.4893 0.2650
vn -0.0632 0.9389 0.3382
vn -0.1830 0.8762 -0.4458
vn -0.9519 0.1238 0.2803
vn -0.3225 0.6375 -0.6997
vn 0.0539 -0.0784 0.9955
vn 0.4862 -0.1957 0.8516
vn 0.0682 -0.0800 0.9945
vn 0.2233 -0.3181 0.9214
vn -0.3480 -0.5387 0.7673
vn -0.3883 -0.5432 0.7444
vn 0.2372 -0.4211 0.8754
vn -0.0377 -0.3676 0.9292
vn -0.4786 -0.3226 0.8166
vn -0.3064 -0.1807 0.9346
vn -0.6919 -0.1606 0.7039
vn -0.6736 0.6556 0.3413
vn -0.8235 0.5656 0.0434
vn 0.0778 0.0905 0.9928
vn -0.1453 -0.3368 0.9303
vn -0.1222 -0.6298 0.7671
vn -0.0719 0.0050 0.9974
vn 0.2672 -0.3576 0.8948
vn -0.5246 -0.3880 0.7578
vn 0.3323 -0.6603 0.6735
vn -0.1323 -0.6426 0.7547
vn -0.1378 -0.5593 0.8174
vn -0.2347 -0.5135 0.8253
vn -0.6448 -0.2156 0.7333
vn -0.5576 -0.1373 0.8187
vn -0.2973 0.4012 0.8664
vn 0.5533 -0.2277 0.8013
vn -0.6201 -0.2202 0.7530
vn 0.4818 0.3330 0.8105
vn -0.2816 -0.2222 0.9334
vn -0.2826 -0.5059 0.8150
vn 0.7975 0.5056 0.3292
vn 0.0944 -0.4107 0.9069
vn 0.6245 0.6154 0.4809
vn -0.0539 -0.0982 0.9937
vn 0.3810 -0.5313 0.7567
vn -0.4960 -0.4936 0.7143
vn -0.5091 0.4073 0.7582
vn 0.7665 0.5571 0.3196
vn 0.5538 -0.3836 0.7390
vn 0.2272 -0.3572 0.9060
vn -0.5481 -0.1721 0.8185
vn -0.7322 0.6626 0.1576
vn 0.6215 -0.2204 0.7518
vn -0.5712 -0.4483 0.6875
vn -0.5898 0.0735 0.8042
vn 0.8932 -0.1162 0.4344
vn -0.1539 -0.4164 0.8961
vn -0.0789 -0.1623 0.9836
vn 0.9976 -0.0684 -0.0080
vn 0.4118 -0.6002 0.6857
vn 0.1143 -0.5454 0.8304
vn 0.1567 0.2347 0.9594
vn -0.3036 0.3976 0.8659
vn -0.6273 -0.1927 0.7546
vn 0.8799 -0.1877 0.4366
vn -0.1285 -0.5180 0.8456
vn -0.1525 -0.6047 0.7817
vn 0.7734 0.0513 0.6319
vn 0.4939 -0.0251 0.8692
vn 0.2882 -0.5808 0.7613
vn 0.9835 0.1107 -0.1430
vn 0.4725 -0.4429 0.7619
vn 0.9610 0.1967 0.1944
vn 0.6282 -0.2147 0.7478
vn 0.2608 -0.5078 0.8210
vn 0.4996 -0.8291 0.2509
vn -0.9505 -0.2999 0.0811
vn 0.6969 0.4559 0.5536
vn 0.8956 -0.4387 0.0734
vn 0.0283 0.9905 -0.1348
vn 0.5917 0.7105 -0.3810
vn 0.4638 -0.2510 0.8497
vn -0.8126 -0.5701 0.1212
vn 0.9350 -0.3470 0.0727
vn 0.9790 -0.1986 -0.0468
vn 0.4080 0.7848 0.4666
vn 0.9597 0.2533 -0.1219
vn -0.8455 -0.5028 0.1799
vn 0.8006 0.3390 0.4941
vn -0.5919 0.7297 0.3425
vn -0.9259 -0.0560 0.3737
vn -0.7839 0.3585 -0.5069
vn 0.7792 0.6260 0.0311
vn -0.7933 -0.1573 0.5881
vn 0.4286 0.8899 0.1562
vn -0.6639 -0.4718 0.5801
vn -0.8992 -0.2509 -0.3585
vn -0.0353 0.9767 0.2118
vn -0.5364 -0.4506 0.7136
vn -0.9624 -0.2713 -0.0096
vn 0.5244 0.5084 -0.6831
vn 0.7456 0.0488 0.6646
vn 0.9745 0.1835 -0.1289
vn 0.2459 0.9584 0.1447
vn -0.4754 0.3485 -0.8078
vn -0.9978 0.0651 0.0143
vn 0.8682 0.4719 0.1532
vn -0.7950 0.4807 -0.3699
vn -0.9367 -0.0211 0.3495
vn 0.6915 0.7212 0.0402
vn -0.6394 -0.5397 0.5476
vn -0.9900 0.0370 -0.1360
vn 0.6197 0.5604 -0.5496
vn -0.7307 0.4584 0.5060
vn -0.6800 0.4303 -0.5937
vn 0.5267 0.6967 0.4871
vn -0.7880 0.4613 -0.4079
vn -0.9099 -0.2816 0.3045
vn 0.2287 0.9597 0.1633
vn -0.6961 0.7129 -0.0852
vn -0.5600 0.2906 0.7759
vn 0.9447 0.2648 -0.1935
vn -0.1825 0.1118 0.9768
vn -0.9377 0.3197 0.1358
vn 0.6435 0.6863 0.3390
vn 0.1092 0.9706 -0.2145
vn -0.7795 0.6011 0.1762
vn -0.1415 0.4453 0.8841
vn 0.1852 -0.3501 0.9182
vn 0.9041 0.1725 -0.3909
vn -0.5837 0.3218 0.7455
vn -0.4254 0.6980 0.5760
vn -0.6352 0.7717 0.0321
vn 0.7348 -0.6181 0.2793
vn 0.0323 -0.0768 0.9965
vn 0.4789 -0.6347 0.6064
vn 0.8368 -0.4504 0.3114
vn -0.6617 -0.0283 0.7492
vn 0.3065 0.3330 0.8917
vn 0.5311 -0.0913 0.8424
vn 0.5768 0.7846 0.2274
vn 0.6399 0.0695 0.7653
vn 0.6091 0.3251 0.7234
vn 0.8058 -0.2468 0.5383
vn -0.0981 -0.0398 0.9944
vn 0.5438 -0.0210 0.8389
vn 0.5639 0.5140 0.6464
vn -0.8721 -0.4574 0.1739
vn 0.9963 -0.0284 0.0814
vn 0.9795 -0.0414 0.1971
vn 0.1974 0.9803 -0.0096
vn 0.3087 0.7143 0.6280
vn 0.7940 0.5896 0.1480
vn 0.4647 0.1024 0.8795
vn 0.9290 0.1808 0.3229
vn 0.6785 0.7283 0.0962
vn -0.6815 -0.5850 0.4396
vn -0.7956 -0.4627 0.3911
vn 0.0224 0.7991 0.6007
vn 0.5015 0.8403 -0.2061
vn 0.0601 -0.4052 0.9122
vn 0.6626 -0.1353 0.7366
vn -0.0529 0.6616 0.7480
vn -0.0645 0.9844 -0.1637
vn -0.6384 0.1545 0.7540
vn 0.3248 0.2590 0.9096
vn 0.8545 0.4776 0.2041
vn 0.5339 0.4574 -0.7112
vn -0.5961 0.4181 -0.6855
vn -0.9683 0.2265 0.1052
vn 0.0113 0.4298 0.9028
vn -0.1030 0.1108 0.9885
vn -0.2338 0.1573 0.9595
vn 0.4500 0.8343 -0.3185
vn 0.4879 0.7052 0.5144
vn -0.3217 0.7517 -0.5757
vn 0.5515 0.8008 -0.2334
vn -0.9711 0.2320 0.0564
vn -0.1874 0.7987 -0.5718
vn -0.6856 -0.1108 0.7195
vn -0.9807 0.1843 -0.0648
vn -0.7668 -0.1556 0.6227
vn 0.1242 0.9380 0.3236
vn -0.1339 0.9816 -0.1364
vn 0.6374 -0.6058 0.4761
vn -0.7685 0.6134 -0.1822
vn 0.0461 0.7789 -0.6255
vn 0.0060 0.9352 -0.3541
vn -0.7773 -0.3202 0.5415
vn 0.0804 -0.7547 0.6511
vn 0.7964 -0.5184 0.3114
vn 0.2471 -0.4392 0.8638
vn 0.8911 0.2595 -0.3723
vn -0.9936 -0.0231 0.1104
vn 0.9780 0.2066 0.0281
vn -0.5914 -0.4652 0.6587
vn -0.9862 -0.1651 -0.0120
vn -0.9708 -0.2399 0.0049
vn 0.5438 -0.1819 0.8192
vn 0.9698 0.2426 0.0243
vn 0.4539 0.5582 -0.6945
vn 0.9757 0.2151 -0.0425
vn -0.6642 0.2999 -0.6847
vn 0.9084 0.2580 -0.3290
vn -0.8451 -0.3582 0.3968
vn -0.6740 -0.5332 0.5113
vn 0.6698 0.5757 -0.4690
vn -0.7330 -0.5319 0.4240
vn 0.7048 0.4630 -0.5375
vn -0.5934 -0.3942 0.7018
vn 0.4105 -0.1160 0.9044
vn -0.9501 -0.0701 0.3040
vn -0.5426 -0.5611 0.6251
vn -0.4816 0.8412 0.2458
vn 0.1017 0.9607 -0.2581
vn 0.7028 0.7068 -0.0811
vn 0.5025 0.5639 -0.6554
vn 0.1077 -0.4528 0.8851
vn 0.5483 0.6339 0.5455
vn 0.9371 0.3349 0.0989
vn -0.9995 -0.0116 0.0290
vn -0.8233 -0.2224 0.5223
vn 0.8617 0.4949 -0.1120
vn 0.7121 0.6054 -0.3555
vn -0.7257 -0.2625 0.6359
vn -0.3425 -0.3201 0.8833
vn 0.5594 0.5192 -0.6461
vn 0.0356 -0.6814 0.7311
vn 0.2807 0.7796 -0.5598
vn -0.4242 0.7440 0.5163
vn -0.4897 0.8662 -0.0991
vn 0.6002 -0.3826 -0.7024
vn 0.5842 0.0711 -0.8085
vn 0.9533 0.2997 -0.0364
vn -0.3488 -0.8196 0.4545
vn -0.3682 0.1930 0.9095
vn 0.2503 -0.8622 -0.4405
vn 0.1670 0.9117 0.3754
vn 0.3263 0.8751 0.3575
vn 0.7574 0.4340 0.4878
vn 0.8005 0.2654 -0.5374
vn 0.0445 -0.2713 0.9615
vn 0.1352 -0.1193 0.9836
vn 0.4943 -0.7808 -0.3821
vn 0.9340 -0.3469 0.0855
vn 0.2214 -0.9751 -0.0102
vn 0.5735 -0.7890 0.2204
vn -0.6765 -0.0258 -0.7360
vn -0.6326 -0.5593 -0.5357
vn -0.8280 -0.4609 0.3193
vn -0.6691 0.6728 -0.3157
vn -0.9077 0.3903 0.1545
vn -0.2264 0.7211 -0.6548
vn -0.5431 0.8384 0.0468
vn 0.3268 0.6200 -0.7133
vn -0.0485 0.9985 -0.0271
vn 0.5153 0.8537 -0.0753
vn -0.2177 -0.8433 -0.4913
vn 0.2487 -0.9234 0.2924
vn -0.2019 -0.9157 0.3473
vn -0.6953 0.1445 0.7041
vn -0.1893 -0.3962 0.8984
vn 0.1583 -0.4559 0.8758
vn -0.9238 0.3789 0.0558
vn -0.8320 -0.4739 0.2884
vn -0.1087 -0.9262 0.3611
vn 0.2448 -0.9087 0.3382
vt 0.871484 0.744832
vt 0.810212 0.719983
vt 0.870723 0.778200
vt 0.716142 0.939397
vt 0.763748 0.926162
vt 0.736864 0.872463
vt 0.773226 0.859491
vt 0.829439 0.928379
vt 0.817099 0.862110
vt 0.762037 0.784363
vt 0.814690 0.778894
vt 0.951567 0.826660
vt 0.921964 0.826723
vt 0.933864 0.859908
vt 0.647686 0.835550
vt 0.670956 0.859687
vt 0.672002 0.790317
vt 0.726826 0.737533
vt 0.887614 0.902809
vt 0.915608 0.868280
vt 0.854112 0.868300
vt 0.702990 0.826501
vt 0.695533 0.892707
vt 0.884726 0.807540
vt 0.828453 0.702107
vt 0.736215 0.673455
vt 0.733630 0.718836
vt 0.791714 0.703853
vt 0.662876 0.766401
vt 0.617101 0.822462
vt 0.630610 0.829955
vt 0.643470 0.795205
vt 0.901029 0.818963
vt 0.464518 0.170328
vt 0.455026 0.175541
vt 0.475044 0.204340
vt 0.955231 0.824765
vt 0.960161 0.850633
vt 0.362177 0.208514
vt 0.399271 0.220931
vt 0.411637 0.185970
vt 0.085364 0.141158
vt 0.127446 0.130232
vt 0.114225 0.094183
vt 0.209323 0.174448
vt 0.205398 0.167734
vt 0.180090 0.185157
vt 0.323582 0.183149
vt 0.329659 0.192668
vt 0.337982 0.170679
vt 0.041069 0.154581
vt 0.071013 0.145948
vt 0.059713 0.111958
vt 0.228019 0.212142
vt 0.226250 0.205172
vt 0.210644 0.217712
vt 0.486796 0.157577
vt 0.483588 0.196000
vt 0.767609 0.405136
vt 0.759076 0.434732
vt 0.729291 0.383397
vt 0.591574 0.486691
vt 0.650695 0.496461
vt 0.585891 0.557831
vt 0.681478 0.500182
vt 0.632829 0.565260
vt 0.705962 0.468277
vt 0.701009 0.507870
vt 0.805242 0.440225
vt 0.822606 0.488411
vt 0.785670 0.455886
vt 0.588998 0.404725
vt 0.635075 0.384176
vt 0.591337 0.436485
vt 0.680404 0.377412
vt 0.669402 0.420091
vt 0.749417 0.560824
vt 0.726075 0.521896
vt 0.779447 0.524381
vt 0.674038 0.581282
vt 0.665468 0.432822
vt 0.592626 0.443847
vt 0.725929 0.477899
vt 0.762785 0.448346
vt 0.769890 0.394224
vt 0.733699 0.337595
vt 0.727144 0.373678
vt 0.689363 0.368182
vt 0.677632 0.366679
vt 0.625297 0.362557
vt 0.629056 0.381654
vt 0.588842 0.401321
vt 0.774034 0.457217
vt 0.797571 0.508391
vt 0.752107 0.488214
vt 0.459240 0.103613
vt 0.452833 0.104042
vt 0.455517 0.136073
vt 0.826268 0.479919
vt 0.378054 0.137993
vt 0.410035 0.139504
vt 0.404705 0.101706
vt 0.088335 0.213349
vt 0.127010 0.220076
vt 0.125489 0.181492
vt 0.276854 0.169126
vt 0.274162 0.161393
vt 0.244495 0.159822
vt 0.336423 0.140926
vt 0.347263 0.141015
vt 0.340748 0.119455
vt 0.046193 0.204185
vt 0.076409 0.214038
vt 0.077006 0.182620
vt 0.267336 0.203547
vt 0.270529 0.196313
vt 0.249982 0.192433
vt 0.473057 0.107915
vt 0.461791 0.135718
vt 0.910395 0.770580
vt 0.902262 0.744735
vt 0.060443 0.554249
vt 0.160686 0.537509
vt 0.154004 0.491919
vt 0.660489 0.914409
vt 0.689755 0.959962
vt 0.066067 0.587234
vt 0.165683 0.575649
vt 0.958912 0.811375
vt 0.940276 0.801452
vt 0.954981 0.874525
vt 0.972124 0.861072
vt 0.619914 0.859697
vt 0.644813 0.884121
vt 0.913142 0.919954
vt 0.886678 0.951884
vt 0.071548 0.618041
vt 0.169517 0.616515
vt 0.919736 0.782881
vt 0.816693 0.664358
vt 0.812986 0.665969
vt 0.904186 0.732970
vt 0.876393 0.726915
vt 0.723138 0.662249
vt 0.698018 0.689591
vt 0.805676 0.663181
vt 0.766553 0.648827
vt 0.760553 0.663101
vt 0.626606 0.765059
vt 0.626457 0.770889
vt 0.696183 0.694691
vt 0.690083 0.693231
vt 0.696721 0.730424
vt 0.600777 0.840314
vt 0.615880 0.855675
vt 0.622117 0.771402
vt 0.608403 0.787710
vt 0.622881 0.798106
vt 0.460834 0.151141
vt 0.454113 0.153445
vt 0.492317 0.211172
vt 0.499108 0.203427
vt 0.961083 0.813491
vt 0.850791 0.499989
vt 0.838680 0.496557
vt 0.853196 0.531007
vt 0.977706 0.855748
vt 0.964734 0.849470
vt 0.354842 0.224948
vt 0.390073 0.239838
vt 0.413265 0.160770
vt 0.373236 0.158562
vt 0.370940 0.177188
vt 0.085059 0.163629
vt 0.125119 0.157680
vt 0.101451 0.072716
vt 0.061791 0.090145
vt 0.073123 0.108616
vt 0.226052 0.168782
vt 0.224489 0.162045
vt 0.164736 0.202140
vt 0.171564 0.208721
vt 0.312668 0.185550
vt 0.318764 0.199453
vt 0.327966 0.169716
vt 0.326417 0.156299
vt 0.339783 0.158083
vt 0.043347 0.169724
vt 0.073931 0.165277
vt 0.025886 0.143536
vt 0.010040 0.142940
vt 0.032017 0.171490
vt 0.048935 0.098002
vt 0.017739 0.126444
vt 0.030196 0.134769
vt 0.241484 0.212092
vt 0.237696 0.201414
vt 0.216870 0.220836
vt 0.216775 0.234010
vt 0.203253 0.233137
vt 0.481824 0.143228
vt 0.503394 0.166911
vt 0.520547 0.165376
vt 0.497219 0.138976
vt 0.516373 0.183901
vt 0.499302 0.175691
vt 0.870526 0.530212
vt 0.872791 0.512548
vt 0.857371 0.570564
vt 0.872360 0.577517
vt 0.876342 0.545039
vt 0.861265 0.486869
vt 0.850403 0.475304
vt 0.856673 0.516272
vt 0.711572 0.601686
vt 0.944083 0.938641
vt 0.941216 0.887662
vt 0.976350 0.889726
vt 0.991145 0.860795
vt 0.842526 0.573688
vt 0.861614 0.591462
vt 0.862121 0.544237
vt 0.968698 0.803235
vt 0.951025 0.788106
vt 0.943166 0.770316
vt 0.922187 0.742274
vt 0.926274 0.733261
vt 0.332393 0.125080
vt 0.315148 0.121127
vt 0.323471 0.107548
vt 0.404286 0.079428
vt 0.364841 0.085583
vt 0.372265 0.108030
vt 0.822760 0.637687
vt 0.802369 0.636650
vt 0.083391 0.238153
vt 0.125508 0.241487
vt 0.030337 0.219008
vt 0.068913 0.236405
vt 0.041103 0.184749
vt 0.022036 0.205280
vt 0.048715 0.183779
vt 0.086898 0.184505
vt 0.711813 0.650152
vt 0.676828 0.680321
vt 0.294975 0.171535
vt 0.295400 0.162308
vt 0.274783 0.217104
vt 0.282845 0.208063
vt 0.251995 0.200102
vt 0.611981 0.752215
vt 0.603131 0.765576
vt 0.462700 0.087385
vt 0.453902 0.085315
vt 0.483720 0.098589
vt 0.486597 0.131431
vt 0.496878 0.108384
vt 0.474614 0.133366
vt 0.584365 0.848528
vt 0.607665 0.865069
vt 0.622927 0.887604
vt 0.627992 0.891260
vt 0.664079 0.977335
vt 0.066346 0.655711
vt 0.167923 0.659760
vt 0.663667 0.607407
vt 0.062800 0.716271
vt 0.162580 0.729819
vt 0.788673 0.342768
vt 0.789651 0.347517
vt 0.750636 0.335455
vt 0.915235 0.685212
vt 0.915062 0.689391
vt 0.933763 0.689209
vt 0.897246 0.679567
vt 0.896434 0.684328
vt 0.874194 0.663126
vt 0.868615 0.666408
vt 0.867320 0.648229
vt 0.863998 0.649786
vt 0.867374 0.631017
vt 0.861154 0.630293
vt 0.691060 0.669473
vt 0.811823 0.635308
vt 0.673099 0.330003
vt 0.675131 0.333584
vt 0.637818 0.339925
vt 0.652400 0.698985
vt 0.655615 0.699376
vt 0.650480 0.684696
vt 0.655978 0.712831
vt 0.659396 0.714483
vt 0.644009 0.730860
vt 0.645845 0.734428
vt 0.628855 0.731134
vt 0.629507 0.735305
vt 0.616256 0.726569
vt 0.613801 0.728214
vt 0.606747 0.862263
vt 0.605808 0.760337
vt 0.932979 0.791923
vt 0.964116 0.905810
vt 0.897717 0.548226
vt 0.916869 0.547110
vt 0.917714 0.523676
vt 0.895384 0.583906
vt 0.920296 0.596144
vt 0.889220 0.604177
vt 0.918606 0.618136
vt 0.886396 0.471548
vt 0.911683 0.458481
vt 0.897428 0.442487
vt 0.897658 0.507171
vt 0.920680 0.501421
vt 0.897955 0.527288
vt 0.739983 0.377720
vt 0.363962 0.107922
vt 0.369122 0.139855
vt 0.366482 0.158177
vt 0.362416 0.176001
vt 0.352956 0.205145
vt 0.347056 0.220488
vt 0.715778 0.649451
vt 0.732185 0.331804
vt 0.697814 0.331239
vt 0.763795 0.647780
vt 0.772112 0.630782
vt 0.757896 0.661913
vt 0.736494 0.671103
vt 0.724289 0.661029
vt 0.640480 0.372201
vt 0.218136 0.129736
vt 0.192796 0.133534
vt 0.159879 0.156596
vt 0.143119 0.175543
vt 0.278586 0.131357
vt 0.239458 0.130484
vt 0.429027 0.160767
vt 0.430561 0.188285
vt 0.451583 0.222476
vt 0.473264 0.229008
vt 0.434000 0.100738
vt 0.432523 0.138940
vt 0.584510 0.845267
vt 0.621555 0.360201
vt 0.586523 0.371443
vt 0.605106 0.789371
vt 0.590830 0.778197
vt 0.618503 0.798926
vt 0.613219 0.823581
vt 0.598434 0.836555
vt 0.655164 0.569937
vt 0.949272 0.779203
vt 0.355607 0.087855
vt 0.038173 0.201036
vt 0.033792 0.154976
vt 0.244651 0.167130
vt 0.185051 0.191674
vt 0.495753 0.156747
vt 0.488656 0.113010
vt 0.869465 0.454431
vt 0.058818 0.770583
vt 0.157004 0.785489
vt 0.552104 0.447616
vt 0.253517 0.523455
vt 0.258018 0.566117
vt 0.725736 0.964084
vt 0.768382 0.958916
vt 0.823827 0.960848
vt 0.853159 0.969460
vt 0.861349 0.941243
vt 0.877361 0.976911
vt 0.582608 0.574473
vt 0.699762 0.970863
vt 0.906128 0.990089
vt 0.912030 0.970656
vt 0.540157 0.392846
vt 0.241966 0.472047
vt 0.516644 0.315969
vt 0.224832 0.414029
vt 0.621161 0.589416
vt 0.549797 0.846905
vt 0.243521 0.801226
vt 0.235099 0.856977
vt 0.558156 0.772970
vt 0.247682 0.741672
vt 0.567500 0.679588
vt 0.255214 0.662118
vt 0.567320 0.589079
vt 0.259751 0.613032
vt 0.563436 0.518776
vt 0.496488 0.251090
vt 0.210540 0.363053
vt 0.534112 0.927175
vt 0.220188 0.913159
vt 0.032866 0.794644
vt 0.046185 0.802715
vt 0.008884 0.835412
vt 0.021293 0.844742
vt 0.012059 0.480277
vt 0.029689 0.473300
vt 0.013688 0.425332
vt 0.029194 0.523979
vt 0.046193 0.519997
vt 0.047087 0.551447
vt 0.053575 0.587669
vt 0.059612 0.618432
vt 0.057226 0.654911
vt 0.053025 0.715384
vt 0.048760 0.765281
vt 0.146074 0.834570
vt 0.131890 0.883074
vt 0.140154 0.441255
vt 0.127743 0.399678
vt 0.655022 0.310757
vt 0.746807 0.310279
vt 0.813343 0.280815
vt 0.629568 0.131404
vt 0.582801 0.184208
vt 0.842356 0.206923
vt 0.679404 0.107489
vt 0.817890 0.145683
vt 0.588026 0.252953
vt 0.812409 0.439165
vt 0.992347 0.867942
vt 0.967486 0.797748
vt 0.934191 0.763898
vt 0.681330 0.672416
vt 0.642570 0.923002
vt 0.692993 0.618136
vt 0.757074 0.332411
vt 0.931661 0.685183
vt 0.639223 0.336054
vt 0.649091 0.687696
vt 0.699089 0.326217
vt 0.766972 0.632558
vt 0.295809 0.130234
vt 0.429666 0.079428
vt 0.588002 0.367916
vt 0.589719 0.781897
vt 0.668584 0.990500
vt 0.518385 0.992347
vt 0.007653 0.438725
vt 0.758298 0.114752
s 1
usemtl Mat
f 53/1/1 54/2/2 52/3/3
f 58/4/4 59/5/5 262/6/6
f 20/7/7 60/8/8 260/9/9
f 17/10/10 260/9/9 261/11/11
f 50/12/12 169/13/13 170/14/14
f 57/15/15 62/16/16 56/17/17
f 56/17/17 17/10/10 55/18/18
f 47/19/19 48/20/20 18/21/21
f 60/8/8 47/19/19 18/21/21
f 17/10/10 54/2/2 55/18/18
f 17/10/10 261/11/11 54/2/2
f 263/22/22 56/17/17 62/16/16
f 62/16/16 65/23/23 263/22/22
f 52/3/3 54/2/2 261/11/11
f 228/24/24 52/3/3 18/21/21
f 147/25/25 54/2/2 53/1/1
f 202/26/26 151/27/27 152/28/28
f 159/29/29 56/17/17 55/18/18
f 226/30/30 163/31/31 164/32/32
f 51/33/33 18/21/21 48/20/20
f 77/34/34 217/35/35 218/36/36
f 178/37/37 50/12/12 49/38/38
f 190/39/39 68/40/40 67/41/41
f 195/42/42 70/43/43 69/44/44
f 84/45/45 211/46/46 212/47/47
f 86/48/48 230/49/49 231/50/50
f 236/51/51 82/52/52 81/53/53
f 90/54/54 247/55/55 242/56/56
f 249/57/57 77/34/34 78/58/58
f 7/59/59 6/60/60 8/61/61
f 19/62/62 66/63/63 12/64/64
f 94/65/65 13/66/66 66/63/63
f 93/67/67 266/68/68 94/65/65
f 4/69/69 3/70/70 167/71/71
f 11/72/72 10/73/73 16/74/74
f 10/73/73 9/75/75 63/76/76
f 1/77/77 64/78/78 2/79/79
f 14/80/80 64/78/78 1/77/77
f 63/76/76 9/75/75 8/61/61
f 63/76/76 8/61/61 6/60/60
f 63/76/76 16/74/74 10/73/73
f 63/76/76 265/81/81 264/82/82
f 64/78/78 266/68/68 267/83/83
f 227/84/84 93/67/67 6/60/60
f 144/85/85 7/59/59 8/61/61
f 199/86/86 154/87/87 149/88/88
f 156/89/89 9/75/75 10/73/73
f 223/90/90 166/91/91 161/92/92
f 5/93/93 172/94/94 95/95/95
f 32/96/96 220/97/97 215/98/98
f 175/99/99 3/70/70 4/69/69
f 187/100/100 21/101/101 22/102/102
f 192/103/103 23/104/104 24/105/105
f 37/106/106 214/107/107 209/108/108
f 39/109/109 233/110/110 234/111/111
f 239/112/112 35/113/113 36/114/114
f 43/115/115 244/116/116 245/117/117
f 252/118/118 32/96/96 31/119/119
f 52/3/3 110/120/120 111/121/121
f 294/122/122 304/123/123 303/124/124
f 65/23/23 141/125/125 142/126/126
f 295/127/127 305/128/128 304/123/123
f 108/129/129 168/130/130 169/13/13
f 170/14/14 171/131/131 103/132/132
f 57/15/15 139/133/133 140/134/134
f 48/20/20 47/19/19 101/135/135
f 47/19/19 100/136/136 101/135/135
f 296/137/137 306/138/138 305/128/128
f 62/16/16 140/134/134 141/125/125
f 228/24/24 229/139/139 110/120/120
f 147/25/25 148/140/140 118/141/141
f 111/121/121 145/142/142 146/143/143
f 197/144/144 150/145/145 151/27/27
f 153/146/146 200/147/147 201/148/148
f 159/29/29 160/149/149 132/150/150
f 125/151/151 157/152/152 158/153/153
f 221/154/154 162/155/155 163/31/31
f 165/156/156 224/157/157 225/158/158
f 137/159/159 216/160/160 217/35/35
f 218/36/36 219/161/161 134/162/162
f 178/37/37 173/163/163 108/129/129
f 75/164/164 105/165/165 106/166/166
f 103/132/132 176/167/167 177/168/168
f 190/39/39 185/169/169 117/170/170
f 112/171/171 188/172/172 189/173/173
f 195/42/42 196/174/174 124/175/175
f 119/176/176 193/177/177 194/178/178
f 130/179/179 210/180/180 211/46/46
f 212/47/47 213/181/181 127/182/182
f 115/183/183 235/184/184 230/49/49
f 85/185/185 114/186/186 115/183/183
f 231/50/50 232/187/187 114/186/186
f 236/51/51 237/188/188 123/189/189
f 87/190/190 121/191/191 122/192/192
f 120/193/193 240/194/194 241/195/195
f 129/196/196 246/197/197 247/55/55
f 89/198/198 128/199/199 129/196/196
f 242/56/56 243/200/200 128/199/199
f 249/57/57 250/201/201 137/159/159
f 92/202/202 135/203/203 136/204/204
f 134/162/162 253/205/205 248/206/206
f 63/76/76 6/60/60 265/81/81
f 14/80/80 94/65/65 266/68/68
f 93/67/67 265/81/81 6/60/60
f 93/67/67 267/83/83 266/68/68
f 64/78/78 95/95/95 2/79/79
f 106/166/166 259/207/207 254/208/208
f 29/209/209 257/210/210 258/211/211
f 255/212/212 256/213/213 105/165/165
f 76/214/214 254/208/208 255/212/212
f 15/215/215 14/80/80 1/77/77
f 1/216/77 101/135/135 100/136/136
f 1/216/77 102/217/216 101/135/135
f 103/132/132 171/131/131 172/218/94
f 175/219/99 176/167/167 103/132/132
f 105/220/165 256/221/213 257/210/210
f 30/222/217 106/166/166 105/220/165
f 258/211/211 259/207/207 106/166/166
f 108/129/129 173/163/163 174/223/218
f 167/224/71 168/130/130 108/129/129
f 110/120/120 229/139/139 227/225/84
f 7/226/59 111/121/121 110/120/120
f 144/227/85 145/142/142 111/121/121
f 187/100/100 188/172/172 112/171/171
f 114/186/186 232/187/187 233/110/110
f 40/228/219 115/229/183 114/186/186
f 234/111/111 235/230/184 115/229/183
f 117/231/170 185/232/169 186/233/220
f 118/141/141 148/140/140 143/234/221
f 200/147/147 153/146/146 154/235/87
f 192/103/103 193/236/177 119/237/176
f 239/112/112 240/238/194 120/239/193
f 42/240/222 122/192/192 121/241/191
f 123/189/189 237/188/188 238/242/223
f 124/175/175 196/174/174 191/243/224
f 150/145/145 197/144/144 198/244/225
f 156/245/89 157/152/152 125/151/151
f 127/246/182 213/247/181 214/107/107
f 128/248/199 243/249/200 244/116/116
f 44/250/226 129/196/196 128/248/199
f 245/117/117 246/197/197 129/196/196
f 209/108/108 210/180/180 130/179/179
f 132/150/150 160/149/149 155/251/227
f 224/157/157 165/156/156 166/252/91
f 134/253/162 219/254/161 220/97/97
f 252/118/118 253/255/205 134/253/162
f 45/256/228 136/204/204 135/257/203
f 137/159/159 250/201/201 251/258/229
f 215/98/98 216/160/160 137/159/159
f 162/155/155 221/154/154 222/259/230
f 11/260/72 16/261/74 139/133/133
f 16/261/74 264/262/82 140/134/134
f 12/263/64 142/126/126 141/125/125
f 297/264/231 307/265/232 306/138/138
f 280/266/233 14/80/80 15/215/215
f 298/267/234 308/268/235 307/265/232
f 21/269/101 184/270/236 179/271/237
f 112/272/171 183/273/238 184/274/236
f 67/275/41 182/276/239 183/273/238
f 68/277/40 181/278/240 182/276/239
f 117/279/170 180/280/241 181/278/240
f 22/281/102 179/282/237 180/280/241
f 125/151/151 150/145/145 149/283/88
f 55/18/18 151/27/27 150/145/145
f 54/2/2 152/28/28 151/27/27
f 118/141/141 153/146/146 152/28/28
f 8/284/61 154/235/87 153/146/146
f 9/75/75 149/88/88 154/87/87
f 26/285/242 208/286/243 203/287/244
f 126/288/245 207/289/246 208/290/243
f 72/291/247 206/292/248 207/289/246
f 71/293/249 205/294/250 206/292/248
f 131/295/251 204/296/252 205/294/250
f 25/297/253 203/298/244 204/296/252
f 139/133/133 162/155/155 161/299/92
f 57/15/15 163/31/31 162/155/155
f 56/17/17 164/32/32 163/31/31
f 132/150/150 165/156/156 164/32/32
f 10/300/73 166/252/91 165/156/156
f 11/72/72 161/92/92 166/91/91
f 109/301/254 168/130/130 167/224/71
f 51/33/33 169/13/13 168/130/130
f 48/20/20 170/14/14 169/13/13
f 102/217/216 171/131/131 170/14/14
f 2/302/79 172/218/94 171/131/131
f 167/71/71 172/94/94 5/93/93
f 97/303/255 174/304/218 173/305/163
f 98/306/256 175/307/99 174/304/218
f 104/308/257 176/309/167 175/307/99
f 99/310/258 177/311/168 176/312/167
f 96/313/259 178/314/37 177/311/168
f 107/315/260 173/305/163 178/314/37
f 148/140/140 180/280/241 179/282/237
f 147/25/25 181/278/240 180/280/241
f 146/143/143 182/276/239 181/278/240
f 145/142/142 183/273/238 182/276/239
f 144/227/85 184/274/236 183/273/238
f 143/316/221 179/271/237 184/270/236
f 34/317/261 186/233/220 185/232/169
f 33/318/262 187/100/100 186/233/220
f 113/319/263 188/172/172 187/100/100
f 79/320/264 189/173/173 188/172/172
f 80/321/265 190/39/39 189/173/173
f 116/322/266 185/169/169 190/39/39
f 35/113/113 192/103/103 191/243/224
f 120/239/193 193/236/177 192/103/103
f 81/53/53 194/178/178 193/177/177
f 82/52/52 195/42/42 194/178/178
f 123/189/189 196/174/174 195/42/42
f 36/114/114 191/243/224 196/174/174
f 24/323/105 198/244/225 197/144/144
f 23/324/104 199/86/86 198/325/225
f 119/326/176 200/147/147 199/327/86
f 69/328/44 201/148/148 200/147/147
f 70/329/43 202/26/26 201/148/148
f 124/330/175 197/144/144 202/26/26
f 160/149/149 204/296/252 203/298/244
f 159/29/29 205/294/250 204/296/252
f 158/153/153 206/292/248 205/294/250
f 157/152/152 207/289/246 206/292/248
f 156/245/89 208/290/243 207/289/246
f 155/331/227 203/287/244 208/286/243
f 131/332/251 210/180/180 209/108/108
f 71/333/249 211/46/46 210/180/180
f 72/334/247 212/47/47 211/46/46
f 126/335/245 213/181/181 212/47/47
f 26/336/242 214/107/107 213/247/181
f 25/337/253 209/108/108 214/107/107
f 138/338/267 216/160/160 215/98/98
f 74/339/268 217/35/35 216/160/160
f 73/340/269 218/36/36 217/35/35
f 133/341/270 219/161/161 218/36/36
f 27/342/271 220/97/97 219/254/161
f 28/343/272 215/98/98 220/97/97
f 28/344/272 222/259/230 221/154/154
f 27/345/271 223/90/90 222/346/230
f 133/347/270 224/157/157 223/348/90
f 73/349/269 225/158/158 224/157/157
f 74/350/268 226/30/30 225/158/158
f 138/351/267 221/154/154 226/30/30
f 13/66/66 94/65/65 268/352/273
f 5/353/93 227/225/84 229/139/139
f 109/301/254 229/139/139 228/24/24
f 51/33/33 228/24/24 18/21/21
f 79/320/264 231/50/50 230/49/49
f 113/319/263 232/187/187 231/50/50
f 33/318/262 233/110/110 232/187/187
f 34/317/261 234/111/111 233/110/110
f 116/354/266 235/230/184 234/111/111
f 80/321/265 230/49/49 235/184/184
f 122/192/192 237/188/188 236/51/51
f 42/240/222 238/242/223 237/188/188
f 41/355/274 239/112/112 238/242/223
f 121/241/191 240/238/194 239/112/112
f 87/190/190 241/195/195 240/194/194
f 88/356/275 236/51/51 241/195/195
f 127/182/182 243/200/200 242/56/56
f 37/106/106 244/116/116 243/249/200
f 38/357/276 245/117/117 244/116/116
f 130/179/179 246/197/197 245/117/117
f 84/45/45 247/55/55 246/197/197
f 83/358/277 242/56/56 247/55/55
f 91/359/278 249/57/57 248/206/206
f 136/204/204 250/201/201 249/57/57
f 45/256/228 251/258/229 250/201/201
f 46/360/279 252/118/118 251/258/229
f 135/257/203 253/255/205 252/118/118
f 92/202/202 248/206/206 253/205/205
f 99/310/258 255/212/212 254/208/208
f 104/361/257 256/213/213 255/212/212
f 98/306/256 257/210/210 256/221/213
f 97/303/255 258/211/211 257/210/210
f 107/315/260 259/207/207 258/211/211
f 96/313/259 254/208/208 259/207/207
f 18/21/21 260/9/9 60/8/8
f 20/7/7 260/9/9 17/10/10
f 18/21/21 261/11/11 260/9/9
f 262/6/6 59/5/5 20/7/7
f 17/10/10 56/17/17 263/22/22
f 17/10/10 263/22/22 262/6/6
f 5/93/93 267/83/83 227/84/84
f 19/62/62 264/82/82 66/63/63
f 141/125/125 140/134/134 264/262/82
f 94/65/65 66/63/63 93/67/67
f 93/67/67 227/84/84 267/83/83
f 95/95/95 267/83/83 5/93/93
f 14/80/80 266/68/68 64/78/78
f 289/362/280 299/363/281 308/268/235
f 14/80/80 268/352/273 94/65/65
f 2/79/79 95/95/95 172/94/94
f 280/266/233 268/352/273 14/80/80
f 272/364/282 317/365/283 318/366/284
f 284/367/285 58/4/4 142/126/126
f 285/368/286 59/5/5 58/4/4
f 286/369/287 60/8/8 59/5/5
f 287/370/288 61/371/289 60/8/8
f 288/372/290 100/136/136 61/371/289
f 281/373/291 12/64/64 13/66/66
f 283/374/292 142/126/126 12/263/64
f 279/375/293 15/376/215 100/136/136
f 271/377/294 316/378/295 317/365/283
f 270/379/296 315/380/297 316/378/295
f 268/352/273 282/381/298 13/66/66
f 273/382/299 312/383/300 313/384/301
f 274/385/302 311/386/303 312/383/300
f 275/387/304 310/388/305 311/386/303
f 276/389/306 309/390/307 310/388/305
f 277/391/308 318/366/284 309/390/307
f 269/392/309 314/393/310 315/380/297
f 278/394/311 313/384/301 314/395/310
f 282/381/298 268/352/273 280/266/233
f 283/396/292 290/397/312 289/362/280
f 281/398/291 291/399/313 290/397/312
f 282/400/298 292/401/314 291/402/313
f 280/403/233 293/404/315 292/401/314
f 279/405/293 294/122/122 293/404/315
f 288/406/290 295/127/127 294/122/122
f 287/407/288 296/137/137 295/127/127
f 286/408/287 297/264/231 296/137/137
f 285/409/286 298/267/234 297/264/231
f 284/410/285 289/362/280 298/267/234
f 290/397/312 300/411/316 299/363/281
f 291/399/313 301/412/317 300/411/316
f 292/401/314 302/413/318 301/414/317
f 293/404/315 303/124/124 302/413/318
f 307/265/232 310/388/305 309/390/307
f 308/268/235 311/386/303 310/388/305
f 299/363/281 312/383/300 311/386/303
f 300/411/316 313/384/301 312/383/300
f 301/412/317 314/395/310 313/384/301
f 302/413/318 315/380/297 314/393/310
f 303/124/124 316/378/295 315/380/297
f 304/123/123 317/365/283 316/378/295
f 305/128/128 318/366/284 317/365/283
f 306/138/138 309/390/307 318/366/284
f 59/5/5 60/8/8 20/7/7
f 65/23/23 58/4/4 262/6/6
f 52/3/3 261/11/11 18/21/21
f 172/94/94 167/71/71 3/70/70
f 265/81/81 93/67/67 66/63/63
f 265/81/81 66/63/63 264/82/82
f 13/66/66 12/64/64 66/63/63
f 275/415/304 274/416/302 273/417/299
f 272/418/282 277/419/308 278/420/311
f 271/421/294 272/418/282 269/422/309
f 277/419/308 276/423/306 273/417/299
f 1/216/77 2/302/79 102/217/216
f 101/135/135 102/217/216 48/20/20
f 170/14/14 48/20/20 102/217/216
f 60/8/8 61/371/289 47/19/19
f 47/19/19 61/371/289 100/136/136
f 262/6/6 20/7/7 17/10/10
f 65/23/23 262/6/6 263/22/22
f 16/261/74 140/134/134 139/133/133
f 372/2/319 371/1/320 370/3/321
f 377/5/322 376/4/323 580/6/324
f 378/8/325 338/7/326 578/9/327
f 578/9/327 335/10/328 579/11/329
f 368/12/330 367/38/331 488/14/332
f 380/16/333 375/15/334 374/17/335
f 335/10/328 374/17/335 373/18/336
f 366/20/337 365/19/338 336/21/339
f 365/19/338 378/8/325 336/21/339
f 372/2/319 335/10/328 373/18/336
f 579/11/329 335/10/328 372/2/319
f 374/17/335 581/22/340 380/16/333
f 383/23/341 380/16/333 581/22/340
f 372/2/319 370/3/321 579/11/329
f 370/3/321 546/24/342 336/21/339
f 465/25/343 464/143/344 371/1/320
f 520/26/345 519/148/346 470/28/347
f 477/29/348 476/153/349 373/18/336
f 544/30/350 543/158/351 482/32/352
f 336/21/339 369/33/353 366/20/337
f 395/34/354 396/58/355 536/36/356
f 496/37/357 495/168/358 367/38/331
f 508/39/359 507/173/360 385/41/361
f 513/42/362 512/178/363 387/44/364
f 402/45/365 401/358/366 530/47/367
f 404/48/368 403/185/369 549/50/370
f 554/51/371 559/195/372 399/53/373
f 408/54/374 407/198/375 560/56/376
f 567/57/377 566/206/378 396/58/355
f 324/60/379 325/59/380 326/61/381
f 384/63/382 337/62/383 330/64/384
f 331/66/385 412/65/386 384/63/382
f 584/68/387 411/67/388 412/65/386
f 321/70/389 322/69/390 485/71/391
f 328/73/392 329/72/393 334/74/394
f 327/75/395 328/73/392 381/76/396
f 382/78/397 319/77/398 320/79/399
f 382/78/397 332/80/400 319/77/398
f 327/75/395 381/76/396 326/61/381
f 326/61/381 381/76/396 324/60/379
f 334/74/394 381/76/396 328/73/392
f 381/76/396 334/74/394 582/82/401
f 382/78/397 413/95/402 585/83/403
f 411/67/388 545/84/404 324/60/379
f 462/85/405 461/316/406 326/61/381
f 517/86/407 516/325/408 467/88/409
f 474/89/410 473/331/411 328/73/392
f 541/90/412 540/346/413 479/92/414
f 490/94/415 323/93/416 413/95/402
f 350/96/417 349/119/418 533/98/419
f 493/99/420 492/424/421 322/69/390
f 505/100/422 504/233/423 340/102/424
f 510/103/425 509/243/426 342/105/427
f 355/106/428 356/357/429 527/108/430
f 357/109/431 358/228/432 552/111/433
f 557/112/434 556/242/435 354/114/436
f 361/115/437 362/250/438 563/117/439
f 570/118/440 569/258/441 349/119/418
f 370/3/321 371/1/320 429/121/442
f 612/122/443 611/404/444 621/124/445
f 383/23/341 376/4/323 460/126/446
f 613/127/447 612/122/443 622/123/448
f 426/129/449 368/12/330 487/13/450
f 488/14/332 367/38/331 421/132/451
f 375/15/334 380/16/333 458/134/452
f 365/19/338 366/20/337 419/135/453
f 418/136/454 365/19/338 419/135/453
f 614/137/455 613/127/447 623/128/456
f 380/16/333 383/23/341 459/125/457
f 546/24/342 370/3/321 428/120/458
f 465/25/343 372/2/319 436/141/459
f 429/121/442 371/1/320 464/143/344
f 515/144/460 520/26/345 469/27/461
f 471/146/462 470/28/347 519/148/346
f 477/29/348 374/17/335 450/150/463
f 443/151/464 373/18/336 476/153/349
f 539/154/465 544/30/350 481/31/466
f 483/156/467 482/32/352 543/158/351
f 455/159/468 395/34/354 535/35/469
f 536/36/356 396/58/355 452/162/470
f 496/37/357 368/12/330 426/129/449
f 393/164/471 394/214/472 424/166/473
f 421/132/451 367/38/331 495/168/358
f 508/39/359 386/40/474 435/170/475
f 430/171/476 385/41/361 507/173/360
f 513/42/362 388/43/477 442/175/478
f 437/176/479 387/44/364 512/178/363
f 448/179/480 402/45/365 529/46/481
f 530/47/367 401/358/366 445/182/482
f 433/183/483 404/48/368 548/49/484
f 403/185/369 404/48/368 433/183/483
f 549/50/370 403/185/369 432/186/485
f 554/51/371 400/52/486 441/189/487
f 405/190/488 406/356/489 440/192/490
f 438/193/491 399/53/373 559/195/372
f 447/196/492 408/54/374 565/55/493
f 407/198/375 408/54/374 447/196/492
f 560/56/376 407/198/375 446/199/494
f 567/57/377 395/34/354 455/159/468
f 410/202/495 409/359/496 454/204/497
f 452/162/470 396/58/355 566/206/378
f 324/60/379 381/76/396 583/81/498
f 412/65/386 332/80/400 584/68/387
f 583/81/498 411/67/388 324/60/379
f 585/83/403 411/67/388 584/68/387
f 413/95/402 382/78/397 320/79/399
f 424/166/473 394/214/472 572/208/499
f 347/209/500 348/222/501 576/211/502
f 573/212/503 393/164/471 423/165/504
f 394/214/472 393/164/471 573/212/503
f 332/80/400 333/215/505 319/77/398
f 319/216/398 333/376/505 418/136/454
f 420/217/506 319/216/398 419/135/453
f 421/132/451 321/425/389 490/218/415
f 493/219/420 321/425/389 421/132/451
f 423/220/504 347/209/500 575/210/507
f 348/222/501 347/209/500 423/220/504
f 576/211/502 348/222/501 424/166/473
f 426/129/449 322/426/390 492/223/421
f 485/224/391 322/426/390 426/129/449
f 428/120/458 324/427/379 545/225/404
f 325/226/380 324/427/379 428/120/458
f 462/227/405 325/226/380 429/121/442
f 505/100/422 339/101/508 430/171/476
f 432/186/485 357/109/431 551/110/509
f 358/228/432 357/109/431 432/186/485
f 552/111/433 358/228/432 433/229/483
f 435/231/475 340/102/424 504/233/423
f 436/141/459 326/284/381 461/234/406
f 518/147/510 517/327/407 472/235/511
f 510/103/425 341/104/512 437/237/479
f 557/112/434 353/113/513 438/239/491
f 360/240/514 359/355/515 439/241/516
f 441/189/487 354/114/436 556/242/435
f 442/175/478 342/105/427 509/243/426
f 468/145/517 467/283/409 516/244/408
f 474/245/410 327/428/395 443/151/464
f 445/246/482 355/106/428 532/107/518
f 446/248/494 361/115/437 562/116/519
f 362/250/438 361/115/437 446/248/494
f 563/117/439 362/250/438 447/196/492
f 527/108/430 356/357/429 448/179/480
f 450/150/463 328/300/392 473/251/411
f 542/157/520 541/348/412 484/252/521
f 452/253/470 350/96/417 538/97/522
f 570/118/440 350/96/417 452/253/470
f 363/256/523 364/360/524 453/257/525
f 455/159/468 349/119/418 569/258/441
f 533/98/419 349/119/418 455/159/468
f 480/155/526 479/299/414 540/259/413
f 334/261/394 329/260/393 457/133/527
f 582/262/401 334/261/394 458/134/452
f 330/263/384 337/429/383 459/125/457
f 615/264/528 614/137/455 624/138/529
f 598/266/530 597/430/531 333/215/505
f 616/267/532 615/264/528 625/265/533
f 339/269/508 340/431/424 497/271/534
f 430/272/476 339/432/508 502/274/535
f 385/275/361 430/272/476 501/273/536
f 386/277/474 385/275/361 500/276/537
f 435/279/475 386/277/474 499/278/538
f 340/281/424 435/279/475 498/280/539
f 443/151/464 327/428/395 467/283/409
f 373/18/336 443/151/464 468/145/517
f 372/2/319 373/18/336 469/27/461
f 436/141/459 372/2/319 470/28/347
f 326/284/381 436/141/459 471/146/462
f 327/75/395 326/61/381 472/87/511
f 344/285/540 343/433/541 521/287/542
f 444/288/543 344/434/540 526/290/544
f 390/291/545 444/288/543 525/289/546
f 389/293/547 390/291/545 524/292/548
f 449/295/549 389/293/547 523/294/550
f 343/297/541 449/295/549 522/296/551
f 457/133/527 329/260/393 479/299/414
f 375/15/334 457/133/527 480/155/526
f 374/17/335 375/15/334 481/31/466
f 450/150/463 374/17/335 482/32/352
f 328/300/392 450/150/463 483/156/467
f 329/72/393 328/73/392 484/91/521
f 427/301/552 323/353/416 485/224/391
f 369/33/353 427/301/552 486/130/553
f 366/20/337 369/33/353 487/13/450
f 489/131/554 420/217/506 488/14/332
f 320/302/399 420/217/506 489/131/554
f 490/94/415 485/71/391 323/93/416
f 415/303/555 425/315/556 491/305/557
f 416/306/558 415/303/555 492/304/421
f 422/308/559 416/306/558 493/307/420
f 417/310/560 422/361/559 494/312/561
f 414/313/562 417/310/560 495/311/358
f 425/315/556 414/313/562 496/314/357
f 466/140/563 461/234/406 497/282/534
f 465/25/343 466/140/563 498/280/539
f 464/143/344 465/25/343 499/278/538
f 463/142/564 464/143/344 500/276/537
f 462/227/405 463/142/564 501/273/536
f 461/316/406 462/85/405 502/270/535
f 352/317/565 434/354/566 503/232/567
f 351/318/568 352/317/565 504/233/423
f 431/319/569 351/318/568 505/100/422
f 397/320/570 431/319/569 506/172/571
f 398/321/572 397/320/570 507/173/360
f 434/322/566 398/321/572 508/39/359
f 353/113/513 354/114/436 509/243/426
f 438/239/491 353/113/513 510/103/425
f 399/53/373 438/193/491 511/177/573
f 400/52/486 399/53/373 512/178/363
f 441/189/487 400/52/486 513/42/362
f 354/114/436 441/189/487 514/174/574
f 342/323/427 442/330/478 515/144/460
f 341/324/512 342/435/427 516/325/408
f 437/326/479 341/436/512 517/327/407
f 387/328/364 437/326/479 518/147/510
f 388/329/477 387/328/364 519/148/346
f 442/330/478 388/329/477 520/26/345
f 478/149/575 473/251/411 521/298/542
f 477/29/348 478/149/575 522/296/551
f 476/153/349 477/29/348 523/294/550
f 475/152/576 476/153/349 524/292/548
f 474/245/410 475/152/576 525/289/546
f 473/331/411 474/89/410 526/286/544
f 449/332/549 343/337/541 527/108/430
f 389/333/547 449/332/549 528/180/577
f 390/334/545 389/333/547 529/46/481
f 444/335/543 390/334/545 530/47/367
f 344/336/540 444/437/543 531/247/578
f 343/337/541 344/336/540 532/107/518
f 456/338/579 346/343/580 533/98/419
f 392/339/581 456/338/579 534/160/582
f 391/340/583 392/339/581 535/35/469
f 451/341/584 391/340/583 536/36/356
f 345/342/585 451/438/584 537/254/586
f 346/343/580 345/342/585 538/97/522
f 346/344/580 456/351/579 539/154/465
f 345/345/585 346/439/580 540/346/413
f 451/347/584 345/440/585 541/348/412
f 391/349/583 451/347/584 542/157/520
f 392/350/581 391/349/583 543/158/351
f 456/351/579 392/350/581 544/30/350
f 412/65/386 331/66/385 586/352/587
f 323/353/416 427/301/552 547/139/588
f 427/301/552 369/33/353 546/24/342
f 546/24/342 369/33/353 336/21/339
f 397/320/570 398/321/572 548/49/484
f 431/319/569 397/320/570 549/50/370
f 351/318/568 431/319/569 550/187/589
f 352/317/565 351/318/568 551/110/509
f 434/354/566 352/317/565 552/111/433
f 398/321/572 434/322/566 553/184/590
f 440/192/490 406/356/489 554/51/371
f 360/240/514 440/192/490 555/188/591
f 359/355/515 360/240/514 556/242/435
f 439/241/516 359/355/515 557/112/434
f 405/190/488 439/191/516 558/194/592
f 406/356/489 405/190/488 559/195/372
f 445/182/482 401/358/366 560/56/376
f 355/106/428 445/246/482 561/249/593
f 356/357/429 355/106/428 562/116/519
f 448/179/480 356/357/429 563/117/439
f 402/45/365 448/179/480 564/197/594
f 401/358/366 402/45/365 565/55/493
f 409/359/496 410/202/495 566/206/378
f 454/204/497 409/359/496 567/57/377
f 363/256/523 454/204/497 568/201/595
f 364/360/524 363/256/523 569/258/441
f 453/257/525 364/360/524 570/118/440
f 410/202/495 453/203/525 571/205/596
f 417/310/560 414/313/562 572/208/499
f 422/361/559 417/310/560 573/212/503
f 416/306/558 422/308/559 574/221/597
f 415/303/555 416/306/558 575/210/507
f 425/315/556 415/303/555 576/211/502
f 414/313/562 425/315/556 577/207/598
f 578/9/327 336/21/339 378/8/325
f 578/9/327 338/7/326 335/10/328
f 579/11/329 336/21/339 578/9/327
f 377/5/322 580/6/324 338/7/326
f 374/17/335 335/10/328 581/22/340
f 581/22/340 335/10/328 580/6/324
f 585/83/403 323/93/416 545/84/404
f 582/82/401 337/62/383 384/63/382
f 459/125/457 337/429/383 582/262/401
f 384/63/382 412/65/386 411/67/388
f 545/84/404 411/67/388 585/83/403
f 585/83/403 413/95/402 323/93/416
f 584/68/387 332/80/400 382/78/397
f 607/362/599 616/267/532 626/268/600
f 586/352/587 332/80/400 412/65/386
f 413/95/402 320/79/399 490/94/415
f 586/352/587 598/266/530 332/80/400
f 590/364/601 595/391/602 636/366/603
f 602/367/604 601/374/605 460/126/446
f 603/368/606 602/367/604 376/4/323
f 604/369/607 603/368/606 377/5/322
f 605/370/608 604/369/607 378/8/325
f 606/372/609 605/370/608 379/371/610
f 599/373/611 600/381/612 331/66/385
f 601/374/605 599/441/611 330/263/384
f 597/375/531 606/372/609 418/136/454
f 589/377/613 590/364/601 635/365/614
f 588/379/615 589/377/613 634/378/616
f 600/381/612 586/352/587 331/66/385
f 591/382/617 596/394/618 631/384/619
f 592/385/620 591/382/617 630/383/621
f 593/387/622 592/385/620 629/386/623
f 594/389/624 593/387/622 628/388/625
f 595/391/602 594/389/624 627/390/626
f 587/392/627 588/379/615 633/380/628
f 596/394/618 587/442/627 632/395/629
f 586/352/587 600/381/612 598/266/530
f 601/396/605 602/410/604 607/362/599
f 599/398/611 601/396/605 608/397/630
f 600/400/612 599/443/611 609/402/631
f 598/403/530 600/400/612 610/401/632
f 597/405/531 598/403/530 611/404/444
f 606/406/609 597/405/531 612/122/443
f 605/407/608 606/406/609 613/127/447
f 604/408/607 605/407/608 614/137/455
f 603/409/606 604/408/607 615/264/528
f 602/410/604 603/409/606 616/267/532
f 608/397/630 607/362/599 617/363/633
f 609/399/631 608/397/630 618/411/634
f 610/401/632 609/402/631 619/414/635
f 611/404/444 610/401/632 620/413/636
f 625/265/533 624/138/529 627/390/626
f 626/268/600 625/265/533 628/388/625
f 617/363/633 626/268/600 629/386/623
f 618/411/634 617/363/633 630/383/621
f 619/412/635 618/411/634 631/384/619
f 620/413/636 619/414/635 632/393/629
f 621/124/445 620/413/636 633/380/628
f 622/123/448 621/124/445 634/378/616
f 623/128/456 622/123/448 635/365/614
f 624/138/529 623/128/456 636/366/603
f 378/8/325 377/5/322 338/7/326
f 376/4/323 383/23/341 580/6/324
f 579/11/329 370/3/321 336/21/339
f 485/71/391 490/94/415 321/70/389
f 411/67/388 583/81/498 384/63/382
f 384/63/382 583/81/498 582/82/401
f 330/64/384 331/66/385 384/63/382
f 593/415/622 594/423/624 591/417/617
f 590/418/601 587/422/627 596/420/618
f 589/421/613 588/444/615 587/422/627
f 595/419/602 596/420/618 591/417/617
f 320/302/399 319/216/398 420/217/506
f 420/217/506 419/135/453 366/20/337
f 366/20/337 488/14/332 420/217/506
f 379/371/610 378/8/325 365/19/338
f 379/371/610 365/19/338 418/136/454
f 338/7/326 580/6/324 335/10/328
f 580/6/324 383/23/341 581/22/340
f 458/134/452 334/261/394 457/133/527
f 49/38/38 50/12/12 170/14/14
f 146/143/143 147/25/25 53/1/1
f 201/148/148 202/26/26 152/28/28
f 158/153/153 159/29/29 55/18/18
f 225/158/158 226/30/30 164/32/32
f 78/58/58 77/34/34 218/36/36
f 177/168/168 178/37/37 49/38/38
f 189/173/173 190/39/39 67/41/41
f 194/178/178 195/42/42 69/44/44
f 83/358/277 84/45/45 212/47/47
f 85/185/185 86/48/48 231/50/50
f 241/195/195 236/51/51 81/53/53
f 89/198/198 90/54/54 242/56/56
f 248/206/206 249/57/57 78/58/58
f 16/74/74 63/76/76 264/82/82
f 95/95/95 64/78/78 267/83/83
f 143/316/221 144/85/85 8/61/61
f 198/325/225 199/86/86 149/88/88
f 155/331/227 156/89/89 10/73/73
f 222/346/230 223/90/90 161/92/92
f 31/119/119 32/96/96 215/98/98
f 174/424/218 175/99/99 4/69/69
f 186/233/220 187/100/100 22/102/102
f 191/243/224 192/103/103 24/105/105
f 38/357/276 37/106/106 209/108/108
f 40/228/219 39/109/109 234/111/111
f 238/242/223 239/112/112 36/114/114
f 44/250/226 43/115/115 245/117/117
f 251/258/229 252/118/118 31/119/119
f 53/1/1 52/3/3 111/121/121
f 293/404/315 294/122/122 303/124/124
f 58/4/4 65/23/23 142/126/126
f 294/122/122 295/127/127 304/123/123
f 50/12/12 108/129/129 169/13/13
f 49/38/38 170/14/14 103/132/132
f 62/16/16 57/15/15 140/134/134
f 295/127/127 296/137/137 305/128/128
f 65/23/23 62/16/16 141/125/125
f 52/3/3 228/24/24 110/120/120
f 54/2/2 147/25/25 118/141/141
f 53/1/1 111/121/121 146/143/143
f 202/26/26 197/144/144 151/27/27
f 152/28/28 153/146/146 201/148/148
f 56/17/17 159/29/29 132/150/150
f 55/18/18 125/151/151 158/153/153
f 226/30/30 221/154/154 163/31/31
f 164/32/32 165/156/156 225/158/158
f 77/34/34 137/159/159 217/35/35
f 78/58/58 218/36/36 134/162/162
f 50/12/12 178/37/37 108/129/129
f 76/214/214 75/164/164 106/166/166
f 49/38/38 103/132/132 177/168/168
f 68/40/40 190/39/39 117/170/170
f 67/41/41 112/171/171 189/173/173
f 70/43/43 195/42/42 124/175/175
f 69/44/44 119/176/176 194/178/178
f 84/45/45 130/179/179 211/46/46
f 83/358/277 212/47/47 127/182/182
f 86/48/48 115/183/183 230/49/49
f 86/48/48 85/185/185 115/183/183
f 85/185/185 231/50/50 114/186/186
f 82/52/52 236/51/51 123/189/189
f 88/356/275 87/190/190 122/192/192
f 81/53/53 120/193/193 241/195/195
f 90/54/54 129/196/196 247/55/55
f 90/54/54 89/198/198 129/196/196
f 89/198/198 242/56/56 128/199/199
f 77/34/34 249/57/57 137/159/159
f 91/359/278 92/202/202 136/204/204
f 78/58/58 134/162/162 248/206/206
f 76/214/214 106/166/166 254/208/208
f 30/222/217 29/209/209 258/211/211
f 75/164/164 255/212/212 105/165/165
f 75/164/164 76/214/214 255/212/212
f 15/376/215 1/216/77 100/136/136
f 3/425/70 103/132/132 172/218/94
f 3/425/70 175/219/99 103/132/132
f 29/209/209 105/220/165 257/210/210
f 29/209/209 30/222/217 105/220/165
f 30/222/217 258/211/211 106/166/166
f 4/426/69 108/129/129 174/223/218
f 4/426/69 167/224/71 108/129/129
f 6/427/60 110/120/120 227/225/84
f 6/427/60 7/226/59 110/120/120
f 7/226/59 144/227/85 111/121/121
f 21/101/101 187/100/100 112/171/171
f 39/109/109 114/186/186 233/110/110
f 39/109/109 40/228/219 114/186/186
f 40/228/219 234/111/111 115/229/183
f 22/102/102 117/231/170 186/233/220
f 8/284/61 118/141/141 143/234/221
f 199/327/86 200/147/147 154/235/87
f 23/104/104 192/103/103 119/237/176
f 35/113/113 239/112/112 120/239/193
f 41/355/274 42/240/222 121/241/191
f 36/114/114 123/189/189 238/242/223
f 24/105/105 124/175/175 191/243/224
f 149/283/88 150/145/145 198/244/225
f 9/428/75 156/245/89 125/151/151
f 37/106/106 127/246/182 214/107/107
f 43/115/115 128/248/199 244/116/116
f 43/115/115 44/250/226 128/248/199
f 44/250/226 245/117/117 129/196/196
f 38/357/276 209/108/108 130/179/179
f 10/300/73 132/150/150 155/251/227
f 223/348/90 224/157/157 166/252/91
f 32/96/96 134/253/162 220/97/97
f 32/96/96 252/118/118 134/253/162
f 46/360/279 45/256/228 135/257/203
f 31/119/119 137/159/159 251/258/229
f 31/119/119 215/98/98 137/159/159
f 161/299/92 162/155/155 222/259/230
f 19/429/62 12/263/64 141/125/125
f 296/137/137 297/264/231 306/138/138
f 279/430/293 280/266/233 15/215/215
f 297/264/231 298/267/234 307/265/232
f 22/431/102 21/269/101 179/271/237
f 21/432/101 112/272/171 184/274/236
f 112/272/171 67/275/41 183/273/238
f 67/275/41 68/277/40 182/276/239
f 68/277/40 117/279/170 181/278/240
f 117/279/170 22/281/102 180/280/241
f 9/428/75 125/151/151 149/283/88
f 125/151/151 55/18/18 150/145/145
f 55/18/18 54/2/2 151/27/27
f 54/2/2 118/141/141 152/28/28
f 118/141/141 8/284/61 153/146/146
f 8/61/61 9/75/75 154/87/87
f 25/433/253 26/285/242 203/287/244
f 26/434/242 126/288/245 208/290/243
f 126/288/245 72/291/247 207/289/246
f 72/291/247 71/293/249 206/292/248
f 71/293/249 131/295/251 205/294/250
f 131/295/251 25/297/253 204/296/252
f 11/260/72 139/133/133 161/299/92
f 139/133/133 57/15/15 162/155/155
f 57/15/15 56/17/17 163/31/31
f 56/17/17 132/150/150 164/32/32
f 132/150/150 10/300/73 165/156/156
f 10/73/73 11/72/72 166/91/91
f 5/353/93 109/301/254 167/224/71
f 109/301/254 51/33/33 168/130/130
f 51/33/33 48/20/20 169/13/13
f 102/217/216 2/302/79 171/131/131
f 107/315/260 97/303/255 173/305/163
f 97/303/255 98/306/256 174/304/218
f 98/306/256 104/308/257 175/307/99
f 104/361/257 99/310/258 176/312/167
f 99/310/258 96/313/259 177/311/168
f 96/313/259 107/315/260 178/314/37
f 143/234/221 148/140/140 179/282/237
f 148/140/140 147/25/25 180/280/241
f 147/25/25 146/143/143 181/278/240
f 146/143/143 145/142/142 182/276/239
f 145/142/142 144/227/85 183/273/238
f 144/85/85 143/316/221 184/270/236
f 116/354/266 34/317/261 185/232/169
f 34/317/261 33/318/262 186/233/220
f 33/318/262 113/319/263 187/100/100
f 113/319/263 79/320/264 188/172/172
f 79/320/264 80/321/265 189/173/173
f 80/321/265 116/322/266 190/39/39
f 36/114/114 35/113/113 191/243/224
f 35/113/113 120/239/193 192/103/103
f 120/193/193 81/53/53 193/177/177
f 81/53/53 82/52/52 194/178/178
f 82/52/52 123/189/189 195/42/42
f 123/189/189 36/114/114 196/174/174
f 124/330/175 24/323/105 197/144/144
f 24/435/105 23/324/104 198/325/225
f 23/436/104 119/326/176 199/327/86
f 119/326/176 69/328/44 200/147/147
f 69/328/44 70/329/43 201/148/148
f 70/329/43 124/330/175 202/26/26
f 155/251/227 160/149/149 203/298/244
f 160/149/149 159/29/29 204/296/252
f 159/29/29 158/153/153 205/294/250
f 158/153/153 157/152/152 206/292/248
f 157/152/152 156/245/89 207/289/246
f 156/89/89 155/331/227 208/286/243
f 25/337/253 131/332/251 209/108/108
f 131/332/251 71/333/249 210/180/180
f 71/333/249 72/334/247 211/46/46
f 72/334/247 126/335/245 212/47/47
f 126/437/245 26/336/242 213/247/181
f 26/336/242 25/337/253 214/107/107
f 28/343/272 138/338/267 215/98/98
f 138/338/267 74/339/268 216/160/160
f 74/339/268 73/340/269 217/35/35
f 73/340/269 133/341/270 218/36/36
f 133/438/270 27/342/271 219/254/161
f 27/342/271 28/343/272 220/97/97
f 138/351/267 28/344/272 221/154/154
f 28/439/272 27/345/271 222/346/230
f 27/440/271 133/347/270 223/348/90
f 133/347/270 73/349/269 224/157/157
f 73/349/269 74/350/268 225/158/158
f 74/350/268 138/351/267 226/30/30
f 109/301/254 5/353/93 229/139/139
f 51/33/33 109/301/254 228/24/24
f 80/321/265 79/320/264 230/49/49
f 79/320/264 113/319/263 231/50/50
f 113/319/263 33/318/262 232/187/187
f 33/318/262 34/317/261 233/110/110
f 34/317/261 116/354/266 234/111/111
f 116/322/266 80/321/265 235/184/184
f 88/356/275 122/192/192 236/51/51
f 122/192/192 42/240/222 237/188/188
f 42/240/222 41/355/274 238/242/223
f 41/355/274 121/241/191 239/112/112
f 121/191/191 87/190/190 240/194/194
f 87/190/190 88/356/275 241/195/195
f 83/358/277 127/182/182 242/56/56
f 127/246/182 37/106/106 243/249/200
f 37/106/106 38/357/276 244/116/116
f 38/357/276 130/179/179 245/117/117
f 130/179/179 84/45/45 246/197/197
f 84/45/45 83/358/277 247/55/55
f 92/202/202 91/359/278 248/206/206
f 91/359/278 136/204/204 249/57/57
f 136/204/204 45/256/228 250/201/201
f 45/256/228 46/360/279 251/258/229
f 46/360/279 135/257/203 252/118/118
f 135/203/203 92/202/202 253/205/205
f 96/313/259 99/310/258 254/208/208
f 99/310/258 104/361/257 255/212/212
f 104/308/257 98/306/256 256/221/213
f 98/306/256 97/303/255 257/210/210
f 97/303/255 107/315/260 258/211/211
f 107/315/260 96/313/259 259/207/207
f 19/429/62 141/125/125 264/262/82
f 298/267/234 289/362/280 308/268/235
f 277/391/308 272/364/282 318/366/284
f 283/374/292 284/367/285 142/126/126
f 284/367/285 285/368/286 58/4/4
f 285/368/286 286/369/287 59/5/5
f 286/369/287 287/370/288 60/8/8
f 287/370/288 288/372/290 61/371/289
f 282/381/298 281/373/291 13/66/66
f 281/441/291 283/374/292 12/263/64
f 288/372/290 279/375/293 100/136/136
f 272/364/282 271/377/294 317/365/283
f 271/377/294 270/379/296 316/378/295
f 278/394/311 273/382/299 313/384/301
f 273/382/299 274/385/302 312/383/300
f 274/385/302 275/387/304 311/386/303
f 275/387/304 276/389/306 310/388/305
f 276/389/306 277/391/308 309/390/307
f 270/379/296 269/392/309 315/380/297
f 269/442/309 278/394/311 314/395/310
f 284/410/285 283/396/292 289/362/280
f 283/396/292 281/398/291 290/397/312
f 281/443/291 282/400/298 291/402/313
f 282/400/298 280/403/233 292/401/314
f 280/403/233 279/405/293 293/404/315
f 279/405/293 288/406/290 294/122/122
f 288/406/290 287/407/288 295/127/127
f 287/407/288 286/408/287 296/137/137
f 286/408/287 285/409/286 297/264/231
f 285/409/286 284/410/285 298/267/234
f 289/362/280 290/397/312 299/363/281
f 290/397/312 291/399/313 300/411/316
f 291/402/313 292/401/314 301/414/317
f 292/401/314 293/404/315 302/413/318
f 306/138/138 307/265/232 309/390/307
f 307/265/232 308/268/235 310/388/305
f 308/268/235 299/363/281 311/386/303
f 299/363/281 300/411/316 312/383/300
f 300/411/316 301/412/317 313/384/301
f 301/414/317 302/413/318 314/393/310
f 302/413/318 303/124/124 315/380/297
f 303/124/124 304/123/123 316/378/295
f 304/123/123 305/128/128 317/365/283
f 305/128/128 306/138/138 318/366/284
f 276/423/306 275/415/304 273/417/299
f 269/422/309 272/418/282 278/420/311
f 270/444/296 271/421/294 269/422/309
f 278/420/311 277/419/308 273/417/299
f 487/13/450 368/12/330 488/14/332
f 372/2/319 465/25/343 371/1/320
f 469/27/461 520/26/345 470/28/347
f 374/17/335 477/29/348 373/18/336
f 481/31/466 544/30/350 482/32/352
f 535/35/469 395/34/354 536/36/356
f 368/12/330 496/37/357 367/38/331
f 386/40/474 508/39/359 385/41/361
f 388/43/477 513/42/362 387/44/364
f 529/46/481 402/45/365 530/47/367
f 548/49/484 404/48/368 549/50/370
f 400/52/486 554/51/371 399/53/373
f 565/55/493 408/54/374 560/56/376
f 395/34/354 567/57/377 396/58/355
f 583/81/498 381/76/396 582/82/401
f 584/68/387 382/78/397 585/83/403
f 325/59/380 462/85/405 326/61/381
f 472/87/511 517/86/407 467/88/409
f 327/75/395 474/89/410 328/73/392
f 484/91/521 541/90/412 479/92/414
f 538/97/522 350/96/417 533/98/419
f 321/70/389 493/99/420 322/69/390
f 339/101/508 505/100/422 340/102/424
f 341/104/512 510/103/425 342/105/427
f 532/107/518 355/106/428 527/108/430
f 551/110/509 357/109/431 552/111/433
f 353/113/513 557/112/434 354/114/436
f 562/116/519 361/115/437 563/117/439
f 350/96/417 570/118/440 349/119/418
f 428/120/458 370/3/321 429/121/442
f 622/123/448 612/122/443 621/124/445
f 459/125/457 383/23/341 460/126/446
f 623/128/456 613/127/447 622/123/448
f 486/130/553 426/129/449 487/13/450
f 489/131/554 488/14/332 421/132/451
f 457/133/527 375/15/334 458/134/452
f 624/138/529 614/137/455 623/128/456
f 458/134/452 380/16/333 459/125/457
f 547/139/588 546/24/342 428/120/458
f 466/140/563 465/25/343 436/141/459
f 463/142/564 429/121/442 464/143/344
f 468/145/517 515/144/460 469/27/461
f 518/147/510 471/146/462 519/148/346
f 478/149/575 477/29/348 450/150/463
f 475/152/576 443/151/464 476/153/349
f 480/155/526 539/154/465 481/31/466
f 542/157/520 483/156/467 543/158/351
f 534/160/582 455/159/468 535/35/469
f 537/161/586 536/36/356 452/162/470
f 491/163/557 496/37/357 426/129/449
f 423/165/504 393/164/471 424/166/473
f 494/167/561 421/132/451 495/168/358
f 503/169/567 508/39/359 435/170/475
f 506/172/571 430/171/476 507/173/360
f 514/174/574 513/42/362 442/175/478
f 511/177/573 437/176/479 512/178/363
f 528/180/577 448/179/480 529/46/481
f 531/181/578 530/47/367 445/182/482
f 553/184/590 433/183/483 548/49/484
f 432/186/485 403/185/369 433/183/483
f 550/187/589 549/50/370 432/186/485
f 555/188/591 554/51/371 441/189/487
f 439/191/516 405/190/488 440/192/490
f 558/194/592 438/193/491 559/195/372
f 564/197/594 447/196/492 565/55/493
f 446/199/494 407/198/375 447/196/492
f 561/200/593 560/56/376 446/199/494
f 568/201/595 567/57/377 455/159/468
f 453/203/525 410/202/495 454/204/497
f 571/205/596 452/162/470 566/206/378
f 577/207/598 424/166/473 572/208/499
f 575/210/507 347/209/500 576/211/502
f 574/213/597 573/212/503 423/165/504
f 572/208/499 394/214/472 573/212/503
f 419/135/453 319/216/398 418/136/454
f 489/131/554 421/132/451 490/218/415
f 494/167/561 493/219/420 421/132/451
f 574/221/597 423/220/504 575/210/507
f 424/166/473 348/222/501 423/220/504
f 577/207/598 576/211/502 424/166/473
f 491/163/557 426/129/449 492/223/421
f 486/130/553 485/224/391 426/129/449
f 547/139/588 428/120/458 545/225/404
f 429/121/442 325/226/380 428/120/458
f 463/142/564 462/227/405 429/121/442
f 506/172/571 505/100/422 430/171/476
f 550/187/589 432/186/485 551/110/509
f 433/229/483 358/228/432 432/186/485
f 553/230/590 552/111/433 433/229/483
f 503/232/567 435/231/475 504/233/423
f 466/140/563 436/141/459 461/234/406
f 471/146/462 518/147/510 472/235/511
f 511/236/573 510/103/425 437/237/479
f 558/238/592 557/112/434 438/239/491
f 440/192/490 360/240/514 439/241/516
f 555/188/591 441/189/487 556/242/435
f 514/174/574 442/175/478 509/243/426
f 515/144/460 468/145/517 516/244/408
f 475/152/576 474/245/410 443/151/464
f 531/247/578 445/246/482 532/107/518
f 561/249/593 446/248/494 562/116/519
f 447/196/492 362/250/438 446/248/494
f 564/197/594 563/117/439 447/196/492
f 528/180/577 527/108/430 448/179/480
f 478/149/575 450/150/463 473/251/411
f 483/156/467 542/157/520 484/252/521
f 537/254/586 452/253/470 538/97/522
f 571/255/596 570/118/440 452/253/470
f 454/204/497 363/256/523 453/257/525
f 568/201/595 455/159/468 569/258/441
f 534/160/582 533/98/419 455/159/468
f 539/154/465 480/155/526 540/259/413
f 460/126/446 330/263/384 459/125/457
f 625/265/533 615/264/528 624/138/529
f 332/80/400 598/266/530 333/215/505
f 626/268/600 616/267/532 625/265/533
f 502/270/535 339/269/508 497/271/534
f 501/273/536 430/272/476 502/274/535
f 500/276/537 385/275/361 501/273/536
f 499/278/538 386/277/474 500/276/537
f 498/280/539 435/279/475 499/278/538
f 497/282/534 340/281/424 498/280/539
f 468/145/517 443/151/464 467/283/409
f 469/27/461 373/18/336 468/145/517
f 470/28/347 372/2/319 469/27/461
f 471/146/462 436/141/459 470/28/347
f 472/235/511 326/284/381 471/146/462
f 467/88/409 327/75/395 472/87/511
f 526/286/544 344/285/540 521/287/542
f 525/289/546 444/288/543 526/290/544
f 524/292/548 390/291/545 525/289/546
f 523/294/550 389/293/547 524/292/548
f 522/296/551 449/295/549 523/294/550
f 521/298/542 343/297/541 522/296/551
f 480/155/526 457/133/527 479/299/414
f 481/31/466 375/15/334 480/155/526
f 482/32/352 374/17/335 481/31/466
f 483/156/467 450/150/463 482/32/352
f 484/252/521 328/300/392 483/156/467
f 479/92/414 329/72/393 484/91/521
f 486/130/553 427/301/552 485/224/391
f 487/13/450 369/33/353 486/130/553
f 488/14/332 366/20/337 487/13/450
f 490/218/415 320/302/399 489/131/554
f 492/304/421 415/303/555 491/305/557
f 493/307/420 416/306/558 492/304/421
f 494/309/561 422/308/559 493/307/420
f 495/311/358 417/310/560 494/312/561
f 496/314/357 414/313/562 495/311/358
f 491/305/557 425/315/556 496/314/357
f 498/280/539 466/140/563 497/282/534
f 499/278/538 465/25/343 498/280/539
f 500/276/537 464/143/344 499/278/538
f 501/273/536 463/142/564 500/276/537
f 502/274/535 462/227/405 501/273/536
f 497/271/534 461/316/406 502/270/535
f 504/233/423 352/317/565 503/232/567
f 505/100/422 351/318/568 504/233/423
f 506/172/571 431/319/569 505/100/422
f 507/173/360 397/320/570 506/172/571
f 508/39/359 398/321/572 507/173/360
f 503/169/567 434/322/566 508/39/359
f 510/103/425 353/113/513 509/243/426
f 511/236/573 438/239/491 510/103/425
f 512/178/363 399/53/373 511/177/573
f 513/42/362 400/52/486 512/178/363
f 514/174/574 441/189/487 513/42/362
f 509/243/426 354/114/436 514/174/574
f 516/244/408 342/323/427 515/144/460
f 517/86/407 341/324/512 516/325/408
f 518/147/510 437/326/479 517/327/407
f 519/148/346 387/328/364 518/147/510
f 520/26/345 388/329/477 519/148/346
f 515/144/460 442/330/478 520/26/345
f 522/296/551 478/149/575 521/298/542
f 523/294/550 477/29/348 522/296/551
f 524/292/548 476/153/349 523/294/550
f 525/289/546 475/152/576 524/292/548
f 526/290/544 474/245/410 525/289/546
f 521/287/542 473/331/411 526/286/544
f 528/180/577 449/332/549 527/108/430
f 529/46/481 389/333/547 528/180/577
f 530/47/367 390/334/545 529/46/481
f 531/181/578 444/335/543 530/47/367
f 532/107/518 344/336/540 531/247/578
f 527/108/430 343/337/541 532/107/518
f 534/160/582 456/338/579 533/98/419
f 535/35/469 392/339/581 534/160/582
f 536/36/356 391/340/583 535/35/469
f 537/161/586 451/341/584 536/36/356
f 538/97/522 345/342/585 537/254/586
f 533/98/419 346/343/580 538/97/522
f 540/259/413 346/344/580 539/154/465
f 541/90/412 345/345/585 540/346/413
f 542/157/520 451/347/584 541/348/412
f 543/158/351 391/349/583 542/157/520
f 544/30/350 392/350/581 543/158/351
f 539/154/465 456/351/579 544/30/350
f 545/225/404 323/353/416 547/139/588
f 547/139/588 427/301/552 546/24/342
f 549/50/370 397/320/570 548/49/484
f 550/187/589 431/319/569 549/50/370
f 551/110/509 351/318/568 550/187/589
f 552/111/433 352/317/565 551/110/509
f 553/230/590 434/354/566 552/111/433
f 548/49/484 398/321/572 553/184/590
f 555/188/591 440/192/490 554/51/371
f 556/242/435 360/240/514 555/188/591
f 557/112/434 359/355/515 556/242/435
f 558/238/592 439/241/516 557/112/434
f 559/195/372 405/190/488 558/194/592
f 554/51/371 406/356/489 559/195/372
f 561/200/593 445/182/482 560/56/376
f 562/116/519 355/106/428 561/249/593
f 563/117/439 356/357/429 562/116/519
f 564/197/594 448/179/480 563/117/439
f 565/55/493 402/45/365 564/197/594
f 560/56/376 401/358/366 565/55/493
f 567/57/377 409/359/496 566/206/378
f 568/201/595 454/204/497 567/57/377
f 569/258/441 363/256/523 568/201/595
f 570/118/440 364/360/524 569/258/441
f 571/255/596 453/257/525 570/118/440
f 566/206/378 410/202/495 571/205/596
f 573/212/503 417/310/560 572/208/499
f 574/213/597 422/361/559 573/212/503
f 575/210/507 416/306/558 574/221/597
f 576/211/502 415/303/555 575/210/507
f 577/207/598 425/315/556 576/211/502
f 572/208/499 414/313/562 577/207/598
f 458/134/452 459/125/457 582/262/401
f 617/363/633 607/362/599 626/268/600
f 635/365/614 590/364/601 636/366/603
f 376/4/323 602/367/604 460/126/446
f 377/5/322 603/368/606 376/4/323
f 378/8/325 604/369/607 377/5/322
f 379/371/610 605/370/608 378/8/325
f 418/136/454 606/372/609 379/371/610
f 330/64/384 599/373/611 331/66/385
f 460/126/446 601/374/605 330/263/384
f 333/376/505 597/375/531 418/136/454
f 634/378/616 589/377/613 635/365/614
f 633/380/628 588/379/615 634/378/616
f 630/383/621 591/382/617 631/384/619
f 629/386/623 592/385/620 630/383/621
f 628/388/625 593/387/622 629/386/623
f 627/390/626 594/389/624 628/388/625
f 636/366/603 595/391/602 627/390/626
f 632/393/629 587/392/627 633/380/628
f 631/384/619 596/394/618 632/395/629
f 608/397/630 601/396/605 607/362/599
f 609/399/631 599/398/611 608/397/630
f 610/401/632 600/400/612 609/402/631
f 611/404/444 598/403/530 610/401/632
f 612/122/443 597/405/531 611/404/444
f 613/127/447 606/406/609 612/122/443
f 614/137/455 605/407/608 613/127/447
f 615/264/528 604/408/607 614/137/455
f 616/267/532 603/409/606 615/264/528
f 607/362/599 602/410/604 616/267/532
f 618/411/634 608/397/630 617/363/633
f 619/412/635 609/399/631 618/411/634
f 620/413/636 610/401/632 619/414/635
f 621/124/445 611/404/444 620/413/636
f 628/388/625 625/265/533 627/390/626
f 629/386/623 626/268/600 628/388/625
f 630/383/621 617/363/633 629/386/623
f 631/384/619 618/411/634 630/383/621
f 632/395/629 619/412/635 631/384/619
f 633/380/628 620/413/636 632/393/629
f 634/378/616 621/124/445 633/380/628
f 635/365/614 622/123/448 634/378/616
f 636/366/603 623/128/456 635/365/614
f 627/390/626 624/138/529 636/366/603
f 592/416/620 593/415/622 591/417/617
f 595/419/602 590/418/601 596/420/618
f 590/418/601 589/421/613 587/422/627
f 594/423/624 595/419/602 591/417/617
