# Blender 5.1.2
# www.blender.org
mtllib tree.mtl
o tree1
v -0.327919 0.000000 0.327921
v -0.032584 2.379194 0.177705
v -0.327919 -0.000000 -0.327918
v -0.183591 2.331938 -0.006673
v 0.327919 0.000000 0.327921
v 0.151588 2.436309 0.026624
v 0.327919 -0.000000 -0.327918
v 0.007014 2.391600 -0.164272
v 0.223579 0.603648 0.048802
v 0.183644 1.185079 -0.106511
v 0.206810 2.080871 0.040275
v 0.176846 0.597641 -0.396633
v 0.104327 1.195093 -0.359857
v 0.071607 2.062111 -0.210156
v -0.221503 0.597641 -0.351976
v -0.183736 1.195093 -0.280449
v -0.192585 1.797356 -0.216763
v -0.176097 0.604591 0.079372
v -0.130345 1.259414 -0.011003
v -0.064164 1.792545 0.068883
v -0.420023 3.137258 0.118218
v -0.508664 3.084501 -0.015105
v -0.394094 3.152683 -0.118258
v -0.305453 3.205439 0.015065
v -0.964270 3.978442 0.096968
v -0.996996 3.900414 -0.012394
v -0.954692 4.001263 -0.097008
v -0.921966 4.079291 0.012354
v -2.017777 3.768461 0.081529
v -2.032754 3.698911 -0.010424
v -2.013392 3.788802 -0.081569
v -1.998415 3.858352 0.010384
v -2.562293 4.165215 0.032408
v -2.578769 4.142217 -0.004157
v -2.557473 4.171940 -0.032448
v -2.540998 4.194939 0.004117
v 0.734346 2.509214 -0.365824
v 0.790019 2.545118 -0.251530
v 0.823942 2.372840 -0.387700
v 0.876615 2.392854 -0.265095
v 1.145621 3.006812 -0.382448
v 1.160097 3.038025 -0.285991
v 1.265326 2.967445 -0.402681
v 1.285150 2.986411 -0.301740
v 0.988421 3.621600 -0.245801
v 0.999097 3.648472 -0.160708
v 1.095232 3.592731 -0.263185
v 1.111119 3.609059 -0.174261
v 1.568106 4.056559 -0.297185
v 1.575973 4.065686 -0.270734
v 1.597180 4.035766 -0.303065
v 1.605581 4.041223 -0.275117
v -0.210129 2.741523 -1.058665
v -0.065296 2.762726 -1.077060
v -0.002286 2.558806 -1.177204
v -0.250297 2.544846 -1.139844
v -0.029268 2.333926 -0.558519
v -0.132036 2.307246 -0.495167
v -0.143673 2.062287 -0.587090
v 0.008925 2.164282 -0.592244
v -0.243724 2.768837 -1.620955
v -0.133662 2.777933 -1.634999
v -0.080843 2.612161 -1.597846
v -0.269613 2.612634 -1.580598
v -0.196345 2.561949 -1.967853
v -0.099991 2.569291 -1.979917
v -0.053733 2.427023 -1.937032
v -0.218975 2.428040 -1.923288
v -0.228343 2.743558 -2.380354
v -0.179134 2.753648 -2.385594
v -0.152802 2.685054 -2.418992
v -0.237553 2.675422 -2.408056
v 0.069140 1.159855 0.048531
v 0.078718 1.009600 0.132104
v -0.109315 1.023834 0.220477
v -0.066897 1.153002 0.148198
v 0.049364 2.639410 0.044102
v -0.114129 2.569543 0.181209
v 0.493697 2.584059 0.578417
v 0.353967 2.541160 0.695542
v 0.409492 2.736677 0.583114
v 0.286005 2.684095 0.690157
v 0.840951 2.969098 1.135749
v 0.727666 2.942098 1.245723
v 0.732469 3.057375 1.084037
v 0.635846 3.024233 1.189482
v 0.914506 3.601700 1.407358
v 0.860042 3.592942 1.462776
v 0.855363 3.623207 1.370774
v 0.809595 3.612769 1.424928
v 2.413559 4.419895 -0.558618
v 2.079180 3.305984 0.324075
v 1.092836 3.801725 -0.631498
v 1.289426 4.929401 0.866041
v -1.896500 4.178324 -0.486675
v -3.143049 3.446081 -0.282488
v -3.169905 4.892564 -0.479266
v -2.598350 4.401334 1.248433
v -1.026111 4.427088 1.167364
v -2.277066 3.713239 0.928022
v -2.194389 4.702536 1.998634
v -1.350826 3.075976 2.440934
v 1.137212 6.426467 1.812437
v -0.203925 5.861096 1.928477
v 0.957547 5.074197 2.332861
v 0.755674 5.168909 0.461177
v -0.366586 5.822186 2.385374
v -1.735839 5.513378 1.983454
v -0.619454 5.137897 1.120636
v -1.012799 6.979787 1.045488
v 1.138054 3.414025 0.830543
v 1.514670 4.360178 1.046965
v 1.699748 3.565747 1.693887
v 0.446729 4.040716 1.797911
v 1.825174 5.364810 -0.526581
v 1.902251 4.349378 -0.310159
v 1.387143 4.981863 0.336763
v 2.721463 5.105316 0.440787
v -1.648039 4.178324 -0.392997
v -0.838044 3.446081 -1.362266
v -0.689105 4.892564 -1.230888
v -2.250893 4.401333 -2.164933
v -0.986799 4.178323 -2.580049
v 0.089977 3.446081 -1.919648
v -0.018341 4.892563 -1.753185
v 0.678608 4.401333 -3.434221
v 1.266847 4.649225 -0.376750
v 1.676547 3.916982 -1.571623
v 1.862624 5.363464 -1.502212
v 0.070063 4.872234 -1.815812
v 0.190510 5.043243 -2.191847
v -0.677305 4.311001 -1.273984
v -0.817921 5.757484 -1.414234
v 0.683754 5.266254 -0.386327
v -1.222193 4.966362 -1.567183
v -2.090008 4.234119 -0.649320
v -2.230623 5.680602 -0.789569
v -0.728949 5.189372 0.238337
v 1.115797 6.859633 -0.076512
v 1.628170 5.777591 0.680316
v 1.879963 5.850260 -0.711606
v 0.175271 5.311736 -0.327461
v -0.421838 3.647320 -3.189340
v 0.090535 3.692195 -1.869647
v 0.342328 2.564739 -2.689142
v -1.362364 2.593343 -2.028265
v -0.536053 6.343997 -0.200007
v -0.273538 5.467792 -0.111081
v 0.045136 6.104210 0.470277
v 0.566342 6.152308 -0.594444
v 0.048761 4.546885 -0.043307
v 0.311276 3.670680 0.045620
v 0.629950 4.307099 0.626977
v 1.151156 4.355196 -0.437743
v -0.943375 4.508445 -1.035443
v -0.680860 3.632239 -0.946516
v -0.362187 4.268658 -0.365159
v 0.159020 4.316756 -1.429879
v -1.064084 3.589427 -1.485934
v -1.036745 3.118613 -2.274696
v -0.669600 2.759825 -1.512440
v 0.007797 3.606343 -1.994249
v -0.720830 5.934444 -0.204893
v -0.728369 5.926065 -1.123823
v -0.441163 5.186573 -0.659903
v 0.361436 6.060198 -0.674453
v -0.720829 4.896541 1.880525
v -0.728368 4.888161 0.961596
v -0.441162 4.148669 1.425516
v 0.361436 5.022295 1.410966
v -0.720830 5.377051 0.938723
v -0.728369 5.368672 0.019794
v -0.441163 4.629180 0.483714
v 0.361436 5.502806 0.469164
v -1.394714 4.661478 2.013906
v -0.538675 4.822484 1.720935
v -0.685651 4.227914 2.406093
v -0.780339 5.359111 2.751095
v 0.976899 5.209260 -0.357708
v 1.832938 5.370267 -0.650678
v 1.685962 4.775697 0.034480
v 1.591274 5.906893 0.379482
v -1.213832 5.507176 0.229297
v -0.357793 5.668183 -0.063674
v -0.504769 5.073613 0.621485
v -0.599457 6.204810 0.966487
v -0.805391 3.738896 0.338739
v 0.050649 3.899903 0.045769
v -0.096327 3.305333 0.730927
v -0.191015 4.436530 1.075929
v 0.101783 4.632647 0.862496
v 0.957822 4.793653 0.569525
v 0.810847 4.199083 1.254683
v 0.716159 5.330281 1.599686
v -1.142741 3.681235 -1.293081
v -0.286701 3.842242 -1.586052
v -0.433677 3.247672 -0.900894
v -0.528365 4.378869 -0.555892
v 1.133254 4.305023 1.301178
v 0.647178 3.804881 1.899632
v 0.882423 4.668716 2.107013
v 1.788144 3.909035 2.207771
v 0.940472 4.881197 1.877463
v 1.533402 4.562768 1.781042
v 1.034318 4.255062 2.125268
v 1.442537 4.872231 2.597382
v 0.940472 4.218091 2.108108
v 1.533402 3.899663 2.011688
v 1.034318 3.591957 2.355913
v 1.442537 4.209126 2.828027
v 0.450259 5.131063 2.549139
v 1.043189 4.812634 2.452719
v 0.544104 4.504927 2.796944
v 0.952323 5.122097 3.269058
v -0.316702 5.021714 1.737278
v -0.701333 4.636431 1.154194
v -0.447004 5.383613 1.038407
v -1.291093 5.336218 1.626526
v -1.269390 4.725982 2.287313
v -1.764691 4.377428 1.768125
v -1.305810 4.986603 1.534239
v -2.111517 5.288501 2.100199
v 2.349855 3.970184 0.197741
v 1.868583 4.326154 -0.329548
v 1.990239 3.538732 -0.368736
v 2.786843 4.083765 -0.727872
v 1.922708 3.795125 0.444354
v 1.732123 4.136973 -0.250762
v 1.280353 3.547838 0.041117
v 2.162763 3.208791 -0.367559
v -1.825968 5.712225 2.331981
v -1.521942 5.634056 1.598613
v -2.311239 5.691224 1.699176
v -1.943318 4.762782 1.950663
v -0.126567 2.351614 0.101663
v 0.102486 2.437523 -0.091903
v 0.108606 2.542214 0.032310
v -0.081766 2.470495 0.194215
v -0.170424 2.446616 0.100457
v 0.040942 2.522211 -0.070652
v 2.579937 3.725537 -0.164305
v 1.724285 3.975011 1.080711
v 1.483185 3.212198 -0.224825
v 2.071626 5.132087 0.163814
v 0.699719 4.489966 0.088104
v 1.760857 4.137216 -0.957831
v -2.395737 3.542424 -0.594804
v -3.071121 3.563300 0.779167
v -3.453209 4.135547 -0.588658
v -1.776269 4.323889 0.567083
v -3.099052 5.065815 0.574779
v -2.418042 4.743618 -0.758221
v -1.598893 4.098147 0.688807
v -1.988563 2.926451 1.594188
v -2.569052 4.326884 1.379109
v -0.689137 3.667963 1.842803
v -1.902685 3.954090 2.706295
v -1.530236 4.919680 1.577863
v 0.341098 6.465234 1.985637
v -0.156658 5.471510 0.932473
v 0.191900 5.342276 2.417811
v 1.236434 6.058787 0.811933
v 1.049822 4.654104 1.352526
v 1.305607 5.811776 2.321453
v -1.131676 5.577846 2.527634
v -1.834911 6.459055 1.491597
v -1.341665 5.009600 1.477358
v -0.412586 6.779828 1.909088
v -0.675260 6.069027 0.595354
v -0.204603 5.266037 1.811127
v 1.383509 3.921692 0.688085
v 0.879856 4.548147 1.426943
v 1.849948 4.047688 1.405025
v 0.488645 3.565317 1.202139
v 1.072106 3.722925 2.098932
v 1.537203 3.261986 1.225298
v 1.827565 4.800924 -0.669040
v 2.555126 4.459239 0.069821
v 1.463813 4.482915 0.047902
v 2.475068 5.514021 -0.154992
v 2.020060 5.116227 0.741812
v 1.399797 5.326151 -0.131827
v -1.199511 3.542434 -0.637455
v -1.586378 3.563281 -2.118773
v -0.403194 4.135547 -1.333246
v -2.427754 4.323892 -1.111953
v -1.431652 5.065826 -1.982324
v -1.075830 4.743615 -0.528352
v -0.679704 3.542430 -2.171847
v 0.729595 3.563292 -2.770051
v 0.124517 4.135546 -1.485203
v -0.388901 4.323890 -3.456050
v 0.617104 5.065826 -2.597131
v -0.769652 4.743611 -2.033613
v 1.598260 4.013335 -0.765471
v 0.707122 4.034181 -2.010393
v 2.093004 4.606447 -1.700074
v 0.281549 4.794791 -0.769235
v 0.900417 5.536733 -1.938320
v 1.752783 5.214510 -0.707830
v -0.272140 4.407351 -1.975306
v 0.023305 4.428209 -0.473081
v -1.109563 5.000466 -1.329569
v 0.924752 5.188810 -1.426505
v -0.122776 5.930739 -0.618744
v -0.388911 5.608536 -2.091777
v -1.684842 4.330470 -1.350641
v -1.389397 4.351327 0.151583
v -2.522266 4.923584 -0.704905
v -0.487951 5.111928 -0.801841
v -1.535479 5.853858 0.005921
v -1.801614 5.531654 -1.467112
v 1.449731 6.539888 0.565626
v 0.764518 5.222724 0.523050
v 2.084312 5.701684 0.038236
v 0.232296 6.346683 -0.263107
v 1.026077 5.298194 -0.922825
v 1.658819 6.600230 -0.590247
v -0.087908 4.011463 -2.571297
v -0.773112 3.257938 -1.490118
v 0.546675 3.112473 -2.155920
v -1.305342 3.211319 -2.860953
v -0.511556 2.086788 -2.341365
v 0.121191 3.075212 -3.251821
v -0.617910 5.837177 -0.203501
v 0.246922 5.562689 -0.528402
v -0.135273 5.638059 0.353103
v -0.025771 6.472857 -0.620780
v 0.577944 6.223766 0.075482
v -0.353273 6.365670 0.279261
v -0.033096 4.040066 -0.046800
v 0.831736 3.765578 -0.371702
v 0.449541 3.840947 0.509803
v 0.559043 4.675745 -0.464080
v 1.162758 4.426654 0.232182
v 0.231542 4.568558 0.435962
v -1.025232 4.001625 -1.038936
v -0.160400 3.727137 -1.363838
v -0.542595 3.802506 -0.482333
v -0.433093 4.637305 -1.456216
v 0.170622 4.388213 -0.759954
v -0.760595 4.530117 -0.556174
v -1.263585 3.422382 -1.928510
v -0.450065 3.403019 -2.444874
v -0.935997 2.733469 -1.950520
v -0.478463 3.892081 -1.625540
v -0.068692 3.030330 -1.653074
v -0.958707 3.124436 -1.295522
v -0.924688 6.041619 -0.663732
v -0.102845 6.175318 -1.149042
v -0.692444 5.420572 -1.041582
v -0.095013 6.184013 -0.194489
v 0.195484 5.407173 -0.667134
v -0.686190 5.427528 -0.278482
v -0.924687 5.003715 1.421687
v -0.102844 5.137414 0.936377
v -0.692444 4.382668 1.043837
v -0.095012 5.146110 1.890929
v 0.195484 4.369269 1.418285
v -0.686189 4.389625 1.806937
v -0.924688 5.484226 0.479885
v -0.102845 5.617925 -0.005425
v -0.692444 4.863179 0.102035
v -0.095013 5.626621 0.949127
v 0.195484 4.849781 0.476483
v -0.686189 4.870135 0.865135
v -1.041468 4.745753 1.651010
v -0.466903 5.332694 2.155190
v -0.452655 4.385719 1.976691
v -1.356106 5.165440 2.459514
v -0.619571 4.715073 2.866913
v -1.163520 4.252015 2.219981
v 1.330145 5.293536 -0.720603
v 1.904710 5.880476 -0.216423
v 1.918959 4.933501 -0.394922
v 1.015507 5.713223 0.087900
v 1.752043 5.262856 0.495299
v 1.208093 4.799797 -0.151632
v -0.860586 5.591452 -0.133598
v -0.286022 6.178393 0.370581
v -0.271773 5.231418 0.192083
v -1.175224 6.011139 0.674905
v -0.438689 5.560772 1.082304
v -0.982638 5.097713 0.435372
v -0.452145 3.823172 -0.024156
v 0.122420 4.410112 0.480024
v 0.136669 3.463137 0.301525
v -0.766783 4.242859 0.784347
v -0.030247 3.792492 1.191746
v -0.574196 3.329433 0.544814
v 0.455029 4.716922 0.499600
v 1.029594 5.303864 1.003780
v 1.043843 4.356888 0.825282
v 0.140391 5.136610 1.308104
v 0.876927 4.686243 1.715503
v 0.332977 4.223184 1.068571
v -0.789495 3.765511 -1.655977
v -0.214930 4.352452 -1.151797
v -0.200681 3.405476 -1.330296
v -1.104133 4.185198 -0.847473
v -0.367597 3.734831 -0.440075
v -0.911546 3.271772 -1.087006
v 0.766918 3.968413 1.427937
v 1.209411 3.564798 2.183001
v 0.558620 4.270431 2.097114
v 1.714328 4.084329 1.561347
v 1.453774 4.462111 2.398402
v 0.962267 4.685759 1.600146
v 1.243652 4.782373 1.671108
v 1.720866 4.756767 2.200250
v 1.321584 4.262414 1.876891
v 1.104956 5.087543 2.300406
v 1.202445 4.437143 2.557809
v 0.829201 4.526845 1.956961
v 1.243652 4.119268 1.901753
v 1.720865 4.093662 2.430895
v 1.321584 3.599308 2.107537
v 1.104956 4.424438 2.531051
v 1.202445 3.774038 2.788454
v 0.829201 3.863740 2.187606
v 0.753439 5.032238 2.342784
v 1.230652 5.006633 2.871926
v 0.831370 4.512279 2.548567
v 0.614743 5.337409 2.972082
v 0.712231 4.687008 3.229485
v 0.338988 4.776711 2.628637
v -0.411234 4.662176 1.491514
v -1.219079 4.826358 1.349086
v -0.519439 4.962703 0.911160
v -0.819545 5.226571 1.954757
v -0.954898 5.602499 1.228801
v -0.200036 5.282652 1.395365
v -1.471269 4.373746 2.103525
v -2.199011 4.740684 1.914844
v -1.501510 4.590168 1.478155
v -1.684518 5.102746 2.454154
v -1.722352 5.373461 1.671892
v -1.090201 4.879617 1.909302
v 2.035851 4.263154 0.078688
v 2.316047 4.428985 -0.691928
v 1.737219 3.904868 -0.391720
v 2.815967 4.059216 -0.144207
v 2.442421 3.611039 -0.732632
v 2.136873 3.609265 0.046147
v 1.876054 4.143947 0.170948
v 2.064081 3.756857 -0.546452
v 1.342627 3.938596 -0.163908
v 2.262039 3.401752 0.175604
v 1.594800 3.144890 -0.243262
v 1.500893 3.654716 0.413332
v -1.525668 5.796375 2.013636
v -1.543965 5.050692 1.634854
v -1.928649 5.778934 1.488136
v -1.859758 5.131883 2.396646
v -2.363833 5.110072 1.739306
v -2.181118 5.843847 2.097145
vn -0.0000 -1.0000 -0.0000
vn 0.8603 0.3681 -0.3526
vn 0.9854 0.1703 -0.0000
vn 0.9937 0.0403 -0.1048
vn 0.8768 0.0556 -0.4776
vn -0.2416 0.9532 -0.1817
vn -0.0000 -0.1142 -0.9935
vn -0.1113 0.0476 -0.9926
vn -0.1393 0.1634 -0.9767
vn 0.1573 0.7926 0.5891
vn -0.9789 0.1783 0.1002
vn -0.9933 0.0504 0.1038
vn -0.9786 -0.0358 0.2025
vn -0.8684 -0.1251 0.4798
vn -0.0000 0.3802 0.9249
vn 0.3206 0.8685 0.3781
vn 0.2487 -0.1737 0.9529
vn 0.3004 -0.1896 0.9348
vn 0.6843 0.4811 -0.5480
vn -0.5628 -0.2514 -0.7874
vn -0.5668 -0.2520 -0.7844
vn -0.5685 -0.2523 -0.7831
vn -0.7243 -0.3227 0.6093
vn 0.7271 0.4179 -0.5447
vn -0.1373 0.6327 0.7621
vn -0.6778 -0.4077 0.6119
vn 0.5048 0.3569 0.7860
vn 0.5052 0.3468 0.7903
vn 0.5051 0.3469 0.7903
vn -0.5814 -0.3659 -0.7267
vn 0.4223 0.6693 -0.6113
vn 0.1233 -0.6677 -0.7342
vn -0.1685 0.8255 -0.5386
vn 0.1567 -0.7998 0.5794
vn -0.8129 0.5824 -0.0000
vn -0.5144 -0.6416 0.5690
vn 0.3256 0.5427 0.7743
vn -0.3992 -0.4657 -0.7898
vn -0.1378 0.0781 -0.9874
vn -0.1321 0.0752 -0.9884
vn -0.1406 0.0795 -0.9869
vn 0.4115 -0.9110 -0.0281
vn 0.3840 0.0949 0.9185
vn -0.2313 0.0041 -0.9729
vn 0.0509 -0.1876 0.9809
vn 0.0478 -0.1879 0.9810
vn 0.0527 -0.1874 0.9809
vn 0.8209 -0.5684 -0.0544
vn 0.1178 -0.0192 0.9928
vn 0.1187 -0.0202 0.9927
vn 0.1173 -0.0187 0.9929
vn -0.7567 0.6311 0.1703
vn -0.1441 0.0746 -0.9867
vn -0.1424 0.0728 -0.9871
vn -0.1453 0.0758 -0.9865
vn -0.9285 -0.2892 0.2329
vn -0.1063 0.1895 -0.9761
vn -0.1039 0.1898 -0.9763
vn -0.1026 0.1899 -0.9764
vn 0.9265 0.3043 -0.2214
vn 0.5427 0.7310 -0.4137
vn 0.6517 -0.7569 -0.0481
vn 0.1421 0.0641 0.9878
vn -0.6010 0.7807 -0.1711
vn -0.0138 -0.9923 -0.1233
vn -0.9846 -0.0185 0.1738
vn -0.0374 -0.8288 -0.5583
vn 0.9636 0.2351 0.1275
vn 0.9710 0.2070 -0.1196
vn 0.5232 -0.7979 -0.2992
vn -0.9941 0.0761 -0.0769
vn -0.3610 0.9287 -0.0850
vn 0.0360 -0.8763 0.4805
vn 0.0403 -0.8769 0.4790
vn 0.0346 -0.8761 0.4809
vn -0.1376 0.9889 0.0563
vn -0.9816 0.1785 0.0678
vn -0.9824 0.1737 0.0691
vn -0.9826 0.1720 0.0695
vn 0.9539 0.2795 -0.1093
vn 0.0381 -0.8777 -0.4777
vn -0.1312 0.8427 -0.5221
vn -0.1346 0.8426 -0.5214
vn -0.1361 0.8426 -0.5211
vn -0.9750 0.1015 -0.1977
vn -0.9742 0.1079 -0.1984
vn -0.9753 0.0991 -0.1975
vn 0.9548 0.2863 -0.0800
vn -0.1608 0.3815 -0.9103
vn -0.0191 0.9145 0.4041
vn -0.9665 0.2116 0.1450
vn 0.9309 0.3650 -0.0157
vn 0.4216 0.3334 0.8433
vn -0.6029 0.5311 0.5953
vn 0.8375 0.1940 0.5109
vn 0.3769 -0.3488 0.8581
vn -0.6765 -0.2951 0.6747
vn -0.6761 -0.2956 0.6749
vn -0.6758 -0.2959 0.6751
vn -0.7019 -0.1376 0.6988
vn 0.5006 0.3567 0.7888
vn 0.5980 0.3585 -0.7169
vn -0.3461 0.9362 0.0615
vn -0.3468 0.9359 0.0626
vn -0.3470 0.9357 0.0630
vn -0.6965 -0.3068 0.6486
vn 0.3303 -0.9427 0.0482
vn 0.3307 -0.9425 0.0475
vn 0.3301 -0.9427 0.0485
vn -0.7292 0.4287 -0.5334
vn -0.7291 0.4287 -0.5335
vn 0.4747 -0.8329 0.2845
vn -0.5223 0.8302 -0.1947
vn 0.6355 0.3908 -0.6659
vn 0.1494 0.9415 0.3021
vn 0.1438 0.9422 0.3026
vn 0.1432 0.9423 0.3027
vn 0.5769 0.2658 -0.7723
vn 0.5797 0.2640 -0.7709
vn 0.5812 0.2631 -0.7701
vn -0.6261 -0.1232 0.7700
vn 0.6948 -0.3507 0.6279
vn 0.6943 -0.3507 0.6285
vn 0.6950 -0.3507 0.6277
vn 0.9410 0.3067 0.1430
vn -0.3563 -0.7766 0.5196
vn -0.5604 0.4238 -0.7115
vn 0.5874 -0.2886 -0.7561
vn 0.7869 -0.6170 -0.0045
vn -0.9235 -0.3695 0.1034
vn 0.1307 0.9769 -0.1693
vn 0.3534 -0.1197 -0.9278
vn 0.7041 -0.2713 -0.6562
vn -0.9184 -0.3904 -0.0634
vn 0.1939 0.7128 0.6740
vn 0.1522 0.7200 -0.6771
vn -0.0299 0.9372 -0.3474
vn -0.8507 -0.5019 0.1560
vn 0.8754 -0.4091 0.2577
vn 0.1907 0.6566 0.7298
vn 0.0239 0.4461 0.8947
vn -0.8736 -0.2935 -0.3883
vn 0.8542 -0.2157 -0.4731
vn 0.3316 -0.6292 0.7029
vn -0.4972 -0.0031 -0.8676
vn 0.4400 0.8390 0.3201
vn 0.1168 -0.8514 0.5114
vn 0.5313 -0.4571 -0.7133
vn 0.4453 0.2211 -0.8676
vn -0.0270 -0.9470 0.3201
vn -0.4788 0.7136 0.5114
vn -0.6781 0.1773 -0.7133
vn -0.5926 -0.6170 0.5178
vn 0.6314 -0.3695 -0.6818
vn 0.0118 0.9769 0.2136
vn 0.3390 -0.1197 0.9332
vn -0.5985 -0.6170 -0.5110
vn 0.7664 -0.3695 0.5255
vn -0.2096 0.9769 0.0427
vn -0.8739 -0.1197 0.4711
vn -0.3682 -0.6170 0.6955
vn 0.3457 -0.3695 -0.8625
vn 0.0874 0.9768 0.1953
vn 0.6503 -0.1197 0.7502
vn 0.6232 -0.6170 -0.4805
vn -0.6719 -0.3695 0.6419
vn 0.0013 0.9769 -0.2139
vn -0.2812 -0.1197 -0.9522
vn -0.4972 0.6454 0.5799
vn 0.4400 -0.8003 0.4072
vn 0.1168 0.1921 -0.9744
vn 0.5313 0.8356 0.1397
vn -0.4972 0.8379 -0.2251
vn 0.4400 -0.0947 0.8930
vn 0.1168 -0.7123 -0.6921
vn 0.5313 0.5725 -0.6244
vn -0.6487 0.1100 -0.7530
vn 0.3494 -0.9085 0.2292
vn 0.2440 0.7864 0.5675
vn -0.9264 0.1472 0.3466
vn -0.4774 0.8713 -0.1137
vn 0.0809 -0.6294 -0.7729
vn 0.3338 -0.2723 0.9025
vn -0.9064 -0.0330 0.4211
vn -0.3510 0.8652 0.3580
vn 0.0235 -0.1589 -0.9870
vn 0.2607 -0.7317 0.6297
vn -0.9174 -0.1179 0.3801
vn -0.6692 0.5204 -0.5305
vn 0.9719 0.0577 -0.2284
vn -0.3089 -0.6311 0.7115
vn -0.5006 -0.5978 -0.6261
vn 0.1809 -0.5129 -0.8392
vn -0.5444 -0.4132 0.7300
vn 0.3028 0.9497 0.0796
vn -0.5680 0.3351 -0.7517
vn -0.0043 0.8994 -0.4371
vn 0.8014 -0.5921 -0.0844
vn -0.8219 -0.3351 0.4606
vn -0.5644 -0.0080 -0.8254
vn 0.1122 -0.5807 0.8064
vn -0.4421 -0.3641 -0.8197
vn 0.3922 0.9198 -0.0112
vn 0.9471 -0.3088 0.0875
vn -0.0422 -0.4431 0.8955
vn -0.5501 -0.3518 -0.7574
vn 0.6439 0.7490 -0.1565
vn 0.8171 -0.5531 0.1625
vn 0.3609 0.6561 0.6628
vn -0.6408 0.3039 -0.7050
vn 0.2243 -0.9707 0.0858
vn -0.4424 -0.1126 0.8897
vn 0.8110 0.4243 0.4029
vn -0.3693 0.3478 -0.8618
vn -0.4818 -0.7242 0.4934
vn -0.2492 0.5766 0.7781
vn 0.7224 0.0349 0.6906
vn 0.2385 -0.0692 -0.9687
vn -0.9564 0.1054 0.2723
vn 0.1121 0.9295 0.3514
vn -0.3398 0.9099 -0.2379
vn 0.0618 0.9948 -0.0804
vn 0.3952 0.8567 -0.3315
vn -0.5148 0.1245 0.8483
vn -0.7879 -0.1001 0.6076
vn -0.6808 -0.4966 0.5385
vn -0.4799 -0.0171 -0.8771
vn -0.1408 -0.2665 -0.9535
vn -0.1427 -0.6349 -0.7593
vn 0.9991 -0.0363 0.0232
vn 0.8922 -0.2218 0.3935
vn 0.7160 -0.5977 0.3605
vn -0.8473 0.3463 0.4026
vn -0.5620 0.6708 0.4840
vn -0.4266 0.8949 0.1308
vn 0.1029 -0.4991 0.8604
vn -0.0745 -0.7928 0.6049
vn 0.1716 -0.9378 0.3018
vn -0.7805 -0.1884 -0.5961
vn -0.4802 -0.0651 -0.8747
vn -0.1657 -0.3328 -0.9283
vn 0.6375 0.7354 -0.2297
vn 0.8871 0.4613 -0.0164
vn 0.9710 0.1048 -0.2147
vn -0.7773 -0.5144 0.3622
vn -0.7787 -0.1506 0.6091
vn -0.8906 0.2189 0.3987
vn 0.5516 -0.5781 0.6013
vn 0.5813 -0.7816 0.2263
vn 0.8068 -0.5872 -0.0650
vn -0.5301 -0.4128 -0.7407
vn -0.4432 -0.0239 -0.8961
vn -0.0449 0.0427 -0.9981
vn -0.0771 0.9801 0.1829
vn 0.3223 0.8945 0.3097
vn 0.5915 0.8063 0.0044
vn 0.7832 -0.3104 -0.5388
vn 0.7218 -0.6425 -0.2573
vn 0.3559 -0.8777 -0.3210
vn 0.6770 0.5117 0.5289
vn 0.5347 0.8062 0.2531
vn 0.1447 0.9372 0.3173
vn -0.1324 0.2026 -0.9703
vn -0.5196 0.0642 -0.8520
vn -0.7319 0.3204 -0.6014
vn -0.4930 -0.7603 0.4230
vn -0.4420 -0.4905 0.7510
vn -0.6674 -0.1408 0.7312
vn 0.8257 0.0282 -0.5633
vn 0.8715 -0.3499 -0.3437
vn 0.5889 -0.6676 -0.4555
vn 0.5108 0.5904 0.6249
vn 0.2816 0.8725 0.3993
vn -0.1280 0.8707 0.4748
vn -0.2106 0.3159 -0.9251
vn -0.5371 0.0524 -0.8419
vn -0.8087 0.1889 -0.5571
vn -0.2379 -0.9314 0.2757
vn -0.2598 -0.7180 0.6458
vn -0.5781 -0.4515 0.6797
vn -0.4619 -0.6921 -0.5547
vn -0.3479 -0.3896 -0.8527
vn 0.0834 -0.3559 -0.9308
vn -0.9222 0.3335 0.1959
vn -0.8405 0.0857 0.5349
vn -0.5542 0.2332 0.7990
vn 0.2685 -0.9207 0.2832
vn 0.6403 -0.7096 0.2941
vn 0.6769 -0.4280 0.5988
vn 0.6288 0.5594 -0.5401
vn 0.4060 0.8542 -0.3248
vn 0.4821 0.8721 0.0843
vn -0.7708 0.6291 -0.1003
vn -0.8486 0.3303 -0.4132
vn -0.9610 -0.0691 -0.2679
vn 0.5010 0.6624 -0.5570
vn 0.6115 0.7750 -0.1594
vn 0.8610 0.5070 0.0392
vn -0.3585 0.2692 0.8939
vn -0.2866 -0.1491 0.9464
vn 0.1144 -0.2612 0.9585
vn -0.2031 -0.9080 -0.3664
vn 0.1769 -0.8212 -0.5426
vn 0.4997 -0.8199 -0.2794
vn 0.0726 -0.9483 -0.3091
vn -0.0873 -0.7430 -0.6635
vn 0.1914 -0.4676 -0.8630
vn -0.8691 -0.2886 0.4017
vn -0.6006 -0.3189 0.7332
vn -0.4630 0.0436 0.8853
vn 0.8557 -0.4121 0.3129
vn 0.9812 -0.0214 0.1919
vn 0.8520 0.2910 0.4352
vn 0.0072 0.6475 -0.7620
vn -0.3290 0.7797 -0.5328
vn -0.2372 0.9570 -0.1672
vn 0.0071 0.6475 -0.7620
vn -0.6913 -0.7224 0.0123
vn -0.9344 -0.3561 0.0109
vn -0.9235 -0.1247 -0.3628
vn 0.0397 -0.1409 0.9892
vn 0.3657 -0.3801 0.8496
vn 0.6923 -0.1681 0.7018
vn 0.2505 -0.7431 -0.6205
vn 0.3518 -0.3956 -0.8484
vn 0.6807 -0.1809 -0.7098
vn -0.3570 0.8586 -0.3680
vn -0.1650 0.9863 -0.0076
vn 0.2511 0.9679 -0.0109
vn -0.9235 -0.1246 -0.3628
vn -0.5875 -0.7036 0.3996
vn -0.8776 -0.4244 0.2229
vn -0.8843 -0.4136 -0.2165
vn 0.0221 0.3832 0.9234
vn 0.3823 0.1527 0.9114
vn 0.6825 0.3033 0.6650
vn 0.3710 -0.9128 -0.1707
vn 0.4328 -0.7173 -0.5461
vn 0.7245 -0.4200 -0.5466
vn -0.4558 0.4993 -0.7368
vn -0.2961 0.8156 -0.4971
vn 0.1185 0.8544 -0.5059
vn -0.4566 -0.0466 0.8885
vn -0.7738 -0.1699 0.6102
vn -0.7142 -0.5611 0.4185
vn -0.2151 0.9758 0.0379
vn 0.1871 0.9651 0.1830
vn 0.4771 0.8730 -0.1014
vn 0.6012 -0.4057 0.6885
vn 0.6722 -0.6539 0.3473
vn 0.8804 -0.4730 0.0352
vn -0.4413 -0.5823 -0.6828
vn -0.4017 -0.2108 -0.8912
vn -0.0124 -0.1047 -0.9944
vn -0.2152 0.9758 0.0379
vn 0.9321 0.0047 -0.3621
vn 0.8352 0.4329 -0.3390
vn 0.8001 0.5961 0.0677
vn -0.2749 -0.1573 -0.9485
vn -0.2688 -0.5538 -0.7881
vn -0.5705 -0.6403 -0.5143
vn 0.5691 -0.6727 0.4729
vn 0.3455 -0.5000 0.7941
vn -0.0598 -0.5956 0.8011
vn -0.2345 0.8609 0.4514
vn -0.5706 0.7979 0.1944
vn -0.8215 0.4834 0.3025
vn 0.9321 0.3062 -0.1934
vn 0.8352 0.5202 0.1782
vn 0.8001 0.2680 0.5367
vn -0.2749 0.7095 -0.6488
vn -0.2688 0.3589 -0.8938
vn -0.5705 0.0822 -0.8172
vn 0.5691 -0.7631 -0.3063
vn 0.3455 -0.9383 0.0135
vn -0.0598 -0.9962 -0.0628
vn -0.2345 0.0907 0.9679
vn -0.5706 0.2718 0.7749
vn -0.8215 0.0098 0.5702
vn -0.7943 0.2438 -0.5565
vn -0.6635 -0.1358 -0.7357
vn -0.7227 -0.4922 -0.4852
vn 0.5028 0.6217 -0.6006
vn 0.4127 0.8714 -0.2652
vn 0.6188 0.7809 0.0852
vn -0.7419 0.3498 0.5721
vn -0.5966 0.0198 0.8023
vn -0.2203 0.0729 0.9727
vn 0.1917 -0.9812 -0.0241
vn 0.5762 -0.8109 -0.1021
vn 0.7548 -0.6177 0.2209
vn 0.9534 0.2438 0.1775
vn 0.9087 -0.1358 0.3948
vn 0.8588 -0.4922 0.1422
vn -0.2089 0.6217 0.7549
vn -0.2658 0.8714 0.4123
vn -0.5985 0.7809 0.1787
vn 0.4383 0.3498 -0.8280
vn 0.2107 0.0198 -0.9774
vn -0.2024 0.0729 -0.9766
vn -0.1645 -0.9812 0.1013
vn -0.4822 -0.8109 0.3316
vn -0.7785 -0.6177 0.1116
vn -0.3812 0.2438 0.8918
vn -0.5835 -0.1358 0.8007
vn -0.3261 -0.4922 0.8071
vn -0.6912 0.6217 -0.3685
vn -0.3444 0.8714 -0.3493
vn -0.0439 0.7809 -0.6231
vn 0.7125 0.3498 0.6083
vn 0.9079 0.0198 0.4187
vn 0.9972 0.0729 0.0154
vn -0.0630 -0.9812 -0.1826
vn -0.2184 -0.8109 -0.5429
vn 0.0608 -0.6177 -0.7841
vn 0.8269 0.2438 0.5068
vn 0.7073 -0.1358 0.6937
vn 0.7511 -0.4922 0.4400
vn -0.4651 0.6217 0.6303
vn -0.3957 0.8714 0.2899
vn -0.6229 0.7809 -0.0472
vn 0.7054 0.3498 -0.6164
vn 0.5463 0.0198 -0.8373
vn 0.1603 0.0729 -0.9844
vn -0.1898 -0.9812 0.0358
vn -0.5689 -0.8109 0.1372
vn -0.7669 -0.6177 -0.1742
vn -0.9906 -0.0959 -0.0972
vn -0.8456 -0.1719 -0.5053
vn -0.6231 -0.5472 -0.5589
vn -0.1733 0.9807 -0.0907
vn -0.1553 0.9298 0.3337
vn 0.2223 0.8444 0.4874
vn -0.3862 -0.5059 0.7713
vn -0.0296 -0.7264 0.6866
vn 0.3268 -0.5325 0.7808
vn 0.4991 -0.4871 -0.7167
vn 0.6849 -0.1018 -0.7215
vn 0.9208 -0.0132 -0.3899
vn 0.9321 -0.3488 -0.0972
vn 0.8352 -0.2169 -0.5053
vn 0.8001 0.2181 -0.5589
vn -0.2749 -0.9572 -0.0907
vn -0.2688 -0.9036 0.3337
vn -0.5705 -0.6611 0.4874
vn 0.5691 0.2849 0.7713
vn 0.3455 0.6396 0.6867
vn -0.0598 0.6219 0.7808
vn -0.2345 0.6567 -0.7167
vn -0.5706 0.3922 -0.7215
vn -0.8215 0.4162 -0.3899
vn 0.2030 -0.9774 0.0594
vn 0.0626 -0.8830 0.4652
vn -0.3650 -0.7863 0.4984
vn 0.9799 0.1246 0.1558
vn 0.9513 0.1482 -0.2704
vn 0.7648 0.4901 -0.4181
vn -0.3184 -0.4802 -0.8173
vn -0.6412 -0.2109 -0.7378
vn -0.5591 0.1915 -0.8067
vn -0.6570 0.2925 0.6948
vn -0.3471 0.5849 0.7331
vn -0.3146 0.8531 0.4162
vn 0.0993 -0.0315 0.9946
vn -0.0744 0.3668 0.9273
vn -0.4916 0.3689 0.7888
vn 0.9647 0.2634 -0.0011
vn 0.9849 -0.1582 -0.0710
vn 0.8497 -0.2839 -0.4444
vn -0.2731 -0.8933 0.3571
vn -0.5749 -0.8157 0.0639
vn -0.4471 -0.8305 -0.3322
vn -0.6969 0.6561 -0.2897
vn -0.3660 0.7570 -0.5413
vn -0.2733 0.4769 -0.8354
vn -0.4422 0.8602 -0.2541
vn -0.2857 0.7147 -0.6384
vn -0.4843 0.3568 -0.7989
vn 0.7749 0.5759 0.2606
vn 0.5733 0.5194 0.6337
vn 0.5954 0.1348 0.7921
vn -0.8773 0.1015 0.4690
vn -0.8816 -0.3108 0.3553
vn -0.6142 -0.5554 0.5606
vn 0.0820 -0.6263 -0.7752
vn 0.4772 -0.6312 -0.6115
vn 0.5154 -0.8217 -0.2431
vn -0.2945 0.2438 -0.9240
vn -0.0819 -0.1358 -0.9873
vn -0.2809 -0.4922 -0.8239
vn 0.7639 0.6217 -0.1730
vn 0.4890 0.8714 0.0392
vn 0.4406 0.7809 0.4428
vn -0.9368 0.3498 0.0055
vn -0.9608 0.0198 0.2767
vn -0.7647 0.0729 0.6403
vn 0.1670 -0.9812 0.0970
vn 0.5202 -0.8109 0.2680
vn 0.4665 -0.6177 0.6331
vn -0.0846 -0.6031 -0.7932
vn 0.3395 -0.6447 -0.6849
vn 0.4173 -0.8554 -0.3069
vn 0.0963 0.7312 -0.6753
vn -0.3197 0.7511 -0.5776
vn -0.4068 0.8923 -0.1956
vn -0.8468 -0.5301 0.0444
vn -0.7086 -0.5444 0.4489
vn -0.7302 -0.1847 0.6578
vn 0.7747 -0.2472 0.5820
vn 0.8275 0.1745 0.5337
vn 0.5468 0.4130 0.7283
vn -0.4993 -0.4072 0.7648
vn -0.6560 -0.2940 0.6952
vn -0.7964 -0.3615 0.4848
vn 0.6851 0.4837 -0.5446
vn 0.6853 0.4838 -0.5444
vn 0.6851 0.4837 -0.5447
vn 0.6222 0.5832 -0.5222
vn 0.3762 0.4733 -0.7966
vn 0.9670 0.2324 -0.1046
vn 0.9473 0.1329 -0.2913
vn 0.9517 0.0868 -0.2945
vn -0.2299 0.9300 -0.2869
vn -0.0919 0.9946 0.0483
vn -0.1114 -0.0202 -0.9936
vn -0.2635 0.1311 -0.9557
vn -0.2645 0.0976 -0.9594
vn -0.0315 0.7692 0.6383
vn -0.9699 0.2436 -0.0000
vn -0.9807 0.0923 0.1726
vn -0.9787 0.0936 0.1825
vn -0.9807 0.0923 0.1723
vn -0.9105 0.0516 0.4102
vn -0.9035 -0.1435 0.4038
vn -0.6045 -0.1137 0.7884
vn 0.0699 0.4286 0.9008
vn 0.2874 0.8453 0.4504
vn 0.2729 -0.1624 0.9482
vn 0.6060 0.1243 0.7857
vn 0.6533 0.4469 -0.6112
vn -0.5609 -0.2511 -0.7889
vn -0.8123 -0.3456 0.4698
vn -0.6336 -0.2006 0.7472
vn 0.7570 0.3373 -0.5596
vn 0.6850 0.4836 -0.5449
vn -0.1389 0.6701 0.7292
vn -0.7155 -0.4494 0.5348
vn 0.5492 0.3898 0.7392
vn -0.5262 -0.3123 -0.7909
vn 0.4294 0.6852 -0.5882
vn 0.1215 -0.6320 -0.7654
vn -0.1688 0.7991 -0.5770
vn 0.1566 -0.8256 0.5422
vn -0.5014 -0.6125 0.6111
vn 0.3166 0.5251 0.7900
vn -0.4195 -0.5061 -0.7536
vn -0.1292 0.0737 -0.9889
vn 0.3542 -0.9272 -0.1218
vn 0.3631 0.1243 0.9234
vn -0.2780 0.0788 -0.9573
vn 0.0460 -0.1880 0.9811
vn 0.7769 -0.5827 -0.2386
vn 0.1191 -0.0207 0.9927
vn -0.8000 0.5956 -0.0727
vn -0.1413 0.0717 -0.9874
vn -0.9343 -0.2892 0.2085
vn -0.1077 0.1894 -0.9760
vn 0.9224 0.3041 -0.2383
vn 0.5108 0.8018 -0.3101
vn 0.6625 -0.7488 0.0192
vn 0.1725 0.0324 0.9845
vn -0.5954 0.7974 -0.0981
vn 0.0325 -0.9876 -0.1533
vn -0.9700 0.1082 0.2178
vn 0.4103 -0.6463 -0.6434
vn 0.9738 0.1966 0.1139
vn 0.9669 0.2366 -0.0953
vn 0.6602 -0.6494 -0.3774
vn -0.9924 0.0590 -0.1077
vn -0.3124 0.9437 -0.1093
vn 0.0415 -0.8771 0.4786
vn -0.0777 0.9963 0.0367
vn -0.9813 0.1801 0.0674
vn 0.9278 0.3500 -0.1289
vn -0.0431 -0.8906 -0.4528
vn -0.1296 0.8428 -0.5224
vn -0.9739 0.1101 -0.1987
vn -0.1764 0.3911 -0.9033
vn -0.1368 0.8915 0.4318
vn -0.9895 0.0870 0.1151
vn 0.9535 0.2992 -0.0358
vn 0.5158 0.4413 0.7343
vn -0.9784 0.0938 0.1843
vn 0.7161 0.3736 0.5896
vn 0.0747 -0.1748 0.9818
vn -0.6768 -0.2948 0.6745
vn 0.5058 0.3573 0.7852
vn 0.6839 0.3973 -0.6119
vn 0.7206 0.4579 -0.5206
vn -0.3457 0.9363 0.0611
vn -0.7571 -0.1644 0.6322
vn -0.6388 -0.4562 0.6195
vn 0.3310 -0.9425 0.0472
vn 0.4840 -0.8314 0.2729
vn -0.5128 0.8329 -0.2081
vn 0.6487 0.3782 -0.6604
vn 0.1556 0.9407 0.3015
vn 0.5753 0.2669 -0.7732
vn -0.6045 -0.1387 0.7844
vn 0.6940 -0.3507 0.6288
vt 0.029722 0.654761
vt 0.042853 0.667561
vt 0.042853 0.654761
vt 0.094239 0.712814
vt 0.094239 0.711294
vt 0.092679 0.712814
vt 0.029722 0.667690
vt 0.042853 0.680490
vt 0.042853 0.667690
vt 0.056244 0.674155
vt 0.062745 0.686955
vt 0.062745 0.674155
vt 0.069375 0.674025
vt 0.056244 0.667690
vt 0.056244 0.674025
vt 0.082766 0.654761
vt 0.082766 0.667561
vt 0.085951 0.667561
vt 0.029722 0.680619
vt 0.042853 0.693419
vt 0.042853 0.680619
vt 0.056114 0.680619
vt 0.042983 0.686955
vt 0.056114 0.686955
vt 0.076006 0.654761
vt 0.069505 0.667561
vt 0.076006 0.667561
vt 0.042853 0.700014
vt 0.029722 0.703117
vt 0.042853 0.703117
vt 0.056114 0.654761
vt 0.042983 0.667561
vt 0.056114 0.667561
vt 0.062874 0.654761
vt 0.069375 0.667561
vt 0.069375 0.654761
vt 0.069375 0.687084
vt 0.056244 0.693419
vt 0.069375 0.693419
vt 0.062874 0.674155
vt 0.066125 0.686955
vt 0.069375 0.686955
vt 0.042983 0.667690
vt 0.056114 0.680490
vt 0.056114 0.667690
vt 0.089267 0.716046
vt 0.082766 0.712943
vt 0.082766 0.716046
vt 0.069505 0.667690
vt 0.076006 0.680490
vt 0.076006 0.667690
vt 0.042983 0.693549
vt 0.049484 0.699884
vt 0.049484 0.693549
vt 0.062745 0.696652
vt 0.049613 0.693549
vt 0.049613 0.696652
vt 0.082766 0.667690
vt 0.085951 0.680490
vt 0.085951 0.667690
vt 0.062745 0.696781
vt 0.049613 0.696781
vt 0.049613 0.699884
vt 0.074413 0.680619
vt 0.072820 0.693419
vt 0.076006 0.693419
vt 0.076006 0.696652
vt 0.062874 0.693549
vt 0.062874 0.696652
vt 0.076135 0.654761
vt 0.079321 0.667561
vt 0.079321 0.654761
vt 0.076006 0.696781
vt 0.062874 0.699884
vt 0.076006 0.699884
vt 0.079321 0.667690
vt 0.076135 0.680490
vt 0.079321 0.680490
vt 0.056114 0.717662
vt 0.042983 0.716175
vt 0.042983 0.717662
vt 0.076135 0.680619
vt 0.079321 0.693419
vt 0.079321 0.680619
vt 0.056114 0.700014
vt 0.042983 0.703117
vt 0.056114 0.703117
vt 0.082636 0.654761
vt 0.079450 0.667561
vt 0.082636 0.667561
vt 0.070204 0.716175
vt 0.069505 0.716854
vt 0.070204 0.716854
vt 0.082636 0.714559
vt 0.069505 0.716046
vt 0.082636 0.716046
vt 0.092711 0.680619
vt 0.094239 0.693419
vt 0.094239 0.680619
vt 0.069375 0.716046
vt 0.056244 0.714559
vt 0.056244 0.716046
vt 0.082636 0.680619
vt 0.079450 0.693419
vt 0.082636 0.693419
vt 0.042853 0.706349
vt 0.029722 0.703246
vt 0.029722 0.706349
vt 0.056244 0.654761
vt 0.062745 0.667561
vt 0.062745 0.654761
vt 0.042853 0.699884
vt 0.029722 0.693549
vt 0.029722 0.699884
vt 0.085951 0.680619
vt 0.082766 0.693419
vt 0.085951 0.693419
vt 0.056114 0.716046
vt 0.042983 0.714559
vt 0.042983 0.716046
vt 0.085951 0.693549
vt 0.082766 0.706349
vt 0.085951 0.706349
vt 0.042853 0.714559
vt 0.029722 0.716046
vt 0.042853 0.716046
vt 0.094239 0.654761
vt 0.092711 0.667561
vt 0.094239 0.667561
vt 0.056114 0.712943
vt 0.042983 0.714430
vt 0.056114 0.714430
vt 0.091054 0.693549
vt 0.092582 0.706349
vt 0.092582 0.693549
vt 0.042853 0.714430
vt 0.029722 0.712943
vt 0.029722 0.714430
vt 0.071033 0.716175
vt 0.070333 0.716854
vt 0.071033 0.716854
vt 0.093411 0.693549
vt 0.092711 0.706349
vt 0.093411 0.706349
vt 0.069375 0.709711
vt 0.056244 0.711197
vt 0.069375 0.711197
vt 0.093540 0.693549
vt 0.094239 0.706349
vt 0.094239 0.693549
vt 0.062745 0.719278
vt 0.056244 0.716175
vt 0.056244 0.719278
vt 0.089396 0.667690
vt 0.092582 0.680490
vt 0.092582 0.667690
vt 0.069375 0.709581
vt 0.056244 0.706478
vt 0.056244 0.709581
vt 0.092582 0.680619
vt 0.089396 0.693419
vt 0.092582 0.693419
vt 0.069505 0.706478
vt 0.076006 0.712814
vt 0.076006 0.706478
vt 0.056114 0.706478
vt 0.049613 0.712814
vt 0.056114 0.712814
vt 0.049484 0.706478
vt 0.042983 0.712814
vt 0.049484 0.712814
vt 0.082636 0.706478
vt 0.076135 0.709581
vt 0.082636 0.709581
vt 0.085951 0.706478
vt 0.082766 0.712814
vt 0.085951 0.712814
vt 0.042853 0.706478
vt 0.029722 0.709581
vt 0.042853 0.709581
vt 0.086081 0.693549
vt 0.089267 0.706349
vt 0.089267 0.693549
vt 0.069375 0.706349
vt 0.056244 0.703246
vt 0.056244 0.706349
vt 0.089267 0.680619
vt 0.086081 0.693419
vt 0.089267 0.693419
vt 0.069375 0.716175
vt 0.062874 0.717662
vt 0.069375 0.717662
vt 0.089267 0.706478
vt 0.086081 0.712814
vt 0.089267 0.712814
vt 0.082636 0.709711
vt 0.076135 0.712814
vt 0.082636 0.712814
vt 0.091054 0.714559
vt 0.092582 0.716046
vt 0.092582 0.714559
vt 0.089396 0.709711
vt 0.090924 0.716046
vt 0.090924 0.709711
vt 0.082636 0.712943
vt 0.069505 0.714430
vt 0.082636 0.714430
vt 0.094239 0.667690
vt 0.092711 0.680490
vt 0.094239 0.680490
vt 0.155837 0.721243
vt 0.159023 0.724346
vt 0.159023 0.721243
vt 0.082636 0.700014
vt 0.076135 0.706349
vt 0.082636 0.706349
vt 0.069505 0.700014
vt 0.076006 0.706349
vt 0.076006 0.700014
vt 0.082636 0.693549
vt 0.076135 0.699884
vt 0.082636 0.699884
vt 0.069375 0.700014
vt 0.056244 0.703117
vt 0.069375 0.703117
vt 0.094175 0.709711
vt 0.092614 0.711230
vt 0.092614 0.709711
vt 0.082636 0.667690
vt 0.079450 0.680490
vt 0.082636 0.680490
vt 0.056114 0.690252
vt 0.056114 0.687084
vt 0.042983 0.687084
vt 0.069505 0.680619
vt 0.072690 0.693419
vt 0.072690 0.680619
vt 0.042853 0.711262
vt 0.029722 0.709711
vt 0.029722 0.712814
vt 0.089267 0.654761
vt 0.086081 0.667561
vt 0.089267 0.667561
vt 0.069375 0.714430
vt 0.056244 0.712943
vt 0.056244 0.714430
vt 0.089267 0.667690
vt 0.086081 0.680490
vt 0.089267 0.680490
vt 0.056114 0.703246
vt 0.042983 0.706349
vt 0.056114 0.706349
vt 0.092582 0.654761
vt 0.089396 0.667561
vt 0.092582 0.667561
vt 0.092582 0.712943
vt 0.091054 0.714430
vt 0.092582 0.714430
vt 0.069375 0.711327
vt 0.056244 0.712814
vt 0.069375 0.712814
vt 0.090924 0.693549
vt 0.089396 0.706349
vt 0.090924 0.706349
vt 0.042853 0.717662
vt 0.029722 0.716175
vt 0.029722 0.717662
vt 0.160227 0.925651
vt 0.192434 0.909596
vt 0.192434 0.925651
vt 0.224577 0.893476
vt 0.192370 0.909531
vt 0.192370 0.893476
vt 0.160227 0.957955
vt 0.192434 0.941900
vt 0.192434 0.957955
vt 0.224577 0.925780
vt 0.192370 0.941835
vt 0.192370 0.925780
vt 0.160163 0.941835
vt 0.160163 0.925780
vt 0.160163 0.957890
vt 0.224641 0.941900
vt 0.224641 0.957955
vt 0.224641 0.925845
vt 0.160163 0.909531
vt 0.160163 0.893476
vt 0.160163 0.925586
vt 0.224641 0.909596
vt 0.224641 0.925651
vt 0.224641 0.893541
vt 0.091054 0.711230
vt 0.091054 0.709711
vt 0.091054 0.712749
vt 0.092679 0.711294
vt 0.091118 0.712814
vt 0.094239 0.709775
vt 0.029722 0.667561
vt 0.029722 0.680490
vt 0.056244 0.686955
vt 0.069375 0.667690
vt 0.085951 0.654761
vt 0.084358 0.654761
vt 0.029722 0.693419
vt 0.042983 0.680619
vt 0.069505 0.654761
vt 0.029722 0.700014
vt 0.042983 0.654761
vt 0.062874 0.667561
vt 0.056244 0.687084
vt 0.069375 0.674155
vt 0.062874 0.686955
vt 0.042983 0.680490
vt 0.089267 0.712943
vt 0.069505 0.680490
vt 0.042983 0.699884
vt 0.062745 0.693549
vt 0.082766 0.680490
vt 0.062745 0.699884
vt 0.062745 0.698333
vt 0.076006 0.680619
vt 0.072820 0.680619
vt 0.076006 0.693549
vt 0.076135 0.667561
vt 0.062874 0.696781
vt 0.076135 0.667690
vt 0.056114 0.716175
vt 0.076135 0.693419
vt 0.042983 0.700014
vt 0.079450 0.654761
vt 0.069505 0.716175
vt 0.069505 0.714559
vt 0.092711 0.693419
vt 0.069375 0.714559
vt 0.079450 0.680619
vt 0.042853 0.703246
vt 0.056244 0.667561
vt 0.042853 0.693549
vt 0.082766 0.680619
vt 0.056114 0.714559
vt 0.082766 0.693549
vt 0.029722 0.714559
vt 0.092711 0.654761
vt 0.042983 0.712943
vt 0.091054 0.706349
vt 0.042853 0.712943
vt 0.070333 0.716175
vt 0.092711 0.693549
vt 0.056244 0.709711
vt 0.093540 0.706349
vt 0.062745 0.716175
vt 0.089396 0.680490
vt 0.069375 0.706478
vt 0.089396 0.680619
vt 0.069505 0.712814
vt 0.049613 0.706478
vt 0.042983 0.706478
vt 0.076135 0.706478
vt 0.082766 0.706478
vt 0.029722 0.706478
vt 0.086081 0.706349
vt 0.069375 0.703246
vt 0.086081 0.680619
vt 0.062874 0.716175
vt 0.086081 0.706478
vt 0.076135 0.709711
vt 0.091054 0.716046
vt 0.089396 0.716046
vt 0.069505 0.712943
vt 0.092711 0.667690
vt 0.155837 0.724346
vt 0.076135 0.700014
vt 0.069505 0.706349
vt 0.076135 0.693549
vt 0.056244 0.700014
vt 0.079450 0.667690
vt 0.042983 0.693419
vt 0.056114 0.693419
vt 0.069505 0.693419
vt 0.042853 0.712814
vt 0.042853 0.709711
vt 0.086081 0.654761
vt 0.069375 0.712943
vt 0.086081 0.667690
vt 0.042983 0.703246
vt 0.089396 0.654761
vt 0.091054 0.712943
vt 0.056244 0.711327
vt 0.089396 0.693549
vt 0.042853 0.716175
s 1
usemtl masterMaterial.001
f 7/1/1 1/2/1 3/3/1
f 6/4/2 236/5/2 237/6/2
f 7/7/3 9/8/3 5/9/3
f 12/10/4 10/11/4 9/12/4
f 10/13/5 14/14/5 11/15/5
f 6/16/6 38/17/6 37/18/6
f 3/19/7 12/20/7 7/21/7
f 15/22/8 13/23/8 12/24/8
f 13/25/9 17/26/9 14/27/9
f 57/28/10 53/29/10 58/30/10
f 3/31/11 18/32/11 15/33/11
f 18/34/12 16/35/12 15/36/12
f 19/37/13 17/38/13 16/39/13
f 20/40/14 235/41/14 4/42/14
f 5/43/15 18/44/15 1/45/15
f 19/46/16 73/47/16 10/48/16
f 10/49/17 20/50/17 19/51/17
f 11/52/18 2/53/18 20/54/18
f 24/55/19 27/56/19 28/57/19
f 4/58/20 23/59/21 8/60/22
f 78/61/23 21/62/23 22/63/23
f 237/64/24 81/65/24 79/66/24
f 25/67/25 32/68/25 29/69/25
f 21/70/26 26/71/26 22/72/26
f 24/73/27 25/74/28 21/75/29
f 23/76/30 26/77/30 27/78/30
f 32/79/31 35/80/31 36/81/31
f 26/82/32 31/83/32 27/84/32
f 27/85/33 32/86/33 28/87/33
f 26/88/34 29/89/34 30/90/34
f 33/91/35 35/92/35 34/93/35
f 29/94/36 34/95/36 30/96/36
f 32/97/37 33/98/37 29/99/37
f 31/100/38 34/101/38 35/102/38
f 39/103/39 41/104/40 43/105/41
f 11/106/42 39/107/42 40/108/42
f 11/109/43 38/110/43 6/111/43
f 14/112/44 37/113/44 39/114/44
f 42/115/45 48/116/46 46/117/47
f 40/118/48 43/119/48 44/120/48
f 38/121/49 44/122/50 42/123/51
f 38/124/52 41/125/52 37/126/52
f 47/127/53 49/128/54 51/129/55
f 42/130/56 45/131/56 41/132/56
f 41/133/57 47/134/58 43/135/59
f 44/136/60 47/137/60 48/138/60
f 52/139/61 49/140/61 50/141/61
f 48/142/62 51/143/62 52/144/62
f 48/145/63 50/146/63 46/147/63
f 46/148/64 49/149/64 45/150/64
f 55/151/65 64/152/65 63/153/65
f 58/154/66 56/155/66 59/156/66
f 60/157/67 56/158/67 55/159/67
f 57/160/68 55/161/68 54/162/68
f 14/163/69 57/164/69 8/165/69
f 14/166/70 59/167/70 60/168/70
f 17/169/71 58/170/71 59/171/71
f 8/172/72 58/173/72 4/174/72
f 63/175/73 68/176/74 67/177/75
f 54/178/76 61/179/76 53/180/76
f 53/181/77 64/182/78 56/183/79
f 54/184/80 63/185/80 62/186/80
f 67/187/81 72/188/81 71/189/81
f 62/190/82 65/191/83 61/192/84
f 64/193/85 65/194/86 68/195/87
f 63/196/88 66/197/88 62/198/88
f 72/199/89 70/200/89 71/201/89
f 66/202/90 69/203/90 65/204/90
f 65/205/91 72/206/91 68/207/91
f 66/208/92 71/209/92 70/210/92
f 74/211/93 76/212/93 75/213/93
f 19/214/94 75/215/94 76/216/94
f 10/217/95 74/218/95 9/219/95
f 18/220/96 74/221/96 75/222/96
f 80/223/97 86/224/98 82/225/99
f 78/226/100 239/227/100 238/228/100
f 78/229/101 24/230/27 21/231/29
f 240/232/102 8/233/102 23/234/102
f 78/235/103 81/236/104 77/237/105
f 238/238/106 80/239/106 82/240/106
f 2/241/107 79/242/108 80/243/109
f 85/244/110 90/245/111 89/246/111
f 80/247/112 83/248/112 84/249/112
f 82/250/113 85/251/113 81/252/113
f 79/253/114 85/254/114 83/255/114
f 88/256/115 89/257/116 90/258/117
f 85/259/118 87/260/119 83/261/120
f 86/262/121 88/263/121 90/264/121
f 84/265/122 87/266/123 88/267/124
f 91/268/125 244/269/125 241/270/125
f 92/271/126 242/272/126 243/273/126
f 93/274/127 245/275/127 246/276/127
f 91/277/128 241/278/128 246/279/128
f 95/268/129 250/269/129 247/270/129
f 96/271/130 248/272/130 249/273/130
f 97/274/131 251/275/131 252/276/131
f 95/277/132 247/278/132 252/279/132
f 99/268/133 256/269/133 253/270/133
f 100/271/134 254/272/134 255/273/134
f 101/274/135 257/275/135 258/276/135
f 99/277/136 253/278/136 258/279/136
f 103/268/137 262/269/137 259/270/137
f 104/271/138 260/272/138 261/273/138
f 105/274/139 263/275/139 264/276/139
f 103/277/140 259/278/140 264/279/140
f 107/268/141 268/269/141 265/270/141
f 108/271/142 266/272/142 267/273/142
f 109/274/143 269/275/143 270/276/143
f 107/277/144 265/278/144 270/279/144
f 111/268/145 274/269/145 271/270/145
f 112/271/146 272/272/146 273/273/146
f 113/274/147 275/275/147 276/276/147
f 111/277/148 271/278/148 276/279/148
f 115/268/149 280/269/149 277/270/149
f 116/271/150 278/272/150 279/273/150
f 117/274/151 281/275/151 282/276/151
f 115/277/152 277/278/152 282/279/152
f 119/268/153 286/269/153 283/270/153
f 120/271/154 284/272/154 285/273/154
f 121/274/155 287/275/155 288/276/155
f 119/277/156 283/278/156 288/279/156
f 123/268/157 292/269/157 289/270/157
f 124/271/158 290/272/158 291/273/158
f 125/274/159 293/275/159 294/276/159
f 123/277/160 289/278/160 294/279/160
f 127/268/161 298/269/161 295/270/161
f 128/271/162 296/272/162 297/273/162
f 129/274/163 299/275/163 300/276/163
f 127/277/164 295/278/164 300/279/164
f 131/268/165 304/269/165 301/270/165
f 132/271/166 302/272/166 303/273/166
f 133/274/167 305/275/167 306/276/167
f 131/277/168 301/278/168 306/279/168
f 135/268/165 310/269/165 307/270/165
f 136/271/166 308/272/166 309/273/166
f 137/274/167 311/275/167 312/276/167
f 135/277/168 307/278/168 312/279/168
f 139/268/169 316/269/169 313/270/169
f 140/271/170 314/272/170 315/273/170
f 141/274/171 317/275/171 318/276/171
f 139/277/172 313/278/172 318/279/172
f 143/268/173 322/269/173 319/270/173
f 144/271/174 320/272/174 321/273/174
f 145/274/175 323/275/175 324/276/175
f 143/277/176 319/278/176 324/279/176
f 147/268/177 328/269/177 325/270/177
f 148/271/178 326/272/178 327/273/178
f 149/274/179 329/275/179 330/276/179
f 147/277/180 325/278/180 330/279/180
f 151/268/177 334/269/177 331/270/177
f 152/271/178 332/272/178 333/273/178
f 153/274/179 335/275/179 336/276/179
f 151/277/180 331/278/180 336/279/180
f 155/268/177 340/269/177 337/270/177
f 156/271/178 338/272/178 339/273/178
f 157/274/179 341/275/179 342/276/179
f 155/277/180 337/278/180 342/279/180
f 159/268/181 346/269/181 343/270/181
f 160/271/182 344/272/182 345/273/182
f 161/274/183 347/275/183 348/276/183
f 159/277/184 343/278/184 348/279/184
f 163/268/185 352/269/185 349/270/185
f 164/271/186 350/272/186 351/273/186
f 165/274/187 353/275/187 354/276/187
f 163/277/188 349/278/188 354/279/188
f 167/268/185 358/269/185 355/270/185
f 168/271/186 356/272/186 357/273/186
f 169/274/187 359/275/187 360/276/187
f 167/277/188 355/278/188 360/279/188
f 171/268/185 364/269/185 361/270/185
f 172/271/186 362/272/186 363/273/186
f 173/274/187 365/275/187 366/276/187
f 171/277/188 361/278/188 366/279/188
f 175/268/189 370/269/189 367/270/189
f 176/271/190 368/272/190 369/273/190
f 177/274/191 371/275/191 372/276/191
f 175/277/192 367/278/192 372/279/192
f 179/268/189 376/269/189 373/270/189
f 180/271/190 374/272/190 375/273/190
f 181/274/191 377/275/191 378/276/191
f 179/277/192 373/278/192 378/279/192
f 183/268/189 382/269/189 379/270/189
f 184/271/190 380/272/190 381/273/190
f 185/274/191 383/275/191 384/276/191
f 183/277/192 379/278/192 384/279/192
f 187/268/189 388/269/189 385/270/189
f 188/271/190 386/272/190 387/273/190
f 189/274/191 389/275/191 390/276/191
f 187/277/192 385/278/192 390/279/192
f 191/268/189 394/269/189 391/270/189
f 192/271/190 392/272/190 393/273/190
f 193/274/191 395/275/191 396/276/191
f 191/277/192 391/278/192 396/279/192
f 195/268/189 400/269/189 397/270/189
f 196/271/190 398/272/190 399/273/190
f 197/274/191 401/275/191 402/276/191
f 195/277/192 397/278/192 402/279/192
f 199/268/193 406/269/193 403/270/193
f 200/271/194 404/272/194 405/273/194
f 201/274/195 407/275/195 408/276/195
f 199/277/196 403/278/196 408/279/196
f 203/268/197 412/269/197 409/270/197
f 204/271/198 410/272/198 411/273/198
f 205/274/199 413/275/199 414/276/199
f 203/277/200 409/278/200 414/279/200
f 207/268/197 418/269/197 415/270/197
f 208/271/198 416/272/198 417/273/198
f 209/274/199 419/275/199 420/276/199
f 207/277/200 415/278/200 420/279/200
f 211/268/197 424/269/197 421/270/197
f 212/271/198 422/272/198 423/273/198
f 213/274/199 425/275/199 426/276/199
f 211/277/200 421/278/200 426/279/200
f 215/268/201 430/269/201 427/270/201
f 216/271/202 428/272/202 429/273/202
f 217/274/203 431/275/203 432/276/203
f 215/277/204 427/278/204 432/279/204
f 219/268/205 436/269/205 433/270/205
f 220/271/206 434/272/206 435/273/206
f 221/274/207 437/275/207 438/276/207
f 219/277/208 433/278/208 438/279/208
f 223/268/209 442/269/209 439/270/209
f 224/271/210 440/272/210 441/273/210
f 225/274/211 443/275/211 444/276/211
f 223/277/212 439/278/212 444/279/212
f 227/268/213 448/269/213 445/270/213
f 228/271/214 446/272/214 447/273/214
f 229/274/215 449/275/215 450/276/215
f 227/277/216 445/278/216 450/279/216
f 231/268/217 454/269/217 451/270/217
f 232/271/218 452/272/218 453/273/218
f 233/274/219 455/275/219 456/276/219
f 231/277/220 451/278/220 456/279/220
f 456/279/221 453/280/221 233/281/221
f 456/279/222 451/278/222 453/280/222
f 451/278/223 232/282/223 453/280/223
f 456/276/224 454/283/224 231/284/224
f 456/276/225 455/275/225 454/283/225
f 455/275/226 234/285/226 454/283/226
f 453/273/227 455/286/227 233/287/227
f 453/273/228 452/272/228 455/286/228
f 452/272/229 234/288/229 455/286/229
f 451/270/230 452/289/230 232/290/230
f 451/270/231 454/269/231 452/289/231
f 454/269/232 234/291/232 452/289/232
f 450/279/233 447/280/233 229/281/233
f 450/279/234 445/278/234 447/280/234
f 445/278/235 228/282/235 447/280/235
f 450/276/236 448/283/236 227/284/236
f 450/276/237 449/275/237 448/283/237
f 449/275/238 230/285/238 448/283/238
f 447/273/239 449/286/239 229/287/239
f 447/273/240 446/272/240 449/286/240
f 446/272/241 230/288/241 449/286/241
f 445/270/242 446/289/242 228/290/242
f 445/270/243 448/269/243 446/289/243
f 448/269/244 230/291/244 446/289/244
f 444/279/245 441/280/245 225/281/245
f 444/279/246 439/278/246 441/280/246
f 439/278/247 224/282/247 441/280/247
f 444/276/248 442/283/248 223/284/248
f 444/276/249 443/275/249 442/283/249
f 443/275/250 226/285/250 442/283/250
f 441/273/251 443/286/251 225/287/251
f 441/273/252 440/272/252 443/286/252
f 440/272/253 226/288/253 443/286/253
f 439/270/254 440/289/254 224/290/254
f 439/270/255 442/269/255 440/289/255
f 442/269/256 226/291/256 440/289/256
f 438/279/257 435/280/257 221/281/257
f 438/279/258 433/278/258 435/280/258
f 433/278/259 220/282/259 435/280/259
f 438/276/260 436/283/260 219/284/260
f 438/276/261 437/275/261 436/283/261
f 437/275/262 222/285/262 436/283/262
f 435/273/263 437/286/263 221/287/263
f 435/273/264 434/272/264 437/286/264
f 434/272/265 222/288/265 437/286/265
f 433/270/266 434/289/266 220/290/266
f 433/270/267 436/269/267 434/289/267
f 436/269/268 222/291/268 434/289/268
f 432/279/269 429/280/269 217/281/269
f 432/279/270 427/278/270 429/280/270
f 427/278/271 216/282/271 429/280/271
f 432/276/272 430/283/272 215/284/272
f 432/276/273 431/275/273 430/283/273
f 431/275/274 218/285/274 430/283/274
f 429/273/275 431/286/275 217/287/275
f 429/273/276 428/272/276 431/286/276
f 428/272/277 218/288/277 431/286/277
f 427/270/278 428/289/278 216/290/278
f 427/270/279 430/269/279 428/289/279
f 430/269/280 218/291/280 428/289/280
f 426/279/281 423/280/281 213/281/281
f 426/279/282 421/278/282 423/280/282
f 421/278/283 212/282/283 423/280/283
f 426/276/284 424/283/284 211/284/284
f 426/276/285 425/275/285 424/283/285
f 425/275/286 214/285/286 424/283/286
f 423/273/287 425/286/287 213/287/287
f 423/273/288 422/272/288 425/286/288
f 422/272/289 214/288/289 425/286/289
f 421/270/290 422/289/290 212/290/290
f 421/270/291 424/269/291 422/289/291
f 424/269/292 214/291/292 422/289/292
f 420/279/281 417/280/281 209/281/281
f 420/279/282 415/278/282 417/280/282
f 415/278/283 208/282/283 417/280/283
f 420/276/284 418/283/284 207/284/284
f 420/276/285 419/275/285 418/283/285
f 419/275/286 210/285/286 418/283/286
f 417/273/287 419/286/287 209/287/287
f 417/273/288 416/272/288 419/286/288
f 416/272/289 210/288/289 419/286/289
f 415/270/290 416/289/290 208/290/290
f 415/270/291 418/269/291 416/289/291
f 418/269/292 210/291/292 416/289/292
f 414/279/281 411/280/281 205/281/281
f 414/279/282 409/278/282 411/280/282
f 409/278/283 204/282/283 411/280/283
f 414/276/284 412/283/284 203/284/284
f 414/276/285 413/275/285 412/283/285
f 413/275/286 206/285/286 412/283/286
f 411/273/287 413/286/287 205/287/287
f 411/273/288 410/272/288 413/286/288
f 410/272/289 206/288/289 413/286/289
f 409/270/290 410/289/290 204/290/290
f 409/270/291 412/269/291 410/289/291
f 412/269/292 206/291/292 410/289/292
f 408/279/293 405/280/293 201/281/293
f 408/279/294 403/278/294 405/280/294
f 403/278/295 200/282/295 405/280/295
f 408/276/296 406/283/296 199/284/296
f 408/276/297 407/275/297 406/283/297
f 407/275/298 202/285/298 406/283/298
f 405/273/299 407/286/299 201/287/299
f 405/273/300 404/272/300 407/286/300
f 404/272/301 202/288/301 407/286/301
f 403/270/302 404/289/302 200/290/302
f 403/270/303 406/269/303 404/289/303
f 406/269/304 202/291/304 404/289/304
f 402/279/305 399/280/305 197/281/305
f 402/279/306 397/278/306 399/280/306
f 397/278/307 196/282/307 399/280/307
f 402/276/308 400/283/308 195/284/308
f 402/276/309 401/275/309 400/283/309
f 401/275/310 198/285/310 400/283/310
f 399/273/311 401/286/311 197/287/311
f 399/273/312 398/272/312 401/286/312
f 398/272/313 198/288/313 401/286/313
f 397/270/314 398/289/314 196/290/314
f 397/270/315 400/269/315 398/289/315
f 400/269/316 198/291/316 398/289/316
f 396/279/305 393/280/305 193/281/305
f 396/279/306 391/278/306 393/280/306
f 391/278/307 192/282/307 393/280/307
f 396/276/308 394/283/308 191/284/308
f 396/276/309 395/275/309 394/283/309
f 395/275/310 194/285/310 394/283/310
f 393/273/311 395/286/311 193/287/311
f 393/273/312 392/272/312 395/286/312
f 392/272/313 194/288/313 395/286/313
f 391/270/314 392/289/314 192/290/314
f 391/270/315 394/269/315 392/289/315
f 394/269/316 194/291/316 392/289/316
f 390/279/305 387/280/305 189/281/305
f 390/279/306 385/278/306 387/280/306
f 385/278/307 188/282/307 387/280/307
f 390/276/308 388/283/308 187/284/308
f 390/276/309 389/275/309 388/283/309
f 389/275/310 190/285/310 388/283/310
f 387/273/311 389/286/311 189/287/311
f 387/273/312 386/272/312 389/286/312
f 386/272/313 190/288/313 389/286/313
f 385/270/314 386/289/314 188/290/314
f 385/270/315 388/269/315 386/289/315
f 388/269/316 190/291/316 386/289/316
f 384/279/305 381/280/305 185/281/305
f 384/279/306 379/278/306 381/280/306
f 379/278/307 184/282/307 381/280/307
f 384/276/308 382/283/308 183/284/308
f 384/276/309 383/275/309 382/283/309
f 383/275/310 186/285/310 382/283/310
f 381/273/311 383/286/311 185/287/311
f 381/273/312 380/272/312 383/286/312
f 380/272/313 186/288/313 383/286/313
f 379/270/317 380/289/317 184/290/317
f 379/270/315 382/269/315 380/289/315
f 382/269/316 186/291/316 380/289/316
f 378/279/305 375/280/305 181/281/305
f 378/279/306 373/278/306 375/280/306
f 373/278/307 180/282/307 375/280/307
f 378/276/308 376/283/308 179/284/308
f 378/276/309 377/275/309 376/283/309
f 377/275/310 182/285/310 376/283/310
f 375/273/311 377/286/311 181/287/311
f 375/273/312 374/272/312 377/286/312
f 374/272/313 182/288/313 377/286/313
f 373/270/314 374/289/314 180/290/314
f 373/270/315 376/269/315 374/289/315
f 376/269/316 182/291/316 374/289/316
f 372/279/305 369/280/305 177/281/305
f 372/279/306 367/278/306 369/280/306
f 367/278/307 176/282/307 369/280/307
f 372/276/308 370/283/308 175/284/308
f 372/276/309 371/275/309 370/283/309
f 371/275/310 178/285/310 370/283/310
f 369/273/311 371/286/311 177/287/311
f 369/273/312 368/272/312 371/286/312
f 368/272/313 178/288/313 371/286/313
f 367/270/314 368/289/314 176/290/314
f 367/270/315 370/269/315 368/289/315
f 370/269/316 178/291/316 368/289/316
f 366/279/318 363/280/318 173/281/318
f 366/279/319 361/278/319 363/280/319
f 361/278/320 172/282/320 363/280/320
f 366/276/321 364/283/321 171/284/321
f 366/276/322 365/275/322 364/283/322
f 365/275/323 174/285/323 364/283/323
f 363/273/324 365/286/324 173/287/324
f 363/273/325 362/272/325 365/286/325
f 362/272/326 174/288/326 365/286/326
f 361/270/327 362/289/327 172/290/327
f 361/270/328 364/269/328 362/289/328
f 364/269/329 174/291/329 362/289/329
f 360/279/318 357/280/318 169/281/318
f 360/279/319 355/278/319 357/280/319
f 355/278/320 168/282/320 357/280/320
f 360/276/321 358/283/321 167/284/321
f 360/276/322 359/275/322 358/283/322
f 359/275/323 170/285/323 358/283/323
f 357/273/324 359/286/324 169/287/324
f 357/273/325 356/272/325 359/286/325
f 356/272/326 170/288/326 359/286/326
f 355/270/327 356/289/327 168/290/327
f 355/270/328 358/269/328 356/289/328
f 358/269/329 170/291/329 356/289/329
f 354/279/318 351/280/318 165/281/318
f 354/279/319 349/278/319 351/280/319
f 349/278/330 164/282/330 351/280/330
f 354/276/321 352/283/321 163/284/321
f 354/276/322 353/275/322 352/283/322
f 353/275/323 166/285/323 352/283/323
f 351/273/324 353/286/324 165/287/324
f 351/273/325 350/272/325 353/286/325
f 350/272/326 166/288/326 353/286/326
f 349/270/327 350/289/327 164/290/327
f 349/270/328 352/269/328 350/289/328
f 352/269/329 166/291/329 350/289/329
f 348/279/331 345/280/331 161/281/331
f 348/279/332 343/278/332 345/280/332
f 343/278/333 160/282/333 345/280/333
f 348/276/334 346/283/334 159/284/334
f 348/276/335 347/275/335 346/283/335
f 347/275/336 162/285/336 346/283/336
f 345/273/337 347/286/337 161/287/337
f 345/273/338 344/272/338 347/286/338
f 344/272/339 162/288/339 347/286/339
f 343/270/340 344/289/340 160/290/340
f 343/270/341 346/269/341 344/289/341
f 346/269/342 162/291/342 344/289/342
f 342/279/343 339/280/343 157/281/343
f 342/279/344 337/278/344 339/280/344
f 337/278/345 156/282/345 339/280/345
f 342/276/346 340/283/346 155/284/346
f 342/276/347 341/275/347 340/283/347
f 341/275/348 158/285/348 340/283/348
f 339/273/349 341/286/349 157/287/349
f 339/273/350 338/272/350 341/286/350
f 338/272/351 158/288/351 341/286/351
f 337/270/352 338/289/352 156/290/352
f 337/270/353 340/269/353 338/289/353
f 340/269/354 158/291/354 338/289/354
f 336/279/343 333/280/343 153/281/343
f 336/279/344 331/278/344 333/280/344
f 331/278/345 152/282/345 333/280/345
f 336/276/355 334/283/355 151/284/355
f 336/276/347 335/275/347 334/283/347
f 335/275/348 154/285/348 334/283/348
f 333/273/349 335/286/349 153/287/349
f 333/273/350 332/272/350 335/286/350
f 332/272/351 154/288/351 335/286/351
f 331/270/352 332/289/352 152/290/352
f 331/270/353 334/269/353 332/289/353
f 334/269/354 154/291/354 332/289/354
f 330/279/343 327/280/343 149/281/343
f 330/279/344 325/278/344 327/280/344
f 325/278/345 148/282/345 327/280/345
f 330/276/355 328/283/355 147/284/355
f 330/276/347 329/275/347 328/283/347
f 329/275/348 150/285/348 328/283/348
f 327/273/349 329/286/349 149/287/349
f 327/273/350 326/272/350 329/286/350
f 326/272/351 150/288/351 329/286/351
f 325/270/352 326/289/352 148/290/352
f 325/270/353 328/269/353 326/289/353
f 328/269/354 150/291/354 326/289/354
f 324/279/356 321/280/356 145/281/356
f 324/279/357 319/278/357 321/280/357
f 319/278/358 144/282/358 321/280/358
f 324/276/359 322/283/359 143/284/359
f 324/276/360 323/275/360 322/283/360
f 323/275/361 146/285/361 322/283/361
f 321/273/362 323/286/362 145/287/362
f 321/273/363 320/272/363 323/286/363
f 320/272/364 146/288/364 323/286/364
f 319/270/365 320/289/365 144/290/365
f 319/270/366 322/269/366 320/289/366
f 322/269/367 146/291/367 320/289/367
f 318/279/368 315/280/368 141/281/368
f 318/279/369 313/278/369 315/280/369
f 313/278/370 140/282/370 315/280/370
f 318/276/371 316/283/371 139/284/371
f 318/276/372 317/275/372 316/283/372
f 317/275/373 142/285/373 316/283/373
f 315/273/374 317/286/374 141/287/374
f 315/273/375 314/272/375 317/286/375
f 314/272/376 142/288/376 317/286/376
f 313/270/377 314/289/377 140/290/377
f 313/270/378 316/269/378 314/289/378
f 316/269/379 142/291/379 314/289/379
f 312/279/380 309/280/380 137/281/380
f 312/279/381 307/278/381 309/280/381
f 307/278/382 136/282/382 309/280/382
f 312/276/383 310/283/383 135/284/383
f 312/276/384 311/275/384 310/283/384
f 311/275/385 138/285/385 310/283/385
f 309/273/386 311/286/386 137/287/386
f 309/273/387 308/272/387 311/286/387
f 308/272/388 138/288/388 311/286/388
f 307/270/389 308/289/389 136/290/389
f 307/270/390 310/269/390 308/289/390
f 310/269/391 138/291/391 308/289/391
f 306/279/380 303/280/380 133/281/380
f 306/279/381 301/278/381 303/280/381
f 301/278/382 132/282/382 303/280/382
f 306/276/383 304/283/383 131/284/383
f 306/276/384 305/275/384 304/283/384
f 305/275/385 134/285/385 304/283/385
f 303/273/386 305/286/386 133/287/386
f 303/273/387 302/272/387 305/286/387
f 302/272/388 134/288/388 305/286/388
f 301/270/389 302/289/389 132/290/389
f 301/270/390 304/269/390 302/289/390
f 304/269/391 134/291/391 302/289/391
f 300/279/392 297/280/392 129/281/392
f 300/279/393 295/278/393 297/280/393
f 295/278/394 128/282/394 297/280/394
f 300/276/395 298/283/395 127/284/395
f 300/276/396 299/275/396 298/283/396
f 299/275/397 130/285/397 298/283/397
f 297/273/398 299/286/398 129/287/398
f 297/273/399 296/272/399 299/286/399
f 296/272/400 130/288/400 299/286/400
f 295/270/401 296/289/401 128/290/401
f 295/270/402 298/269/402 296/289/402
f 298/269/403 130/291/403 296/289/403
f 294/279/404 291/280/404 125/281/404
f 294/279/405 289/278/405 291/280/405
f 289/278/406 124/282/406 291/280/406
f 294/276/407 292/283/407 123/284/407
f 294/276/408 293/275/408 292/283/408
f 293/275/409 126/285/409 292/283/409
f 291/273/410 293/286/410 125/287/410
f 291/273/411 290/272/411 293/286/411
f 290/272/412 126/288/412 293/286/412
f 289/270/413 290/289/413 124/290/413
f 289/270/414 292/269/414 290/289/414
f 292/269/415 126/291/415 290/289/415
f 288/279/416 285/280/416 121/281/416
f 288/279/417 283/278/417 285/280/417
f 283/278/418 120/282/418 285/280/418
f 288/276/419 286/283/419 119/284/419
f 288/276/420 287/275/420 286/283/420
f 287/275/421 122/285/421 286/283/421
f 285/273/422 287/286/422 121/287/422
f 285/273/423 284/272/423 287/286/423
f 284/272/424 122/288/424 287/286/424
f 283/270/425 284/289/425 120/290/425
f 283/270/426 286/269/426 284/289/426
f 286/269/427 122/291/427 284/289/427
f 282/279/428 279/280/428 117/281/428
f 282/279/429 277/278/429 279/280/429
f 277/278/430 116/282/430 279/280/430
f 282/276/431 280/283/431 115/284/431
f 282/276/432 281/275/432 280/283/432
f 281/275/433 118/285/433 280/283/433
f 279/273/434 281/286/434 117/287/434
f 279/273/435 278/272/435 281/286/435
f 278/272/436 118/288/436 281/286/436
f 277/270/437 278/289/437 116/290/437
f 277/270/438 280/269/438 278/289/438
f 280/269/439 118/291/439 278/289/439
f 276/279/440 273/280/440 113/281/440
f 276/279/441 271/278/441 273/280/441
f 271/278/442 112/282/442 273/280/442
f 276/276/443 274/283/443 111/284/443
f 276/276/444 275/275/444 274/283/444
f 275/275/445 114/285/445 274/283/445
f 273/273/446 275/286/446 113/287/446
f 273/273/447 272/272/447 275/286/447
f 272/272/448 114/288/448 275/286/448
f 271/270/449 272/289/449 112/290/449
f 271/270/450 274/269/450 272/289/450
f 274/269/451 114/291/451 272/289/451
f 270/279/452 267/280/452 109/281/452
f 270/279/453 265/278/453 267/280/453
f 265/278/454 108/282/454 267/280/454
f 270/276/455 268/283/455 107/284/455
f 270/276/456 269/275/456 268/283/456
f 269/275/457 110/285/457 268/283/457
f 267/273/458 269/286/458 109/287/458
f 267/273/459 266/272/459 269/286/459
f 266/272/460 110/288/460 269/286/460
f 265/270/461 266/289/461 108/290/461
f 265/270/462 268/269/462 266/289/462
f 268/269/463 110/291/463 266/289/463
f 264/279/464 261/280/464 105/281/464
f 264/279/465 259/278/465 261/280/465
f 259/278/466 104/282/466 261/280/466
f 264/276/467 262/283/467 103/284/467
f 264/276/468 263/275/468 262/283/468
f 263/275/469 106/285/469 262/283/469
f 261/273/470 263/286/470 105/287/470
f 261/273/471 260/272/471 263/286/471
f 260/272/472 106/288/472 263/286/472
f 259/270/473 260/289/473 104/290/473
f 259/270/474 262/269/474 260/289/474
f 262/269/475 106/291/475 260/289/475
f 258/279/476 255/280/476 101/281/476
f 258/279/477 253/278/477 255/280/477
f 253/278/478 100/282/478 255/280/478
f 258/276/479 256/283/479 99/284/479
f 258/276/480 257/275/480 256/283/480
f 257/275/481 102/285/481 256/283/481
f 255/273/482 257/286/482 101/287/482
f 255/273/483 254/272/483 257/286/483
f 254/272/484 102/288/484 257/286/484
f 253/270/485 254/289/485 100/290/485
f 253/270/486 256/269/486 254/289/486
f 256/269/487 102/291/487 254/289/487
f 252/279/488 249/280/488 97/281/488
f 252/279/489 247/278/489 249/280/489
f 247/278/490 96/282/490 249/280/490
f 252/276/491 250/283/491 95/284/491
f 252/276/492 251/275/492 250/283/492
f 251/275/493 98/285/493 250/283/493
f 249/273/494 251/286/494 97/287/494
f 249/273/495 248/272/495 251/286/495
f 248/272/496 98/288/496 251/286/496
f 247/270/497 248/289/497 96/290/497
f 247/270/498 250/269/498 248/289/498
f 250/269/499 98/291/499 248/289/499
f 246/279/500 243/280/500 93/281/500
f 246/279/501 241/278/501 243/280/501
f 241/278/502 92/282/502 243/280/502
f 246/276/503 244/283/503 91/284/503
f 246/276/504 245/275/504 244/283/504
f 245/275/505 94/285/505 244/283/505
f 243/273/506 245/286/506 93/287/506
f 243/273/507 242/272/507 245/286/507
f 242/272/508 94/288/508 245/286/508
f 241/270/509 242/289/509 92/290/509
f 241/270/510 244/269/510 242/289/510
f 244/269/511 94/291/511 242/289/511
f 238/228/512 235/292/512 2/293/512
f 238/228/513 239/227/513 235/292/513
f 239/227/514 4/294/514 235/292/514
f 237/6/515 240/295/516 77/296/517
f 237/6/518 236/5/518 240/295/518
f 236/5/519 8/297/519 240/295/519
f 7/1/1 5/298/1 1/2/1
f 7/7/520 12/299/520 9/8/520
f 12/10/521 13/300/521 10/11/521
f 10/13/522 13/301/522 14/14/522
f 37/18/523 8/302/523 236/303/523
f 236/303/524 6/16/524 37/18/524
f 3/19/525 15/304/525 12/20/525
f 15/22/526 16/305/526 13/23/526
f 13/25/527 16/306/527 17/26/527
f 57/28/528 54/307/528 53/29/528
f 3/31/529 1/308/529 18/32/529
f 18/34/530 19/309/531 16/35/532
f 19/37/533 20/310/533 17/38/533
f 4/42/534 17/311/534 20/40/534
f 20/40/535 2/312/535 235/41/535
f 5/43/536 9/313/536 18/44/536
f 19/46/537 76/314/537 73/47/537
f 10/49/538 11/315/538 20/50/538
f 11/52/539 6/316/539 2/53/539
f 24/55/540 23/317/540 27/56/540
f 4/58/20 22/318/541 23/59/21
f 22/63/542 4/319/542 239/320/542
f 239/320/543 78/61/543 22/63/543
f 79/66/544 6/321/544 237/64/544
f 237/64/515 77/322/517 81/65/545
f 25/67/546 28/323/546 32/68/546
f 21/70/547 25/324/547 26/71/547
f 24/73/548 28/325/548 25/74/548
f 23/76/549 22/326/549 26/77/549
f 32/79/550 31/327/550 35/80/550
f 26/82/551 30/328/551 31/83/551
f 27/85/552 31/329/552 32/86/552
f 26/88/553 25/330/553 29/89/553
f 33/91/35 36/331/35 35/92/35
f 29/94/554 33/332/554 34/95/554
f 32/97/555 36/333/555 33/98/555
f 31/100/556 30/334/556 34/101/556
f 39/103/39 37/335/557 41/104/40
f 11/106/558 14/336/558 39/107/558
f 11/109/559 40/337/559 38/110/559
f 14/112/560 8/338/560 37/113/560
f 42/115/45 44/339/561 48/116/46
f 40/118/562 39/340/562 43/119/562
f 38/121/49 40/341/563 44/122/50
f 38/124/564 42/342/564 41/125/564
f 47/127/53 45/343/565 49/128/54
f 42/130/566 46/344/566 45/131/566
f 41/133/57 45/345/567 47/134/58
f 44/136/568 43/346/568 47/137/568
f 52/139/569 51/347/569 49/140/569
f 48/142/570 47/348/570 51/143/570
f 48/145/571 52/349/571 50/146/571
f 46/148/572 50/350/572 49/149/572
f 55/151/573 56/351/573 64/152/573
f 58/154/574 53/352/574 56/155/574
f 60/157/575 59/353/575 56/158/575
f 57/160/576 60/354/576 55/161/576
f 14/163/577 60/355/577 57/164/577
f 14/166/578 17/356/578 59/167/578
f 17/169/579 4/357/579 58/170/579
f 8/172/580 57/358/580 58/173/580
f 63/175/73 64/359/581 68/176/74
f 54/178/582 62/360/582 61/179/582
f 53/181/77 61/361/583 64/182/78
f 54/184/584 55/362/584 63/185/584
f 67/187/585 68/363/585 72/188/585
f 62/190/82 66/364/586 65/191/83
f 64/193/85 61/365/587 65/194/86
f 63/196/88 67/366/88 66/197/88
f 72/199/588 69/367/588 70/200/588
f 66/202/589 70/368/589 69/203/589
f 65/205/590 69/369/590 72/206/590
f 66/208/591 67/370/591 71/209/591
f 74/211/592 73/371/592 76/212/592
f 19/214/531 18/372/530 75/215/593
f 10/217/594 73/373/594 74/218/594
f 18/220/595 9/374/595 74/221/595
f 80/223/97 84/375/596 86/224/98
f 78/229/101 77/376/597 24/230/27
f 24/377/598 77/378/598 23/234/598
f 77/378/599 240/232/599 23/234/599
f 78/235/103 82/379/600 81/236/104
f 82/240/601 78/380/601 238/238/601
f 238/238/602 2/381/602 80/239/602
f 2/241/107 6/382/603 79/242/108
f 85/244/110 86/383/110 90/245/111
f 80/247/604 79/384/604 83/248/604
f 82/250/605 86/385/605 85/251/605
f 79/253/606 81/386/606 85/254/606
f 88/256/115 87/387/607 89/257/116
f 85/259/118 89/388/608 87/260/119
f 86/262/609 84/389/609 88/263/609
f 84/265/122 83/390/610 87/266/123
